<svg id="wave" style="transform:rotate(0deg); transition: 0.3s" viewBox="0 0 1440 120" version="1.1" xmlns="http://www.w3.org/2000/svg"><defs><linearGradient id="sw-gradient-0" x1="0" x2="0" y1="1" y2="0"><stop stop-color="rgba(255, 255, 255, 1)" offset="0%"></stop><stop stop-color="rgba(255, 255, 255, 1)" offset="100%"></stop></linearGradient></defs><path style="transform:translate(0, 0px); opacity:1" fill="url(#sw-gradient-0)" d="M0,60L60,64C120,68,240,76,360,72C480,68,600,52,720,54C840,56,960,76,1080,82C1200,88,1320,80,1440,66C1560,52,1680,32,1800,26C1920,20,2040,28,2160,44C2280,60,2400,84,2520,94C2640,104,2760,100,2880,88C3000,76,3120,56,3240,42C3360,28,3480,20,3600,14C3720,8,3840,4,3960,18C4080,32,4200,64,4320,78C4440,92,4560,88,4680,90C4800,92,4920,100,5040,98C5160,96,5280,84,5400,76C5520,68,5640,64,5760,60C5880,56,6000,52,6120,48C6240,44,6360,40,6480,32C6600,24,6720,12,6840,22C6960,32,7080,64,7200,78C7320,92,7440,88,7560,76C7680,64,7800,44,7920,32C8040,20,8160,16,8280,22C8400,28,8520,44,8580,52L8640,60L8640,120L8580,120C8520,120,8400,120,8280,120C8160,120,8040,120,7920,120C7800,120,7680,120,7560,120C7440,120,7320,120,7200,120C7080,120,6960,120,6840,120C6720,120,6600,120,6480,120C6360,120,6240,120,6120,120C6000,120,5880,120,5760,120C5640,120,5520,120,5400,120C5280,120,5160,120,5040,120C4920,120,4800,120,4680,120C4560,120,4440,120,4320,120C4200,120,4080,120,3960,120C3840,120,3720,120,3600,120C3480,120,3360,120,3240,120C3120,120,3000,120,2880,120C2760,120,2640,120,2520,120C2400,120,2280,120,2160,120C2040,120,1920,120,1800,120C1680,120,1560,120,1440,120C1320,120,1200,120,1080,120C960,120,840,120,720,120C600,120,480,120,360,120C240,120,120,120,60,120L0,120Z"></path></svg>