<svg width="166" height="103" viewBox="0 0 166 103" fill="none" xmlns="http://www.w3.org/2000/svg">
<g clip-path="url(#clip0_119_560)">
<path d="M8.66127 102.77C8.65016 102.719 7.57615 97.6651 9.76955 93.4672C11.9629 89.2695 16.6449 87.4183 16.692 87.4L16.906 87.3172L16.9565 87.5473C16.9676 87.5978 18.0416 92.6521 15.8482 96.8499C13.6549 101.048 8.97284 102.899 8.9258 102.917L8.71172 103L8.66127 102.77ZM16.6125 87.8789C15.6747 88.2952 11.9733 90.1173 10.1208 93.6627C8.26807 97.2084 8.82704 101.401 9.00527 102.438C9.94272 102.023 13.6427 100.204 15.497 96.6546C17.3496 93.109 16.7908 88.9163 16.6125 87.8788V87.8789Z" fill="#F1F1F1"/>
<path d="M14.1716 95.3774C10.23 97.8247 8.71191 102.686 8.71191 102.686C8.71191 102.686 13.5845 103.579 17.5262 101.132C21.4678 98.6843 22.9858 93.8233 22.9858 93.8233C22.9858 93.8233 18.1132 92.9301 14.1716 95.3774Z" fill="#F1F1F1"/>
<path d="M73.8624 56.145C73.9225 55.8248 73.9139 55.4949 73.837 55.1785C73.7602 54.8622 73.6171 54.567 73.4178 54.3139C73.2185 54.0608 72.9679 53.8559 72.6836 53.7135C72.3992 53.5712 72.0881 53.4949 71.7721 53.4901L69.9468 48.7529L66.8867 49.1955L69.5555 55.848C69.5828 56.3964 69.8041 56.9154 70.1774 57.3066C70.5508 57.6979 71.0502 57.9342 71.5811 57.9708C72.112 58.0074 72.6375 57.8417 73.058 57.5052C73.4784 57.1687 73.7646 56.6847 73.8624 56.145Z" fill="#9F616A"/>
<path d="M68.2249 54.4804L67.2768 52.1471L61.3682 40.5401L61.6894 19.0629L61.7511 19.0545C65.5319 18.539 68.0899 36.5167 68.197 37.2824L71.9302 50.4586L72.8188 53.3629L68.2249 54.4804Z" fill="#005BAA"/>
<path d="M59.1461 99.7684L62.0189 99.7682L63.3854 88.3329L59.1455 88.3331L59.1461 99.7684Z" fill="#9F616A"/>
<path d="M58.4131 98.8005L64.0706 98.8003H64.0709C65.0271 98.8003 65.9441 99.1923 66.6202 99.8901C67.2964 100.588 67.6763 101.534 67.6763 102.521V102.642L58.4133 102.642L58.4131 98.8005Z" fill="#2F2E41"/>
<path d="M32.7324 95.2514L35.0896 96.9464L42.5461 88.371L39.0674 85.8693L32.7324 95.2514Z" fill="#9F616A"/>
<path d="M32.6673 94.025L37.3091 97.363L37.3093 97.3631C38.0938 97.9274 38.6289 98.7901 38.7971 99.7615C38.9652 100.733 38.7526 101.733 38.2059 102.543L38.139 102.642L30.5391 97.177L32.6673 94.025Z" fill="#2F2E41"/>
<path d="M57.5678 97.0805L57.4436 75.6285L55.6361 62.1397L52.266 74.0019L52.2595 74.0116L40.0469 92.3089L35.2949 89.8242L35.321 89.7603C35.6114 89.0475 42.4544 72.3053 44.2938 72.3053C44.4544 72.3169 44.6154 72.288 44.7628 72.2212C44.9102 72.1543 45.0396 72.0515 45.14 71.9215C45.6799 71.1776 45.2402 69.5989 45.2357 69.5831C44.7092 67.3298 46.0331 66.5625 46.2967 66.4343L47.006 51.3253L47.0795 51.3306L66.3063 52.7223L65.4997 71.6127L63.7645 96.3627L63.7049 96.3697L57.5678 97.0805Z" fill="#2F2E41"/>
<path d="M66.6 56.0703L66.5168 56.0633L45.8389 54.3432L45.8899 47.2824L46.902 28.8466L46.9077 28.8338L51.0293 19.5995L53.951 18.2341L58.2137 18.0026L58.2241 18.0053L62.1144 19L66.1612 48.9802L66.6 56.0703Z" fill="#005BAA"/>
<path d="M58.8817 15.6361C61.5201 14.1477 62.4897 10.7339 61.0474 8.0111C59.6052 5.28835 56.2973 4.2877 53.6589 5.77609C51.0206 7.26449 50.051 10.6783 51.4932 13.401C52.9355 16.1238 56.2434 17.1244 58.8817 15.6361Z" fill="#9F616A"/>
<path d="M50.795 12.1164V9.92734C50.795 9.92734 49.0844 7.84815 50.9661 7.3244C50.9661 7.3244 51.4793 2.0869 55.927 4.53107C55.927 4.53107 62.0853 3.48357 61.401 7.14982C61.401 7.14982 62.9406 6.19268 62.4274 8.63685L61.4349 12.574C61.4349 12.574 61.9142 9.97322 60.3746 9.62404L59.5193 9.10029C59.5193 9.10029 57.1244 11.5445 53.5321 8.57654C53.5321 8.57654 51.9925 8.19732 52.1635 9.76857C52.3346 11.3398 50.795 12.1164 50.795 12.1164Z" fill="#2F2E41"/>
<path d="M55.7037 50.7975C55.7071 50.4714 55.6413 50.1485 55.5107 49.8515C55.3801 49.5545 55.188 49.2906 54.9479 49.0785C54.7079 48.8664 54.4256 48.7112 54.1212 48.6239C53.8167 48.5365 53.4973 48.5191 53.1856 48.5729L50.5662 44.2506L47.6328 45.2528L51.415 51.303C51.5373 51.8374 51.8452 52.307 52.2805 52.6227C52.7159 52.9385 53.2483 53.0785 53.7769 53.0162C54.3056 52.9539 54.7937 52.6936 55.1488 52.2847C55.5039 51.8758 55.7014 51.3466 55.7037 50.7975Z" fill="#9F616A"/>
<path d="M48.9381 49.4351L44.1992 39.5058L44.2034 39.4817C44.2225 39.3717 46.1301 28.441 47.589 24.4232C49.0572 20.3799 51.0669 19.5681 51.1517 19.5355L51.1941 19.5193L52.9961 21.303L50.5 38.4973L53.1906 46.7899L48.9381 49.4351Z" fill="#005BAA"/>
<path d="M166 0H156.824V9.46925H166V0Z" fill="#F1F1F1"/>
<path d="M94.1912 36.8477H85.0156V46.317H94.1912V36.8477Z" fill="#F1F1F1"/>
<path d="M90.165 42.1675H162.707V4.26816H90.165V42.1675Z" fill="white"/>
<path d="M163.305 42.7851H89.5664V3.65057H163.305V42.7851ZM90.7632 41.55H162.109V4.88569H90.7632V41.55Z" fill="#E5E5E5"/>
<path d="M154.686 17.5626H98.873V19.4727H154.686V17.5626Z" fill="#E5E5E5"/>
<path d="M154.686 22.1949H98.873V24.105H154.686V22.1949Z" fill="#E5E5E5"/>
<path d="M154.686 29.0347H144.313V30.6923H154.686V29.0347Z" fill="#005BAA"/>
<path d="M76.1975 102.992H0.19947C0.146567 102.992 0.0958311 102.97 0.0584232 102.931C0.0210154 102.893 0 102.84 0 102.786C0 102.731 0.0210154 102.679 0.0584232 102.64C0.0958311 102.602 0.146567 102.58 0.19947 102.58H76.1975C76.2504 102.58 76.3011 102.602 76.3385 102.64C76.3759 102.679 76.3969 102.731 76.3969 102.786C76.3969 102.84 76.3759 102.893 76.3385 102.931C76.3011 102.97 76.2504 102.992 76.1975 102.992Z" fill="#CBCBCB"/>
</g>
<defs>
<clipPath id="clip0_119_560">
<rect width="166" height="103" fill="white"/>
</clipPath>
</defs>
</svg>
