<svg width="240" height="299" viewBox="0 0 240 299" fill="none" xmlns="http://www.w3.org/2000/svg">
<g clip-path="url(#clip0_261_2563)">
<path d="M15.5032 238.327L15.4463 217.867L5.32715 289.58C12.8148 289.788 20.3024 289.997 29.1814 289.905C24.5676 268.53 15.5307 248.214 15.5032 238.327Z" fill="url(#paint0_linear_261_2563)"/>
<path d="M103.776 182.962L77.5039 281.304C93.029 281.743 108.554 282.183 125.315 282.581C115.558 249.483 105.801 216.385 103.776 182.962Z" fill="url(#paint1_linear_261_2563)"/>
<path d="M166.057 141.014C166.56 190.16 167.063 239.306 166.111 288.456C178.569 288.228 191.027 288.001 207.489 287.567C196.367 238.855 185.244 190.143 166.057 141.014Z" fill="url(#paint2_linear_261_2563)"/>
<path d="M40.7695 188.467C37.6482 187.617 34.4787 186.953 31.2781 186.48C32.0352 186.737 32.7937 186.988 33.5483 187.252C41.8776 190.707 52.3731 193.535 56.984 202.372C59.1159 207.82 58.6458 213.876 58.2072 219.595C57.3112 227.478 55.9421 235.3 54.1073 243.019C50.257 260.764 42.8463 281.079 35.2653 286.239C33.1491 288.553 25.8192 287.917 22.4542 287.325C12.5857 285.288 9.76225 283.729 9.79179 277.349C12.4912 245.155 12.1147 212.829 13.1607 180.56C8.77382 205.704 6.09207 231.083 2.86595 256.389C2.32595 260.463 2.58192 258.541 2.09261 262.168C1.41033 270.705 -2.5335 280.367 2.58729 288.18C7.03224 294.796 15.2438 297.199 22.7515 298.292C33.9599 300.433 42.1931 297.288 48.6434 287.778C59.742 269.199 61.9143 247.839 63.9492 228.352C65.1867 206.965 64.4779 193.898 40.7695 188.467Z" fill="black"/>
<path d="M135.386 150.826C134.907 148.737 133.827 146.834 132.279 145.352C130.731 143.87 128.783 142.874 126.675 142.485C118.441 140.182 109.783 141.144 101.367 141.649C108.789 142.467 115.322 142.574 122.438 144.735C130.127 146.863 130.612 149.401 131.181 155.212C131.789 164.067 131.631 172.961 131.419 181.829C130.872 208.887 124.134 264.766 111.544 278.48C108.849 280.136 110.702 279.38 107.507 280.098C107.414 280.101 107.339 280.105 107.229 280.106C98.3603 279.906 92.477 278.534 86.5509 275.298C86.3737 275.158 86.2285 275.047 86.105 274.954C85.6473 274.592 85.2148 274.198 84.8104 273.777C84.7926 273.755 84.7847 273.745 84.7685 273.724C84.6341 273.521 84.5061 273.316 84.3914 273.101C84.2446 272.669 84.1209 272.229 84.0208 271.783C83.9229 270.854 83.874 269.92 83.8741 268.986C85.5231 226.673 83.7525 184.328 85.1234 142.009C79.152 176.155 76.4708 210.717 73.8383 245.247C73.2993 252.238 72.6707 259.222 72.2218 266.219C71.7782 271.777 72.1489 277.911 76.1872 282.163C83.6309 290.203 100.62 293.289 111.144 291.816C120.702 289.95 125.857 280.975 128.765 272.446C131.916 264.298 134.252 255.858 135.736 247.249C140.889 215.484 141.777 182.453 135.386 150.826Z" fill="black"/>
<path d="M238.741 154.058C237.515 140.826 237.651 126.861 232.293 114.495C224.842 98.5201 204.625 97.0454 189.155 95.5312C200.112 98.6055 209.857 100.912 218.926 107.187C228.734 114.696 227.914 124.134 228.604 135.067C229.163 152.118 228.518 169.175 227.934 186.216C226.723 221.501 226.769 273.498 217.382 282.661C214.323 283.564 200.939 284.259 192.384 284.895C183.661 285.211 176.538 286.252 171.326 284.633C170.886 277.879 171.591 244.846 171.831 228.799C172.472 181.445 170.273 134.09 172.506 86.7522C164.262 130.951 161.294 175.824 159.664 220.692C159.09 235.18 158.912 249.681 158.706 264.179C158.831 272.201 157.955 280.309 159 288.282C162.019 299.346 176.08 298.303 185.222 298.064C194.127 297.58 203.025 296.984 211.917 296.277C216.17 295.818 220.8 295.823 224.46 293.329C230.141 289.025 232.627 281.606 234.706 275.033C238.414 257.894 238.843 240.243 239.542 222.779C240.323 199.88 240.134 176.929 238.741 154.058Z" fill="black"/>
<path d="M163.01 12.2086C156.053 1.48445 142.632 -0.292171 130.838 0.035538C117.318 0.0983017 103.855 1.95712 90.6354 4.70838C84.6926 6.30583 78.1251 7.45091 73.1692 11.276C69.9947 14.4121 70.9024 19.8623 74.671 22.1026C76.8226 23.2755 79.3016 23.165 81.683 23.1846C96.4237 23.1598 111.164 22.8756 125.904 22.752C130.072 22.7107 133.144 22.7542 135.638 22.963C132.154 26.6433 128.405 30.073 124.718 33.5461C84.5075 69.153 45.7754 106.419 10.5088 146.98C41.901 120.862 73.2749 94.7212 104.63 68.5586C117.117 58.0651 129.43 47.3545 141.325 36.1931C145.156 32.3617 149.769 28.7911 151.729 23.5822C152.536 20.7321 152.339 18.409 151.489 16.5102C151.566 16.5645 151.636 16.6101 151.714 16.6661C158.39 21.0743 160.4 40.2162 157.517 60.3016C156.138 69.8643 151.23 90.2227 147.245 103.071C146.223 106.434 145.141 109.78 143.972 113.093C150.845 100.275 156.689 86.931 161.45 73.1875C167.105 56.6991 173.43 27.4973 163.01 12.2086Z" fill="black"/>
<path d="M95.7549 92.1784L151.918 39.883C156.209 69.1955 127.043 98.3197 95.7549 92.1784Z" fill="url(#paint3_linear_261_2563)"/>
</g>
<defs>
<linearGradient id="paint0_linear_261_2563" x1="3.15858" y1="254.172" x2="31.4334" y2="254.172" gradientUnits="userSpaceOnUse">
<stop stop-color="#AD7449"/>
<stop offset="1" stop-color="#D18B57"/>
</linearGradient>
<linearGradient id="paint1_linear_261_2563" x1="73.1575" y1="233.152" x2="129.828" y2="233.152" gradientUnits="userSpaceOnUse">
<stop stop-color="#AD7449"/>
<stop offset="1" stop-color="#D18B57"/>
</linearGradient>
<linearGradient id="paint2_linear_261_2563" x1="162.29" y1="215.297" x2="211.4" y2="215.297" gradientUnits="userSpaceOnUse">
<stop stop-color="#AD7449"/>
<stop offset="1" stop-color="#D18B57"/>
</linearGradient>
<linearGradient id="paint3_linear_261_2563" x1="90.6108" y1="66.6469" x2="157.681" y2="66.6469" gradientUnits="userSpaceOnUse">
<stop stop-color="#AD7449"/>
<stop offset="1" stop-color="#D18B57"/>
</linearGradient>
<clipPath id="clip0_261_2563">
<rect width="240" height="298.934" fill="white"/>
</clipPath>
</defs>
</svg>
