<svg width="600" height="361" viewBox="0 0 600 361" fill="none" xmlns="http://www.w3.org/2000/svg">
<g clip-path="url(#clip0_250_1648)">
<path d="M37.7429 75.4859C30.2781 75.4859 22.9809 73.2723 16.7741 69.125C10.5673 64.9778 5.7297 59.0832 2.87303 52.1865C0.0163535 45.2899 -0.731082 37.7011 0.725237 30.3797C2.18156 23.0582 5.77623 16.3331 11.0547 11.0547C16.3331 5.77622 23.0583 2.18156 30.3797 0.725237C37.7011 -0.731082 45.2899 0.0163535 52.1865 2.87303C59.0832 5.7297 64.9778 10.5673 69.125 16.7741C73.2723 22.9809 75.4859 30.2781 75.4859 37.7429C75.4745 47.7495 71.4944 57.343 64.4187 64.4187C57.343 71.4944 47.7495 75.4745 37.7429 75.4859ZM37.7429 1.57264C30.5891 1.57264 23.596 3.69399 17.6478 7.66844C11.6996 11.6429 7.06359 17.2919 4.32594 23.9012C1.5883 30.5104 0.872008 37.7831 2.26765 44.7994C3.66329 51.8158 7.10817 58.2607 12.1667 63.3192C17.2252 68.3777 23.6701 71.8226 30.6865 73.2182C37.7028 74.6139 44.9755 73.8976 51.5847 71.1599C58.194 68.4223 63.843 63.7863 67.8175 57.8381C71.7919 51.8899 73.9132 44.8968 73.9132 37.7429C73.9024 28.1533 70.0881 18.9596 63.3072 12.1787C56.5263 5.39779 47.3326 1.58351 37.7429 1.57264Z" fill="#F2F2F2"/>
<path d="M294.08 53.4691C290.348 53.4691 286.699 52.3623 283.596 50.2887C280.493 48.2151 278.074 45.2678 276.645 41.8195C275.217 38.3711 274.843 34.5767 275.572 30.916C276.3 27.2553 278.097 23.8927 280.736 21.2535C283.376 18.6143 286.738 16.817 290.399 16.0888C294.06 15.3607 297.854 15.7344 301.302 17.1627C304.751 18.591 307.698 21.0099 309.772 24.1133C311.845 27.2166 312.952 30.8652 312.952 34.5977C312.946 39.6009 310.956 44.3977 307.418 47.9355C303.88 51.4734 299.084 53.4634 294.08 53.4691ZM294.08 17.2988C290.659 17.2988 287.315 18.3134 284.47 20.2142C281.625 22.115 279.408 24.8167 278.098 27.9777C276.789 31.1386 276.447 34.6169 277.114 37.9725C277.781 41.3282 279.429 44.4105 281.848 46.8298C284.268 49.2491 287.35 50.8966 290.706 51.5641C294.061 52.2316 297.539 51.889 300.7 50.5797C303.861 49.2704 306.563 47.0532 308.464 44.2084C310.365 41.3636 311.379 38.0191 311.379 34.5977C311.374 30.0113 309.55 25.6143 306.307 22.3713C303.064 19.1282 298.667 17.304 294.08 17.2988Z" fill="#F2F2F2"/>
<path d="M426.967 145.468C422.768 145.468 418.663 144.222 415.172 141.89C411.68 139.557 408.959 136.241 407.352 132.362C405.746 128.482 405.325 124.214 406.144 120.095C406.963 115.977 408.985 112.194 411.955 109.225C414.924 106.256 418.707 104.234 422.825 103.415C426.943 102.595 431.212 103.016 435.091 104.623C438.971 106.23 442.286 108.951 444.619 112.442C446.952 115.933 448.197 120.038 448.197 124.237C448.191 129.866 445.952 135.262 441.972 139.242C437.992 143.222 432.595 145.461 426.967 145.468ZM426.967 104.579C423.079 104.579 419.278 105.732 416.045 107.892C412.813 110.052 410.293 113.122 408.805 116.714C407.317 120.306 406.928 124.259 407.687 128.072C408.445 131.885 410.317 135.388 413.067 138.137C415.816 140.886 419.318 142.759 423.132 143.517C426.945 144.276 430.897 143.886 434.489 142.399C438.081 140.911 441.152 138.391 443.312 135.158C445.472 131.926 446.625 128.125 446.625 124.237C446.619 119.025 444.546 114.029 440.86 110.343C437.175 106.658 432.179 104.585 426.967 104.579Z" fill="#F2F2F2"/>
<path d="M599.214 360.13H422.294C422.086 360.13 421.886 360.048 421.738 359.9C421.591 359.753 421.508 359.553 421.508 359.344C421.508 359.136 421.591 358.936 421.738 358.788C421.886 358.641 422.086 358.558 422.294 358.558H599.214C599.423 358.558 599.623 358.641 599.77 358.788C599.918 358.936 600 359.136 600 359.344C600 359.553 599.918 359.753 599.77 359.9C599.623 360.048 599.423 360.13 599.214 360.13Z" fill="#CCCCCC"/>
<path d="M503.96 120.5C514.626 120.5 523.273 111.853 523.273 101.187C523.273 90.521 514.626 81.8745 503.96 81.8745C493.294 81.8745 484.647 90.521 484.647 101.187C484.647 111.853 493.294 120.5 503.96 120.5Z" fill="#FFB8B8"/>
<path d="M505.963 330.52L496.836 333.62L480.533 299.888L494.005 295.312L505.963 330.52Z" fill="#FFB8B8"/>
<path d="M489.43 333.227L507.034 327.248L510.799 338.331L482.111 348.075C481.617 346.62 481.414 345.081 481.514 343.547C481.615 342.013 482.016 340.514 482.696 339.135C483.375 337.756 484.32 336.525 485.476 335.511C486.631 334.497 487.975 333.721 489.43 333.227Z" fill="#2F2E41"/>
<path d="M526.588 349.574L516.96 350.058L510.512 313.152L524.722 312.438L526.588 349.574Z" fill="#FFB8B8"/>
<path d="M509.945 347.653L528.513 346.719L529.1 358.41L498.841 359.931C498.764 358.396 498.99 356.86 499.507 355.412C500.023 353.964 500.819 352.632 501.85 351.492C502.881 350.352 504.127 349.426 505.516 348.767C506.905 348.109 508.41 347.73 509.945 347.653Z" fill="#2F2E41"/>
<path d="M469.293 226.953C470.156 226.184 470.841 225.236 471.298 224.174C471.755 223.112 471.974 221.963 471.938 220.808C471.903 219.652 471.615 218.519 471.095 217.486C470.574 216.454 469.834 215.549 468.925 214.834L478.105 188.277L463.958 191.892L457.41 216.557C456.31 218.163 455.837 220.116 456.081 222.047C456.325 223.978 457.269 225.752 458.734 227.033C460.199 228.315 462.083 229.014 464.029 228.999C465.975 228.985 467.848 228.256 469.293 226.953Z" fill="#FFB8B8"/>
<path d="M525.688 338.447C525.563 338.447 525.439 338.44 525.315 338.427L512.246 337.043C511.443 336.962 510.692 336.607 510.12 336.039C509.547 335.47 509.188 334.721 509.102 333.919L499.002 243.878L491.694 268.518L505.32 316.941C505.458 317.434 505.488 317.951 505.408 318.457C505.327 318.963 505.137 319.446 504.852 319.871C504.566 320.296 504.192 320.655 503.754 320.921C503.317 321.188 502.826 321.356 502.318 321.415L489.07 322.937C488.226 323.031 487.377 322.819 486.676 322.341C485.975 321.863 485.467 321.15 485.246 320.33L470.771 265.837C470.652 265.389 470.622 264.922 470.683 264.462L477.189 215.555L525.716 219.446L529.224 334.8C529.239 335.274 529.158 335.745 528.987 336.187C528.816 336.629 528.557 337.032 528.228 337.372C527.898 337.712 527.503 337.982 527.067 338.167C526.63 338.352 526.161 338.447 525.688 338.447V338.447Z" fill="#2F2E41"/>
<path d="M508.914 227.809C492.656 227.809 474.25 221.527 473.135 221.141L472.812 221.03L491.153 126.921L491.49 126.935C498.759 127.23 518.594 127.381 518.794 127.382L519.15 127.385L526.795 210.434L528.161 222.582L527.994 222.717C523.317 226.498 516.339 227.809 508.914 227.809Z" fill="#AD7449"/>
<path d="M479.543 219.676L468.071 215.055L473.918 144.331C474.059 142.588 474.59 140.898 475.471 139.387C476.352 137.876 477.561 136.582 479.009 135.601L485.046 131.492C484.875 130.912 484.844 130.299 484.956 129.704C485.068 129.109 485.32 128.549 485.69 128.07C486.061 127.591 486.54 127.207 487.087 126.949C487.635 126.691 488.236 126.567 488.841 126.586L490.57 126.642C490.899 126.42 491.287 126.303 491.683 126.306C492.079 126.309 492.466 126.431 492.791 126.658C493.117 126.884 493.366 127.203 493.507 127.574C493.647 127.944 493.673 128.349 493.58 128.734L493.2 136.227L479.543 219.676Z" fill="#2F2E41"/>
<path d="M473.754 206.997L458.776 206.366L463.628 175.156L467.649 145.788C467.728 144.734 468.044 143.711 468.575 142.795C469.105 141.88 469.835 141.097 470.71 140.504C471.586 139.91 472.584 139.523 473.63 139.369C474.676 139.216 475.744 139.302 476.753 139.619C478.324 140.112 479.671 141.142 480.559 142.529C481.447 143.916 481.818 145.571 481.608 147.204L477.535 179.024L473.754 206.997Z" fill="#2F2E41"/>
<path d="M497.471 220.758L497.37 220.442C497.3 220.227 490.55 198.574 501.845 172.735L507.509 144.565L512.349 126.877C512.44 126.561 512.603 126.271 512.826 126.029C513.048 125.787 513.324 125.6 513.632 125.483C513.993 125.358 514.383 125.342 514.754 125.437C515.124 125.532 515.458 125.735 515.714 126.018C519.088 125.028 522.715 125.391 525.826 127.029L532.623 130.61C534.135 131.406 535.339 132.682 536.048 134.236C536.757 135.79 536.93 137.536 536.54 139.199L527.25 178.847L531.766 215.88L497.471 220.758Z" fill="#2F2E41"/>
<path d="M507.363 205.493C508.513 205.617 509.675 205.489 510.769 205.116C511.863 204.743 512.862 204.134 513.696 203.333C514.529 202.532 515.177 201.558 515.593 200.48C516.01 199.401 516.184 198.245 516.106 197.092L537.144 181.506L529.79 178.02L507.104 189.706C505.175 189.967 503.41 190.927 502.141 192.403C500.873 193.879 500.19 195.769 500.222 197.715C500.254 199.661 500.998 201.527 502.315 202.961C503.631 204.394 505.427 205.295 507.363 205.493V205.493Z" fill="#FFB8B8"/>
<path d="M520.553 198.516L513.447 185.252L530.972 173.718L522.42 143.044C522.077 141.816 521.992 140.531 522.168 139.268C522.345 138.005 522.78 136.793 523.446 135.706C524.113 134.619 524.996 133.681 526.041 132.95C527.086 132.22 528.27 131.713 529.52 131.461C531.729 131.021 534.022 131.397 535.974 132.52C537.927 133.643 539.405 135.436 540.135 137.566L551.674 171.484C551.912 172.183 551.926 172.938 551.712 173.645C551.499 174.352 551.07 174.974 550.486 175.425L520.553 198.516Z" fill="#2F2E41"/>
<path d="M505.327 105.283C503.012 105.585 501.266 103.216 500.456 101.026C499.646 98.8367 499.029 96.2875 497.016 95.1048C494.266 93.4888 490.747 95.4323 487.603 94.8992C484.051 94.2971 481.742 90.5334 481.561 86.936C481.38 83.3385 482.812 79.8785 484.217 76.5617L484.707 80.6837C484.642 79.2866 484.936 77.8961 485.561 76.6451C486.186 75.3942 487.122 74.3246 488.279 73.5387L487.647 79.5872C487.782 78.7527 488.08 77.953 488.524 77.234C488.968 76.5149 489.55 75.8907 490.237 75.3972C490.923 74.9036 491.7 74.5504 492.523 74.3579C493.346 74.1654 494.199 74.1373 495.033 74.2752L494.933 77.8791C499.035 77.3914 503.172 76.903 507.286 77.2745C511.4 77.6461 515.543 78.9478 518.661 81.6571C523.325 85.7099 525.029 92.3832 524.457 98.5355C523.885 104.688 521.345 110.468 518.698 116.051C518.032 117.456 517.111 119.041 515.567 119.22C514.179 119.38 512.91 118.22 512.478 116.892C512.146 115.529 512.159 114.104 512.516 112.747C512.906 110.674 513.398 108.554 513.031 106.476C512.664 104.398 511.169 102.344 509.075 102.09C506.98 101.835 504.836 104.23 505.843 106.084L505.327 105.283Z" fill="#2F2E41"/>
<path d="M252.649 317.337L245.132 314.172L239.974 276.485H171.298L165.708 314.018L158.982 317.381C158.661 317.541 158.403 317.806 158.25 318.132C158.098 318.458 158.06 318.826 158.142 319.176C158.225 319.526 158.423 319.838 158.706 320.061C158.988 320.285 159.337 320.406 159.697 320.406H252.03C252.398 320.406 252.756 320.279 253.041 320.045C253.327 319.812 253.522 319.487 253.595 319.125C253.668 318.764 253.614 318.388 253.442 318.062C253.269 317.736 252.989 317.48 252.649 317.337Z" fill="#E6E6E6"/>
<path d="M374.692 281.499H37.3347C35.5647 281.495 33.8685 280.789 32.6183 279.536C31.3681 278.283 30.666 276.586 30.666 274.816V227.244H381.361V274.816C381.361 276.586 380.659 278.283 379.408 279.536C378.158 280.789 376.462 281.495 374.692 281.499Z" fill="#CCCCCC"/>
<path d="M381.714 249.727H30.3584V46.1777C30.3609 44.0416 31.2106 41.9936 32.7211 40.4832C34.2316 38.9727 36.2796 38.1231 38.4157 38.1207H373.656C375.792 38.1231 377.84 38.9728 379.351 40.4832C380.861 41.9937 381.711 44.0416 381.714 46.1777V249.727Z" fill="#3F3D56"/>
<path d="M360.728 234.954H51.3434C49.6966 234.952 48.1177 234.297 46.9532 233.132C45.7887 231.968 45.1337 230.389 45.1318 228.742V59.1058C45.1337 57.4589 45.7887 55.88 46.9532 54.7155C48.1177 53.5509 49.6966 52.8959 51.3434 52.894H360.728C362.375 52.8959 363.954 53.5509 365.119 54.7155C366.283 55.88 366.938 57.4589 366.94 59.1058V228.742C366.938 230.389 366.283 231.968 365.119 233.132C363.954 234.297 362.375 234.952 360.728 234.954Z" fill="white"/>
<path d="M357.816 320.799H58.2316C58.0231 320.799 57.8231 320.717 57.6756 320.569C57.5281 320.422 57.4453 320.222 57.4453 320.013C57.4453 319.804 57.5281 319.604 57.6756 319.457C57.8231 319.31 58.0231 319.227 58.2316 319.227H357.816C358.025 319.227 358.225 319.31 358.372 319.457C358.52 319.604 358.602 319.804 358.602 320.013C358.602 320.222 358.52 320.422 358.372 320.569C358.225 320.717 358.025 320.799 357.816 320.799Z" fill="#CCCCCC"/>
<path d="M331.663 213.877H80.4084C80.1998 213.877 79.9998 213.794 79.8524 213.646C79.7049 213.499 79.6221 213.299 79.6221 213.09V92.6641C79.6221 92.4556 79.7049 92.2556 79.8524 92.1081C79.9998 91.9607 80.1998 91.8778 80.4084 91.8778C80.6169 91.8778 80.8169 91.9607 80.9644 92.1081C81.1118 92.2556 81.1947 92.4556 81.1947 92.6641V212.304H331.663C331.871 212.304 332.071 212.387 332.219 212.534C332.366 212.682 332.449 212.882 332.449 213.09C332.449 213.299 332.366 213.499 332.219 213.646C332.071 213.794 331.871 213.877 331.663 213.877Z" fill="#3F3D56"/>
<path d="M134.091 205.227H111.238C110.62 205.226 110.026 204.98 109.589 204.543C109.151 204.105 108.905 203.512 108.904 202.893V171.391C108.905 170.772 109.151 170.179 109.589 169.741C110.026 169.304 110.62 169.058 111.238 169.057H134.091C134.71 169.058 135.303 169.304 135.741 169.741C136.178 170.179 136.424 170.772 136.425 171.391V202.893C136.424 203.512 136.178 204.105 135.741 204.543C135.303 204.98 134.71 205.226 134.091 205.227Z" fill="#AD7449"/>
<path d="M175.765 205.227H152.912C152.293 205.226 151.7 204.98 151.263 204.543C150.825 204.105 150.579 203.512 150.578 202.893V141.511C150.579 140.892 150.825 140.299 151.263 139.861C151.7 139.424 152.293 139.178 152.912 139.177H175.765C176.384 139.178 176.977 139.424 177.415 139.861C177.852 140.299 178.098 140.892 178.099 141.511V202.893C178.098 203.512 177.852 204.105 177.415 204.543C176.977 204.98 176.384 205.226 175.765 205.227Z" fill="#AD7449"/>
<path d="M217.44 205.227H194.587C193.968 205.226 193.375 204.98 192.937 204.543C192.5 204.105 192.254 203.512 192.253 202.893V171.391C192.254 170.772 192.5 170.179 192.937 169.741C193.375 169.304 193.968 169.058 194.587 169.057H217.44C218.058 169.058 218.652 169.304 219.089 169.741C219.527 170.179 219.773 170.772 219.774 171.391V202.893C219.773 203.512 219.527 204.105 219.089 204.543C218.652 204.98 218.058 205.226 217.44 205.227Z" fill="#AD7449"/>
<path d="M259.114 205.227H236.262C235.657 205.24 235.072 205.013 234.634 204.595C234.197 204.178 233.943 203.604 233.928 202.999V129.611C233.943 129.006 234.197 128.432 234.634 128.014C235.072 127.597 235.657 127.369 236.262 127.382H259.114C259.719 127.369 260.304 127.597 260.742 128.014C261.179 128.432 261.434 129.006 261.449 129.611V202.999C261.434 203.604 261.179 204.178 260.742 204.595C260.304 205.013 259.719 205.24 259.114 205.227Z" fill="#AD7449"/>
<path d="M300.788 205.227H277.936C277.317 205.226 276.724 204.98 276.286 204.543C275.848 204.105 275.602 203.512 275.602 202.893V108.486C275.602 107.867 275.848 107.274 276.286 106.836C276.724 106.399 277.317 106.153 277.936 106.152H300.788C301.407 106.153 302 106.399 302.438 106.836C302.876 107.274 303.122 107.867 303.122 108.486V202.893C303.122 203.512 302.876 204.105 302.438 204.543C302 204.98 301.407 205.226 300.788 205.227Z" fill="#AD7449"/>
<path d="M122.664 159.621C125.27 159.621 127.382 157.509 127.382 154.903C127.382 152.298 125.27 150.185 122.664 150.185C120.059 150.185 117.946 152.298 117.946 154.903C117.946 157.509 120.059 159.621 122.664 159.621Z" fill="#3F3D56"/>
<path d="M164.339 128.955C166.945 128.955 169.057 126.843 169.057 124.237C169.057 121.632 166.945 119.519 164.339 119.519C161.733 119.519 159.621 121.632 159.621 124.237C159.621 126.843 161.733 128.955 164.339 128.955Z" fill="#3F3D56"/>
<path d="M206.014 159.621C208.619 159.621 210.732 157.509 210.732 154.903C210.732 152.298 208.619 150.185 206.014 150.185C203.408 150.185 201.296 152.298 201.296 154.903C201.296 157.509 203.408 159.621 206.014 159.621Z" fill="#3F3D56"/>
<path d="M247.688 114.015C250.293 114.015 252.405 111.903 252.405 109.297C252.405 106.692 250.293 104.579 247.688 104.579C245.082 104.579 242.97 106.692 242.97 109.297C242.97 111.903 245.082 114.015 247.688 114.015Z" fill="#3F3D56"/>
<path d="M289.362 96.7162C291.968 96.7162 294.08 94.604 294.08 91.9984C294.08 89.3928 291.968 87.2805 289.362 87.2805C286.757 87.2805 284.645 89.3928 284.645 91.9984C284.645 94.604 286.757 96.7162 289.362 96.7162Z" fill="#3F3D56"/>
<path d="M206.112 155.96L164.339 124.671L123.136 155.532L122.192 154.274L164.339 122.706L205.914 153.846L247.228 108.635L247.394 108.568L289.068 91.7766L289.656 93.2352L248.148 109.959L206.112 155.96Z" fill="#3F3D56"/>
</g>
<defs>
<clipPath id="clip0_250_1648">
<rect width="600" height="360.13" fill="white"/>
</clipPath>
</defs>
</svg>
