<svg width="250" height="250" viewBox="0 0 250 250" fill="none" xmlns="http://www.w3.org/2000/svg">
<path d="M127.236 163.195C149.647 163.195 167.814 145.028 167.814 122.617C167.814 100.207 149.647 82.0397 127.236 82.0397C104.826 82.0397 86.6587 100.207 86.6587 122.617C86.6587 145.028 104.826 163.195 127.236 163.195Z" fill="#A0616A"/>
<path d="M93.6504 172.281L102.109 150.664L145.812 144.085L150.508 191.936L106.335 192.876L93.6504 172.281Z" fill="#A0616A"/>
<path d="M168.207 130.104C167.68 132.214 166.616 137.237 164.953 137.262C163.595 137.282 162.295 115.488 163.652 111.883C165.21 107.742 161.115 102.503 158.03 99.8143C152.483 94.979 140.169 105.362 127.648 100.658C127.317 100.534 127.383 100.548 123.429 98.9703C111.263 94.1161 110.623 93.976 109.926 93.9068C104.028 93.3233 96.8307 98.1495 93.8916 104.034C90.8363 110.151 93.389 115.397 90.5159 130.195C90.1811 131.92 89.6553 134.379 88.828 134.415C87.3157 134.481 85.8391 126.404 85.4523 124.288C83.8321 115.424 82.2699 106.879 85.4523 97.2825C85.7995 96.2358 87.939 92.3508 92.2037 84.6237C98.3477 73.492 101.438 67.9051 102.331 66.9013C108.735 59.6991 120.393 53.129 130.18 55.9303C135.127 57.3462 134.24 59.6225 140.307 61.8378C151.119 65.7854 160.516 60.9576 162.249 64.3695C163.167 66.1769 160.599 67.6669 160.561 71.1209C160.498 77.0473 167.993 78.7599 172.376 84.6237C174.733 87.776 178.766 87.8098 168.207 130.104L168.207 130.104V130.104Z" fill="#2F2E41"/>
<path d="M218.478 207.994C216.842 209.831 215.146 211.631 213.388 213.389C189.779 236.997 158.388 250 125 250C96.1421 250 68.7784 240.287 46.6401 222.406C46.626 222.397 46.6166 222.387 46.6026 222.373C43.6656 220.005 40.8225 217.486 38.0781 214.826C38.1298 214.413 38.1862 214.004 38.2472 213.6C38.6326 210.874 39.0603 208.275 39.5395 205.884C43.4634 186.278 95.0941 165.696 96.4381 165.16C96.4569 165.155 96.4663 165.151 96.4663 165.151C96.4663 165.151 103.111 189.643 131.584 189.328C150.978 189.117 147.218 165.151 147.218 165.151C147.218 165.151 147.453 165.197 147.895 165.291C153.496 166.48 192.387 175.024 207.73 186.683C212.406 190.235 215.761 197.801 218.172 206.823C218.275 207.209 218.374 207.604 218.478 207.994V207.994Z" fill="#6C63FF"/>
</svg>
