<svg width="24" height="25" viewBox="0 0 24 25" fill="none" xmlns="http://www.w3.org/2000/svg">
<path d="M11.01 20.6569C13.3996 20.6569 15.6913 19.7076 17.381 18.0179C19.0707 16.3282 20.02 14.0365 20.02 11.6469C20.02 9.25727 19.0707 6.96554 17.381 5.27584C15.6913 3.58614 13.3996 2.63687 11.01 2.63687C8.6204 2.63687 6.32867 3.58614 4.63897 5.27584C2.94927 6.96554 2 9.25727 2 11.6469C2 14.0365 2.94927 16.3282 4.63897 18.0179C6.32867 19.7076 8.6204 20.6569 11.01 20.6569ZM21.99 19.5869C21.66 18.9769 20.96 18.6369 20.02 18.6369C19.31 18.6369 18.7 18.9269 18.34 19.4269C17.98 19.9269 17.9 20.5969 18.12 21.2669C18.55 22.5669 19.3 22.8569 19.71 22.9069C19.77 22.9169 19.83 22.9169 19.9 22.9169C20.34 22.9169 21.02 22.7269 21.68 21.7369C22.21 20.9669 22.31 20.1969 21.99 19.5869Z" fill="url(#paint0_linear_190_1261)"/>
<defs>
<linearGradient id="paint0_linear_190_1261" x1="0.166154" y1="12.8543" x2="24.0767" y2="12.8543" gradientUnits="userSpaceOnUse">
<stop stop-color="#AD7449"/>
<stop offset="1" stop-color="#D18B57"/>
</linearGradient>
</defs>
</svg>
