<svg width="35" height="35" viewBox="0 0 35 35" fill="none" xmlns="http://www.w3.org/2000/svg">
<path d="M22.0937 12.2501C20.976 12.2462 19.8685 12.4628 18.8346 12.8875C17.8006 13.3121 16.8606 13.9364 16.0682 14.7248C15.2758 15.5131 14.6466 16.4499 14.2167 17.4817C13.7867 18.5134 13.5644 19.6198 13.5625 20.7376V29.3125C13.5625 29.6606 13.7008 29.9945 13.9469 30.2406C14.1931 30.4868 14.5269 30.625 14.875 30.625H17.9375C18.2856 30.625 18.6194 30.4868 18.8656 30.2406C19.1117 29.9945 19.25 29.6606 19.25 29.3125V20.7376C19.2497 20.34 19.3332 19.9469 19.495 19.5838C19.6569 19.2207 19.8934 18.8957 20.1893 18.6302C20.4851 18.3646 20.8336 18.1644 21.212 18.0425C21.5904 17.9207 21.9902 17.8799 22.3854 17.923C23.0942 18.0122 23.7455 18.3585 24.2159 18.8961C24.6863 19.4337 24.9431 20.1253 24.9375 20.8396V29.3125C24.9375 29.6606 25.0758 29.9945 25.3219 30.2406C25.5681 30.4868 25.9019 30.625 26.25 30.625H29.3125C29.6606 30.625 29.9944 30.4868 30.2406 30.2406C30.4867 29.9945 30.625 29.6606 30.625 29.3125V20.7376C30.6231 19.6198 30.4008 18.5134 29.9708 17.4817C29.5409 16.4499 28.9117 15.5131 28.1193 14.7248C27.3269 13.9364 26.3869 13.3121 25.3529 12.8875C24.319 12.4628 23.2115 12.2462 22.0937 12.2501Z" fill="url(#paint0_linear_262_2611)"/>
<path d="M9.625 13.5625H5.6875C4.96263 13.5625 4.375 14.1501 4.375 14.875V29.3125C4.375 30.0374 4.96263 30.625 5.6875 30.625H9.625C10.3499 30.625 10.9375 30.0374 10.9375 29.3125V14.875C10.9375 14.1501 10.3499 13.5625 9.625 13.5625Z" fill="url(#paint1_linear_262_2611)"/>
<path d="M7.65625 10.9375C9.46843 10.9375 10.9375 9.46843 10.9375 7.65625C10.9375 5.84407 9.46843 4.375 7.65625 4.375C5.84407 4.375 4.375 5.84407 4.375 7.65625C4.375 9.46843 5.84407 10.9375 7.65625 10.9375Z" fill="url(#paint2_linear_262_2611)"/>
<defs>
<linearGradient id="paint0_linear_262_2611" x1="12.0114" y1="21.5077" x2="32.2358" y2="21.5077" gradientUnits="userSpaceOnUse">
<stop stop-color="#AD7449"/>
<stop offset="1" stop-color="#D18B57"/>
</linearGradient>
<linearGradient id="paint1_linear_262_2611" x1="3.77841" y1="22.1589" x2="11.557" y2="22.1589" gradientUnits="userSpaceOnUse">
<stop stop-color="#AD7449"/>
<stop offset="1" stop-color="#D18B57"/>
</linearGradient>
<linearGradient id="paint2_linear_262_2611" x1="3.77841" y1="7.6813" x2="11.557" y2="7.6813" gradientUnits="userSpaceOnUse">
<stop stop-color="#AD7449"/>
<stop offset="1" stop-color="#D18B57"/>
</linearGradient>
</defs>
</svg>
