<svg width="25" height="26" viewBox="0 0 25 26" fill="none" xmlns="http://www.w3.org/2000/svg">
<path d="M7.54134 2.44646H5.56217C3.28092 2.44646 2.08301 3.64438 2.08301 5.91521V7.89438C2.08301 10.1652 3.28092 11.3631 5.55176 11.3631H7.53092C9.80176 11.3631 10.9997 10.1652 10.9997 7.89438V5.91521C11.0101 3.64438 9.81217 2.44646 7.54134 2.44646ZM19.4476 2.44646H17.4684C15.1976 2.44646 13.9997 3.64438 13.9997 5.91521V7.89438C13.9997 10.1652 15.1976 11.3631 17.4684 11.3631H19.4476C21.7184 11.3631 22.9163 10.1652 22.9163 7.89438V5.91521C22.9163 3.64438 21.7184 2.44646 19.4476 2.44646ZM19.4476 14.3527H17.4684C15.1976 14.3527 13.9997 15.5506 13.9997 17.8215V19.8006C13.9997 22.0715 15.1976 23.2694 17.4684 23.2694H19.4476C21.7184 23.2694 22.9163 22.0715 22.9163 19.8006V17.8215C22.9163 15.5506 21.7184 14.3527 19.4476 14.3527V14.3527ZM7.54134 14.3527H5.56217C3.28092 14.3527 2.08301 15.5506 2.08301 17.8215V19.8006C2.08301 22.0819 3.28092 23.2798 5.55176 23.2798H7.53092C9.80176 23.2798 10.9997 22.0819 10.9997 19.811V17.8319C11.0101 15.5506 9.81217 14.3527 7.54134 14.3527V14.3527Z" fill="url(#paint0_linear_190_1206)"/>
<defs>
<linearGradient id="paint0_linear_190_1206" x1="0.189068" y1="12.9426" x2="24.8831" y2="12.9426" gradientUnits="userSpaceOnUse">
<stop stop-color="#AD7449"/>
<stop offset="1" stop-color="#D18B57"/>
</linearGradient>
</defs>
</svg>
