<svg width="60" height="60" viewBox="0 0 60 60" fill="none" xmlns="http://www.w3.org/2000/svg">
<path d="M33.245 5.2875C33.0739 5.25999 32.8989 5.27041 32.7323 5.31803C32.5657 5.36565 32.4116 5.4493 32.2809 5.56307C32.1502 5.67683 32.0461 5.81793 31.9759 5.97638C31.9058 6.13483 31.8713 6.30676 31.875 6.48V13.63C31.875 14.1275 32.175 14.565 32.59 14.84C33.8475 15.68 34.675 17.115 34.675 18.7475V23.7475C34.675 26.3225 32.575 28.4475 30 28.4475C27.4 28.4475 25.3 26.3225 25.3 23.7475V18.7475C25.3 17.115 26.145 15.68 27.41 14.84C27.8225 14.565 28.125 14.1275 28.125 13.6325V6.4825C28.129 6.30905 28.0949 6.13684 28.0249 5.97808C27.9549 5.81932 27.8509 5.67791 27.7201 5.56386C27.5894 5.44982 27.4351 5.36594 27.2683 5.31818C27.1016 5.27042 26.9263 5.25995 26.755 5.2875C22.9639 5.95641 19.4706 7.77635 16.75 10.5C15.0066 12.2381 13.6234 14.3032 12.6796 16.5769C11.7358 18.8506 11.25 21.2882 11.25 23.75V36.25C11.25 46.575 19.675 55 30 55C40.325 55 48.75 46.575 48.75 36.25V23.75C48.75 14.525 42.0325 6.835 33.245 5.29V5.2875Z" fill="#F2F2F2"/>
</svg>
