<svg width="25" height="25" viewBox="0 0 25 25" fill="none" xmlns="http://www.w3.org/2000/svg">
<g clip-path="url(#clip0_263_1778)">
<path d="M24.0835 2.74707L22.252 0.915527C21.6421 0.305176 20.8423 0 20.0425 0C19.2427 0 18.4429 0.305176 17.8326 0.915039L0.626514 18.1211L0.0063964 23.6982C-0.0717286 24.4004 0.481494 25 1.16851 25C1.21196 25 1.25542 24.9976 1.29985 24.9927L6.8731 24.377L24.084 7.16602C25.3043 5.9458 25.3043 3.96729 24.0835 2.74707ZM6.15581 22.8848L1.61333 23.3882L2.11919 18.8389L15.0044 5.95361L19.0459 9.99512L6.15581 22.8848ZM22.9791 6.06152L20.1504 8.89014L16.1089 4.84863L18.9376 2.02002C19.2325 1.7251 19.6251 1.5625 20.0425 1.5625C20.46 1.5625 20.8521 1.7251 21.1475 2.02002L22.9791 3.85156C23.5879 4.46094 23.5879 5.45215 22.9791 6.06152Z" fill="#005BAA"/>
</g>
<defs>
<clipPath id="clip0_263_1778">
<rect width="25" height="25" fill="white"/>
</clipPath>
</defs>
</svg>
