<svg width="200" height="153" viewBox="0 0 200 153" fill="none" xmlns="http://www.w3.org/2000/svg">
<g clip-path="url(#clip0_262_2891)">
<path d="M121.274 45.8847C121.522 45.8962 121.769 45.8308 121.979 45.6976C122.19 45.5643 122.354 45.3696 122.45 45.1398C122.546 44.91 122.569 44.6562 122.516 44.4128C122.463 44.1694 122.337 43.9482 122.154 43.7791C122.123 43.6573 122.101 43.5699 122.071 43.4481C122.082 43.4216 122.093 43.3951 122.104 43.3687C123.222 40.7017 127.013 40.7201 128.122 43.391C129.106 45.7616 130.359 48.1362 130.668 50.6427C130.804 51.7506 130.746 52.8737 130.498 53.962C132.81 48.9192 134.011 43.4382 134.018 37.8908C134.019 36.4987 133.941 35.1077 133.787 33.7243C133.659 32.5902 133.481 31.4641 133.254 30.3461C132.015 24.2801 129.355 18.5945 125.492 13.7562C123.622 12.7361 122.11 11.1673 121.159 9.26125C120.815 8.57611 120.571 7.84472 120.437 7.08983C120.647 7.1175 121.232 3.90529 121.073 3.70821C121.367 3.26218 121.893 3.04046 122.214 2.60523C123.81 0.440643 126.01 0.818593 127.158 3.76009C129.611 4.99815 129.635 7.05138 128.13 9.02611C127.172 10.2825 127.041 11.9824 126.2 13.3274C126.287 13.4381 126.377 13.5453 126.463 13.6559C128.043 15.6878 129.421 17.8697 130.575 20.1702C130.249 17.6187 130.731 14.5448 131.553 12.5633C132.489 10.3056 134.243 8.40421 135.788 6.45244C137.643 4.10807 141.448 5.1312 141.775 8.10306C141.778 8.13184 141.781 8.1606 141.784 8.18936C141.555 8.31879 141.33 8.45618 141.11 8.60153C140.834 8.78598 140.62 9.04951 140.497 9.35761C140.373 9.66571 140.345 10.004 140.417 10.3282C140.489 10.6523 140.657 10.9472 140.899 11.1742C141.141 11.4012 141.447 11.5498 141.775 11.6004L141.808 11.6055C141.727 12.4325 141.582 13.252 141.376 14.057C143.358 21.7208 139.08 24.5121 132.971 24.6375C132.836 24.7067 132.704 24.7758 132.569 24.8415C133.729 28.1288 134.457 31.5529 134.734 35.0278C134.891 37.0779 134.882 39.1373 134.706 41.1859L134.717 41.1133C135.159 38.8353 136.375 36.7799 138.157 35.294C140.805 33.1192 144.545 32.3183 147.401 30.5701C148.776 29.7286 150.538 30.8161 150.298 32.4101C150.294 32.4355 150.291 32.461 150.287 32.4864C149.861 32.6598 149.446 32.8596 149.045 33.0846C148.816 33.2141 148.591 33.3514 148.372 33.4968C148.095 33.6812 147.882 33.9447 147.758 34.2528C147.634 34.561 147.606 34.8992 147.678 35.2234C147.75 35.5476 147.918 35.8425 148.16 36.0695C148.403 36.2965 148.708 36.445 149.036 36.4956L149.07 36.5008C149.094 36.5042 149.114 36.5077 149.139 36.5112C148.411 38.2482 147.39 39.8471 146.12 41.2378C144.881 47.928 139.559 48.5627 133.866 46.6145H133.863C133.238 49.3288 132.333 51.9708 131.162 54.498H121.515C121.481 54.3908 121.45 54.2801 121.418 54.1729C122.311 54.2291 123.208 54.1757 124.088 54.0139C123.372 53.1356 122.656 52.2505 121.941 51.3722C121.925 51.3558 121.91 51.3385 121.896 51.3204C121.533 50.8709 121.166 50.4248 120.803 49.9753L120.803 49.9748C120.783 48.597 120.942 47.2224 121.273 45.8849L121.274 45.8847Z" fill="#F2F2F2"/>
<path d="M152.247 21.1962C150.453 14.6565 164.92 9.04847 168.719 14.315C169.248 13.5662 171.2 13.1114 172.096 13.3411C172.992 13.5708 173.745 14.145 174.48 14.7008C175.49 15.4772 176.538 16.281 177.158 17.3973C177.783 18.5089 177.879 20.0249 177.039 20.9895C176.372 21.7566 174.406 22.2527 173.405 22.4549C172.707 22.5973 172.119 22.7121 171.613 22.7948C171.154 22.1335 170.943 21.3317 171.016 20.5301C170.676 20.7596 170.391 21.0614 170.181 21.414C169.972 21.7667 169.843 22.1613 169.804 22.5697C169.79 22.7397 175.449 43.5626 175.449 43.5626C174.769 43.9496 174.054 44.271 173.313 44.5226C171.848 42.2828 170.725 39.8364 169.983 37.2647C169.812 38.9843 169.834 40.7177 170.047 42.4325C170.161 43.3941 170.323 44.3493 170.534 45.2943C163.809 46.7459 153.694 46.2682 149.293 40.0944C149.292 40.0688 149.292 40.0433 149.291 40.0177C149.287 39.774 149.199 39.5391 149.042 39.3532C148.884 39.1673 148.667 39.0419 148.427 38.9986C148.187 38.9553 147.94 38.9968 147.727 39.1159C147.514 39.2349 147.35 39.4242 147.261 39.6513C147.155 39.9237 147.056 40.1595 146.969 40.347C145.687 35.7626 147.345 30.4569 152.247 21.1962Z" fill="#2F2E41"/>
<path d="M140.802 130.838V131.052C140.794 130.981 140.794 130.909 140.802 130.838Z" fill="#2F2E41"/>
<path d="M147.389 93.8269C147.56 93.7806 147.734 93.7468 147.91 93.7257C147.708 93.7586 147.534 93.7923 147.389 93.8269Z" fill="#2F2E41"/>
<path d="M147.236 93.8657C147.283 93.8528 147.334 93.8398 147.389 93.8269C147.338 93.8402 147.289 93.8499 147.236 93.8657Z" fill="#2F2E41"/>
<path d="M195.893 152.267H171.242C170.89 151.987 170.646 151.593 170.55 151.154C170.454 150.714 170.512 150.255 170.714 149.853C171.388 148.309 170.068 146.898 170.068 146.898C169.62 146.373 169.309 145.745 169.161 145.071C169.014 144.397 169.035 143.697 169.223 143.033C169.876 140.752 167.317 134.314 167.317 134.314C167.317 134.314 165.937 142.627 164.246 152.267H140.803C140.41 151.598 140.203 150.837 140.203 150.061C140.203 149.285 140.41 148.524 140.803 147.855C142.169 145.538 140.803 145.094 140.803 145.094C140.803 145.094 139.436 142.502 140.803 140.619C142.169 138.737 140.803 131.052 140.803 131.052C140.854 131.392 141.243 130.774 141.842 129.478C142.755 127.508 144.149 123.963 145.558 119.849C146.565 116.912 147.58 113.681 148.428 110.522H148.43C148.653 109.692 148.864 108.87 149.063 108.055C149.452 106.457 149.785 104.904 150.039 103.446C150.589 100.305 150.77 97.6076 150.348 95.853C149.998 94.3929 149.231 93.5877 147.909 93.7257C148.618 93.6083 149.656 93.4971 150.935 93.3921C151.165 93.3735 151.404 93.355 151.651 93.3344C161.19 92.6136 181.656 92.1997 181.656 92.1997L187.925 103.425L195.864 117.645C195.864 117.645 195.648 136.721 195.893 152.267Z" fill="#2F2E41"/>
<path d="M169.581 43.6806L155.139 40.617L152.271 46.3891L142.614 51.9799C142.614 51.9799 148.839 77.4313 148.804 81.0109C148.713 90.099 134.172 110.472 145.156 108.904C156.139 107.337 158.37 100.772 161.896 101.81C165.076 102.747 168.959 106.911 171.559 103.933C174.158 100.954 175.074 104.394 176.718 104.512C177.499 104.569 177.028 100.751 178.994 104.631C180.959 108.511 191.381 103.288 187.849 99.7558C181.966 93.8727 180.77 50.5049 180.77 50.5049L174.221 48.4898L169.581 43.6806Z" fill="#E6E6E6"/>
<path d="M142.342 136.109C142.922 135.417 143.209 134.526 143.143 133.626C143.076 132.725 142.66 131.886 141.985 131.287C141.845 131.167 141.696 131.059 141.539 130.964L143.954 119.113L138.372 115.772L136.819 132.364C136.475 133.046 136.367 133.823 136.511 134.573C136.656 135.322 137.044 136.003 137.616 136.509C137.944 136.794 138.325 137.011 138.737 137.149C139.149 137.286 139.584 137.341 140.018 137.311C140.451 137.28 140.874 137.164 141.263 136.97C141.652 136.776 141.998 136.507 142.283 136.179C142.303 136.156 142.322 136.133 142.342 136.109Z" fill="#A0616A"/>
<path d="M159.675 73.6407C159.64 73.2597 159.154 73.0867 158.481 72.8478C157.804 72.6395 157.161 72.335 156.572 71.9438C155.081 70.8667 155.668 69.7402 156.479 68.1834C156.637 67.8806 156.802 67.5655 156.957 67.2381C157.416 66.2681 156.685 62.2668 154.78 55.3432C154.193 53.2118 154.195 51.7064 153.789 50.7076C153.386 49.7088 152.576 49.2166 150.371 49.1136C147.705 48.979 145.094 49.907 143.112 51.694C143.058 51.7414 143.002 51.7928 142.949 51.8423C142.848 51.937 142.749 52.0338 142.652 52.1326C140.819 53.9774 139.769 56.4597 139.724 59.0604L139.714 59.5031L139.258 80.6569L137.98 99.2201L136.217 124.791L137.522 124.855L142.733 125.115L143.365 125.145L144.864 118.856L146.668 111.288L147.331 108.508L149.389 99.8832L150.348 95.853L150.935 93.3921L151.174 92.3871L152.34 87.5023C152.366 87.3993 155.048 76.8203 158.139 75.0513C159.292 74.3923 159.708 74.0093 159.675 73.6407Z" fill="#E6E6E6"/>
<path d="M194.357 135.983C193.706 135.358 193.324 134.502 193.294 133.6C193.264 132.697 193.587 131.819 194.194 131.15C194.32 131.017 194.456 130.893 194.602 130.782L190.929 119.259L196.12 115.337L199.446 131.667C199.861 132.308 200.051 133.068 199.989 133.829C199.926 134.59 199.613 135.309 199.099 135.873C198.803 136.192 198.447 136.449 198.052 136.63C197.657 136.811 197.231 136.912 196.796 136.928C196.362 136.944 195.929 136.874 195.522 136.723C195.115 136.572 194.741 136.342 194.423 136.046C194.401 136.025 194.379 136.004 194.357 135.983Z" fill="#A0616A"/>
<path d="M196.896 110.979C196.896 110.979 192.847 96.7336 194.082 95.1915C195.317 93.6493 191.67 93.3482 193.242 90.4761C194.813 87.604 192.644 87.1237 192.644 87.1237L191.467 80.5202L189.363 64.3003L189.299 63.8179L188.687 59.099C188.516 57.7512 188.075 56.4517 187.39 55.2782C186.706 54.1047 185.791 53.0813 184.702 52.2692C184.647 52.2266 184.59 52.1857 184.533 52.1448C184.274 51.9583 184.009 51.7855 183.739 51.6264C181.719 50.4348 179.347 49.9843 177.031 50.3523C172.667 51.032 174.025 52.6594 173.317 57.0193C172.167 64.1084 171.868 68.1642 172.429 69.0805C172.618 69.3891 172.817 69.6843 173.006 69.9677C173.98 71.4305 174.685 72.4857 173.317 73.7191C172.773 74.1698 172.166 74.5407 171.517 74.8208C170.874 75.132 170.409 75.3553 170.415 75.7379C170.422 76.1085 170.877 76.4432 172.093 76.9739C173.567 77.6191 175.151 80.0582 176.448 82.5499C177.477 84.5583 178.394 86.6219 179.197 88.7311L190.343 120.081L192.162 125.194L192.789 125.094L197.939 124.278L199.231 124.073L196.896 110.979Z" fill="#E6E6E6"/>
<path d="M163.488 40.4005C169.995 40.4005 175.271 35.1251 175.271 28.6176C175.271 22.1101 169.995 16.8348 163.488 16.8348C156.98 16.8348 151.705 22.1101 151.705 28.6176C151.705 35.1251 156.98 40.4005 163.488 40.4005Z" fill="#A0616A"/>
<path d="M145.815 22.1149C144.021 15.5752 158.489 9.96717 162.288 15.2337C162.816 14.4849 164.768 14.0301 165.664 14.2598C166.56 14.4895 167.313 15.0637 168.048 15.6195C169.059 16.3959 170.106 17.1997 170.726 18.316C171.351 19.4276 171.447 20.9436 170.607 21.9082C169.941 22.6753 167.975 23.1715 166.973 23.3736C166.275 23.516 165.687 23.6308 165.182 23.7135C164.723 23.0522 164.511 22.2504 164.585 21.4488C164.245 21.6783 163.959 21.9801 163.75 22.3327C163.54 22.6854 163.411 23.08 163.372 23.4884C163.358 23.6584 169.017 44.4813 169.017 44.4813C168.338 44.8683 167.622 45.1897 166.881 45.4413C165.416 43.2015 164.293 40.7551 163.551 38.1834C163.38 39.903 163.402 41.6364 163.615 43.3512C163.729 44.3128 163.891 45.268 164.102 46.213C157.377 47.6646 147.262 47.1869 142.861 41.0131C142.861 40.9875 142.86 40.962 142.859 40.9364C142.856 40.6927 142.768 40.4578 142.61 40.2719C142.453 40.086 142.235 39.9606 141.995 39.9174C141.756 39.8741 141.508 39.9155 141.295 40.0346C141.083 40.1536 140.918 40.3429 140.83 40.5701C140.723 40.8424 140.625 41.0782 140.537 41.2657C139.255 36.6813 140.914 31.3756 145.815 22.1149Z" fill="#2F2E41"/>
<path d="M87.3798 62.8298C87.131 62.8413 86.8846 62.7759 86.6742 62.6427C86.4637 62.5094 86.2993 62.3147 86.2032 62.0849C86.1071 61.8551 86.084 61.6013 86.1369 61.3579C86.1899 61.1145 86.3164 60.8933 86.4993 60.7242C86.53 60.6024 86.552 60.515 86.5826 60.3932C86.5716 60.3667 86.5606 60.3402 86.5495 60.3138C85.4311 57.6468 81.6405 57.6652 80.5316 60.3361C79.5473 62.7067 78.2942 65.0813 77.9856 67.5878C77.8497 68.6957 77.9071 69.8188 78.155 70.9071C75.8433 65.8643 74.6428 60.3834 74.6351 54.8359C74.6346 53.4438 74.712 52.0528 74.8668 50.6694C74.9947 49.5353 75.1722 48.4092 75.3993 47.2913C76.6384 41.2252 79.2987 35.5396 83.1617 30.7014C85.0315 29.6812 86.5435 28.1124 87.4942 26.2064C87.8386 25.5212 88.082 24.7898 88.2169 24.035C88.0059 24.0626 87.4216 20.8504 87.5807 20.6533C87.2867 20.2073 86.7606 19.9856 86.4396 19.5504C84.8431 17.3858 82.6434 17.7637 81.4951 20.7052C79.0421 21.9433 79.0184 23.9965 80.5235 25.9712C81.4811 27.2276 81.6127 28.9276 82.4529 30.2726C82.3665 30.3832 82.2766 30.4904 82.1901 30.6011C80.61 32.633 79.2327 34.8148 78.0782 37.1154C78.4048 34.5639 77.9226 31.4899 77.1005 29.5085C76.1646 27.2508 74.4104 25.3493 72.8657 23.3976C71.0102 21.0532 67.2054 22.0763 66.8785 25.0482C66.8753 25.077 66.8722 25.1057 66.8692 25.1345C67.0987 25.2639 67.3233 25.4013 67.543 25.5467C67.8191 25.7311 68.033 25.9946 68.1567 26.3027C68.2804 26.6108 68.3082 26.9491 68.2364 27.2733C68.1646 27.5974 67.9965 27.8923 67.7542 28.1194C67.512 28.3464 67.2068 28.4949 66.8786 28.5455L66.845 28.5507C66.9268 29.3776 67.0712 30.1971 67.2772 31.0022C65.2955 38.6659 69.5739 41.4573 75.6828 41.5826C75.8176 41.6518 75.9491 41.7209 76.0839 41.7867C74.9239 45.0739 74.1963 48.498 73.9194 51.9729C73.7626 54.023 73.7719 56.0824 73.9471 58.131L73.9367 58.0584C73.4941 55.7804 72.2789 53.725 70.4963 52.2392C67.8487 50.0643 64.1082 49.2634 61.252 47.5152C59.877 46.6737 58.1152 47.7612 58.3551 49.3552C58.359 49.3807 58.3628 49.4061 58.3668 49.4316C58.7926 49.605 59.2072 49.8047 59.6081 50.0297C59.8375 50.1592 60.0621 50.2966 60.2819 50.4419C60.558 50.6263 60.7719 50.8899 60.8956 51.198C61.0193 51.5061 61.0471 51.8444 60.9753 52.1685C60.9035 52.4927 60.7354 52.7876 60.4931 53.0146C60.2508 53.2416 59.9456 53.3901 59.6175 53.4407L59.5839 53.4459C59.5597 53.4494 59.5389 53.4528 59.5148 53.4563C60.2423 55.1934 61.2634 56.7923 62.5333 58.1829C63.7724 64.8731 69.0944 65.5078 74.7873 63.5596H74.7907C75.4154 66.2739 76.3204 68.9159 77.4912 71.4431H87.1381C87.1727 71.3359 87.2038 71.2252 87.2349 71.118C86.342 71.1742 85.4455 71.1208 84.5655 70.959C85.2813 70.0808 85.997 69.1956 86.7128 68.3173C86.7287 68.3009 86.7437 68.2836 86.7577 68.2655C87.1208 67.816 87.4873 67.3699 87.8503 66.9205L87.8505 66.9199C87.8699 65.5421 87.7118 64.1675 87.3801 62.83L87.3798 62.8298Z" fill="#F2F2F2"/>
<path d="M42.3665 14.3152C42.1476 14.8254 35.3965 14.7707 35.0873 15.2251C32.7034 18.7327 41.297 33.657 38.9131 37.1692L38.581 37.565C39.3587 37.2066 40.1058 36.7851 40.8148 36.3048C40.8785 34.8671 40.9422 33.4249 41.0104 31.9873C41.7244 32.9008 42.3008 33.9139 42.721 34.9945C43.2761 34.6033 43.7314 33.878 46.1104 32.4514C47.0735 31.3933 48.1838 30.4794 49.4072 29.7375L42.3665 14.3152Z" fill="#2F2E41"/>
<path d="M47.2691 43.0624C46.5241 42.5771 45.6741 42.2764 44.7897 42.1854C43.9052 42.0944 43.0118 42.2156 42.1836 42.5389C41.3553 42.8623 40.6162 43.3785 40.0274 44.0448C39.4386 44.711 39.0172 45.5081 38.7982 46.3698L28.539 73.1009L10.9047 63.0895C10.8273 61.9387 10.3874 60.8421 9.64816 59.9568C8.90893 59.0715 7.90832 58.443 6.78983 58.1616C5.67135 57.8801 4.49247 57.9601 3.42226 58.3901C2.35205 58.82 1.4455 59.5779 0.832629 60.5549C0.219759 61.532 -0.0679436 62.678 0.0107847 63.8287C0.0895129 64.9793 0.530628 66.0755 1.27086 66.96C2.0111 67.8444 3.01242 68.4717 4.13121 68.7519C5.25001 69.0321 6.42881 68.9508 7.49853 68.5196C11.2122 72.4832 27.3121 88.7336 33.9774 82.3841C39.5799 77.0471 47.6649 56.3629 49.6111 49.2202C49.9229 48.078 49.8641 46.8664 49.4432 45.7598C49.0223 44.6531 48.2611 43.7087 47.2691 43.0624Z" fill="#FFB6B6"/>
<path d="M28.0049 83.5043L31.2424 98.1372L54.9159 100.278L57.0915 87.5372L28.0049 83.5043Z" fill="#FFB6B6"/>
<path d="M64.1667 121.029C64.1559 121.238 64.1429 121.446 64.1278 121.656C63.9007 124.688 63.6412 128.185 63.3601 132.017C62.9167 138.098 62.4215 145.023 61.9219 152.267H12.2666L21.8967 123.322C21.8967 123.322 25.7852 121.181 23.8055 117.585C21.8259 113.988 25.7211 116.854 25.7573 111.718C25.7936 106.582 29.2841 101.118 29.2841 101.118L29.8572 93.3409L30.1837 93.3474L56.0246 93.7778L56.496 93.7864L57.2897 100.462C62.1087 106.197 64.5671 113.549 64.1667 121.029Z" fill="#2F2E41"/>
<path d="M42.7802 35.9708L54.5636 35.3638L60.0367 44.012C60.0367 44.012 70.3344 45.7336 69.6206 57.8683C68.9068 70.0029 57.0913 80.6511 57.0913 80.6511L57.5964 78.9195L56.7192 81.4259L56.8317 82.8333L58.0284 84.3238L58.1516 85.8652L57.0914 88.304C57.2292 88.525 57.3024 88.7802 57.3026 89.0406C57.3027 89.3011 57.2299 89.5564 57.0923 89.7776C56.9547 89.9988 56.7579 90.1769 56.5242 90.2919C56.2905 90.4069 56.0292 90.4541 55.7701 90.4281L38.7439 88.7218C38.3563 87.6555 38.0452 86.3796 36.4914 88.5036L34.8875 88.3482L28.2201 87.7022L27.8277 86.2727C27.6047 85.4604 27.57 84.6079 27.7261 83.7801C27.8822 82.9524 28.2251 82.1712 28.7287 81.4959C28.1495 79.6824 28.3012 77.7145 29.1514 76.0112L29.1833 75.9473L29.8914 75.3572C29.8914 75.3572 22.1451 63.7195 31.0376 54.9542L34.6066 48.8869L38.6 44.0147L42.7802 35.9708Z" fill="url(#paint0_linear_262_2891)"/>
<path d="M45.713 30.8658C51.8842 30.8658 56.887 25.8631 56.887 19.6919C56.887 13.5207 51.8842 8.51794 45.713 8.51794C39.5418 8.51794 34.5391 13.5207 34.5391 19.6919C34.5391 25.8631 39.5418 30.8658 45.713 30.8658Z" fill="#FFB6B6"/>
<path d="M54.1996 35.7887C53.2896 35.0284 52.6563 33.9888 52.398 32.8316C52.1913 34.2367 52.2453 35.6679 52.5572 37.0535C51.9521 37.5084 51.3653 37.9406 50.8102 38.3319C50.39 37.2513 49.8136 36.2381 49.0996 35.3247C49.0314 36.7623 48.9677 38.2045 48.904 39.6421C48.195 40.1224 47.4479 40.5439 46.6702 40.9023L47.0023 40.5065C49.3862 36.9943 43.2171 30.5295 45.601 27.0219C46.2698 26.0391 43.249 18.2732 40.9469 17.9229C38.8997 17.6135 38.9861 18.205 37.0025 18.6372C36.7965 17.7781 36.4768 16.9503 36.0517 16.1759C36.1648 17.0388 36.1387 17.9144 35.9743 18.7691C35.2692 18.7964 34.7144 18.3471 33.9635 18.2322C29.1729 17.4998 29.6597 12.318 30.9927 10.6756C32.3302 9.03776 36.7705 8.54641 38.8178 8.0141C39.0043 7.83214 39.4274 7.94587 39.6139 7.77299C43.5374 4.1823 48.7848 3.58765 53.507 5.17913C58.5428 6.87632 61.6825 10.1611 63.294 15.225L63.7562 19.2775C64.1708 20.5805 63.6492 26.6432 63.294 27.9636C61.9132 33.0963 58.9725 30.5341 54.1996 35.7887Z" fill="#2F2E41"/>
<path d="M70.4927 88.728L70.0528 54.4672C70.0299 53.0157 69.4372 51.6315 68.4026 50.6132C67.3681 49.5948 65.9747 49.0241 64.523 49.0241H64.523C63.772 49.0241 63.0289 49.1771 62.339 49.4736C61.6491 49.7702 61.0268 50.2041 60.51 50.7491C59.9933 51.294 59.5929 51.9384 59.3334 52.6431C59.0738 53.3478 58.9605 54.0979 59.0003 54.8479L60.5483 90.4225L60.5777 112.079C59.6653 112.465 58.8942 113.124 58.369 113.964C57.8439 114.805 57.5902 115.786 57.6425 116.776C57.6947 117.766 58.0503 118.715 58.661 119.496C59.2717 120.276 60.1078 120.85 61.0558 121.138C62.0038 121.427 63.0177 121.417 63.9598 121.109C64.9019 120.802 65.7264 120.212 66.3214 119.419C66.9164 118.627 67.253 117.67 67.2854 116.68C67.3179 115.689 67.0447 114.713 66.5029 113.883L70.4927 88.728Z" fill="#FFB6B6"/>
<path d="M128.162 133.053C128.162 133.053 127.482 145.29 127.169 152.268H103.747C103.265 145.917 103.103 141.252 103.103 141.252L101.821 152.268H78.1455L76.6777 131.865L83.7708 114.283C83.7708 114.283 122.21 111.617 125.776 114.999C129.339 118.378 128.162 133.053 128.162 133.053Z" fill="#2F2E41"/>
<path d="M107.45 30.1207C114.516 30.1207 120.244 24.3926 120.244 17.3267C120.244 10.2607 114.516 4.53265 107.45 4.53265C100.384 4.53265 94.6562 10.2607 94.6562 17.3267C94.6562 24.3926 100.384 30.1207 107.45 30.1207Z" fill="#FFB6B6"/>
<path d="M122.363 13.1695C121.049 13.7687 120.197 18.1085 119.164 17.0995C118.131 16.0906 118.2 14.7777 116.808 14.4053C115.683 14.1034 114.473 14.4485 113.447 14.9928C113.264 15.0888 113.087 15.1932 112.914 15.2971C112.799 15.2208 112.686 15.1489 112.564 15.0827C111.646 14.5917 110.575 14.4712 109.572 14.7461C110.365 15.0118 111.054 15.52 111.543 16.1989C111.199 16.429 110.852 16.6596 110.496 16.864C107.524 18.5788 103.296 14.8501 100.169 13.4494C102.128 17.1257 101.163 18.6483 99.462 22.4504L99.4033 22.6669C99.4999 21.714 96.5511 21.0039 96.7221 22.3453C96.8435 23.2977 97.6678 25.4147 98.1294 26.2556C94.841 22.4533 92.5938 17.8003 93.068 13.0003C93.1712 11.992 93.1401 10.9281 93.6602 10.053C94.1808 9.18231 95.2662 8.57133 96.2265 8.90334C96.1451 7.37258 96.4801 5.84839 97.1958 4.4928C97.9115 3.13721 98.9811 2.00089 100.291 1.20465C101.601 0.40842 103.102 -0.0179722 104.635 -0.0291917C106.168 -0.0404112 107.675 0.363963 108.997 1.14094C110.224 1.86143 111.25 2.88044 112.375 3.75941C113.5 4.63838 114.798 5.40454 116.225 5.4771C117.13 5.52077 118.115 5.29975 118.893 5.76862C119.794 6.31268 119.948 7.45176 120.083 8.54784C119.28 8.62706 118.518 8.94406 117.895 9.45834C118.727 9.37353 119.564 9.55306 120.287 9.97139C120.301 9.97761 120.314 9.98506 120.327 9.99366C120.803 11.8051 120.754 12.2067 122.363 13.1695Z" fill="#2F2E41"/>
<path d="M78.2021 120.472C89.0973 107.719 85.4173 91.4985 81.093 75.1244L81.9159 50.935C81.9562 49.7484 82.2815 48.589 82.8643 47.5546C83.447 46.5202 84.2701 45.6412 85.2641 44.9918L96.3867 37.7255L100.716 31.4663L112.649 32.6596L119.266 39.6577L126.591 45.2496C128.43 46.6536 129.829 48.5542 130.624 50.7272C131.419 52.9003 131.576 55.2553 131.076 57.5145L124.066 89.2139C124.066 89.2139 126.998 105.647 125.209 107.462C123.42 109.277 118.811 107.463 122.466 109.5C126.853 111.945 130.841 111.494 128.622 113.714C126.402 115.934 129.211 119.02 129.211 119.02L78.2021 120.472Z" fill="url(#paint1_linear_262_2891)"/>
<path d="M82.861 139.007L84.6773 126.066L77.4298 123.997L75.9962 137.747C75.3964 138.297 74.9619 139.003 74.7415 139.787C74.5212 140.57 74.5237 141.4 74.7489 142.182C74.974 142.964 75.4128 143.667 76.0159 144.214C76.6191 144.76 77.3626 145.127 78.163 145.274C78.9634 145.421 79.7889 145.341 80.5467 145.045C81.3045 144.748 81.9646 144.246 82.4527 143.595C82.9408 142.944 83.2376 142.17 83.3097 141.359C83.3819 140.549 83.2264 139.734 82.861 139.007Z" fill="#FFB6B6"/>
<path d="M96.6589 40.0582C96.6589 40.0582 76.0292 46.7724 75.5373 51.6852C75.0454 56.598 75.2086 59.6054 73.0312 79.2642L73.146 132.22C73.146 132.22 86.9769 135.181 85.5585 132.015C84.1401 128.849 84.635 127.359 84.635 127.359C84.635 127.359 87.6004 126.189 86.8581 122.471C86.1158 118.754 89.8383 100.331 89.8383 100.331L92.1878 67.2907L96.6589 40.0582Z" fill="url(#paint2_linear_262_2891)"/>
<path d="M122.096 138.321L121.129 125.29L128.496 123.699L129.028 137.513C129.591 138.101 129.978 138.834 130.147 139.631C130.315 140.427 130.259 141.254 129.983 142.02C129.707 142.785 129.223 143.459 128.586 143.964C127.948 144.47 127.182 144.788 126.374 144.882C125.565 144.976 124.747 144.843 124.01 144.498C123.273 144.152 122.648 143.608 122.203 142.927C121.759 142.245 121.513 141.453 121.494 140.639C121.475 139.826 121.683 139.023 122.096 138.321H122.096Z" fill="#FFB6B6"/>
<path d="M114.795 38.6826C114.795 38.6826 134.942 46.7309 135.111 51.6654C135.281 56.5998 134.922 59.5901 135.809 79.3491L132.233 132.184C132.233 132.184 118.239 134.235 119.861 131.168C121.483 128.101 121.087 126.583 121.087 126.583C121.087 126.583 118.204 125.221 119.188 121.56C120.172 117.899 117.661 99.2723 117.661 99.2723L117.476 66.1491L114.795 38.6826Z" fill="url(#paint3_linear_262_2891)"/>
</g>
<defs>
<linearGradient id="paint0_linear_262_2891" x1="23.2688" y1="62.8995" x2="74.0595" y2="62.8995" gradientUnits="userSpaceOnUse">
<stop stop-color="#005BAA"/>
<stop offset="0.0001" stop-color="#005BAA" stop-opacity="0.984375"/>
<stop offset="1" stop-color="#042B4D"/>
</linearGradient>
<linearGradient id="paint1_linear_262_2891" x1="73.8694" y1="75.9693" x2="136.82" y2="75.9693" gradientUnits="userSpaceOnUse">
<stop stop-color="#005BAA"/>
<stop offset="0.0001" stop-color="#005BAA" stop-opacity="0.984375"/>
<stop offset="1" stop-color="#042B4D"/>
</linearGradient>
<linearGradient id="paint2_linear_262_2891" x1="71.1055" y1="86.7676" x2="99.0847" y2="86.7676" gradientUnits="userSpaceOnUse">
<stop stop-color="#005BAA"/>
<stop offset="0.0001" stop-color="#005BAA" stop-opacity="0.984375"/>
<stop offset="1" stop-color="#042B4D"/>
</linearGradient>
<linearGradient id="paint3_linear_262_2891" x1="113.082" y1="85.7689" x2="137.967" y2="85.7689" gradientUnits="userSpaceOnUse">
<stop stop-color="#005BAA"/>
<stop offset="0.0001" stop-color="#005BAA" stop-opacity="0.984375"/>
<stop offset="1" stop-color="#042B4D"/>
</linearGradient>
<clipPath id="clip0_262_2891">
<rect width="200" height="152.268" fill="white"/>
</clipPath>
</defs>
</svg>
