<svg width="632" height="435" viewBox="0 0 632 435" fill="none" xmlns="http://www.w3.org/2000/svg">
<g clip-path="url(#clip0_262_2843)">
<path d="M86.732 432.067C61.6 425.526 39.3919 410.736 23.6677 390.069C7.94343 369.401 -0.386291 344.052 0.0137661 318.086C0.113442 311.617 0.793658 305.011 3.51328 299.14C6.2329 293.269 11.2845 288.191 17.6036 286.8C24.4999 285.282 31.777 288.386 36.9164 293.228C42.0558 298.071 45.4255 304.46 48.5259 310.804C67.2002 349.018 81.3885 390.022 86.7005 432.222L86.732 432.067Z" fill="#F2F2F2"/>
<path d="M14.4741 288.075L27.562 317.812L40.65 347.549C44.795 356.967 48.932 366.389 53.2163 375.744C57.463 385.018 61.8552 394.227 66.5408 403.287C71.2198 412.335 76.1926 421.235 81.5904 429.875C82.2626 430.951 82.9414 432.022 83.6268 433.09C84.1011 433.829 85.2868 433.143 84.8091 432.399C79.3078 423.823 74.2387 414.978 69.4843 405.968C64.7248 396.949 60.2764 387.768 55.9923 378.515C51.6853 369.212 47.5439 359.833 43.4136 350.451C39.066 340.575 34.7191 330.698 30.373 320.822L17.2851 291.085L15.6563 287.384C15.3021 286.579 14.122 287.275 14.474 288.075L14.4741 288.075Z" fill="white"/>
<path d="M81.2718 432.274C66.4579 435.663 50.9351 433.979 37.1919 427.494C23.4486 421.009 12.2808 410.097 5.47855 396.508C3.78375 393.122 2.35372 389.509 2.18074 385.727C2.00776 381.944 3.25964 377.944 6.16483 375.516C9.33541 372.866 13.9514 372.513 17.927 373.639C21.9026 374.766 25.377 377.174 28.6994 379.631C48.7111 394.429 67.1469 411.887 81.2971 432.363L81.2718 432.274Z" fill="#F2F2F2"/>
<path d="M4.88443 377.022L19.7074 388.928L34.5303 400.834C39.2248 404.604 43.9162 408.379 48.6662 412.08C53.3744 415.748 58.1409 419.343 63.0196 422.783C67.8914 426.217 72.8759 429.495 78.0107 432.523C78.6502 432.901 79.2919 433.274 79.9359 433.643C80.3818 433.899 80.8123 433.223 80.3632 432.965C75.1919 429.998 70.1721 426.774 65.2715 423.38C60.3655 419.982 55.5777 416.416 50.8553 412.769C46.1077 409.101 41.4257 405.35 36.7484 401.594C31.8251 397.64 26.902 393.686 21.9793 389.732L7.15633 377.826L5.3117 376.344C4.91056 376.022 4.48576 376.702 4.88443 377.022V377.022Z" fill="white"/>
<path d="M626.277 0H228.062C226.544 0.00168383 225.089 0.605276 224.016 1.67834C222.943 2.7514 222.34 4.20629 222.338 5.72383V275.561C222.34 277.079 222.943 278.534 224.016 279.607C225.089 280.68 226.544 281.284 228.062 281.285H626.277C627.794 281.284 629.249 280.68 630.322 279.607C631.395 278.534 631.999 277.079 632 275.561V5.72383C631.999 4.20629 631.395 2.7514 630.322 1.67834C629.249 0.605276 627.794 0.00168383 626.277 0ZM630.365 275.561C630.365 276.646 629.934 277.685 629.167 278.452C628.4 279.219 627.361 279.649 626.277 279.65H228.062C226.978 279.649 225.938 279.219 225.171 278.452C224.405 277.685 223.974 276.646 223.973 275.561V5.72383C223.974 4.63964 224.405 3.59998 225.171 2.83334C225.938 2.0667 226.978 1.63581 228.062 1.63538H626.277C627.361 1.63581 628.4 2.0667 629.167 2.83334C629.934 3.59998 630.365 4.63964 630.365 5.72383V275.561Z" fill="#3F3D56"/>
<path d="M631.182 22.928H223.155V24.5634H631.182V22.928Z" fill="#3F3D56"/>
<path d="M237.056 17.1715C239.765 17.1715 241.962 14.9749 241.962 12.2653C241.962 9.55574 239.765 7.35919 237.056 7.35919C234.346 7.35919 232.149 9.55574 232.149 12.2653C232.149 14.9749 234.346 17.1715 237.056 17.1715Z" fill="#3F3D56"/>
<path d="M251.161 17.1715C253.871 17.1715 256.067 14.9749 256.067 12.2653C256.067 9.55574 253.871 7.35919 251.161 7.35919C248.451 7.35919 246.255 9.55574 246.255 12.2653C246.255 14.9749 248.451 17.1715 251.161 17.1715Z" fill="#3F3D56"/>
<path d="M265.266 17.1715C267.976 17.1715 270.173 14.9749 270.173 12.2653C270.173 9.55574 267.976 7.35919 265.266 7.35919C262.557 7.35919 260.36 9.55574 260.36 12.2653C260.36 14.9749 262.557 17.1715 265.266 17.1715Z" fill="#3F3D56"/>
<path d="M322.805 60.9179H254.119C252.601 60.9179 251.145 60.3148 250.072 59.2414C248.999 58.168 248.396 56.7121 248.396 55.194C248.396 53.676 248.999 52.2201 250.072 51.1467C251.145 50.0733 252.601 49.4702 254.119 49.4702H322.805C324.323 49.4702 325.779 50.0733 326.853 51.1467C327.926 52.2201 328.529 53.676 328.529 55.194C328.529 56.7121 327.926 58.168 326.853 59.2414C325.779 60.3148 324.323 60.9179 322.805 60.9179Z" fill="#CCCCCC"/>
<path d="M416.84 88.7193H254.119C252.601 88.7193 251.145 88.1163 250.072 87.0428C248.999 85.9694 248.396 84.5135 248.396 82.9955C248.396 81.4774 248.999 80.0215 250.072 78.9481C251.145 77.8747 252.601 77.2717 254.119 77.2717H416.84C418.358 77.2717 419.814 77.8747 420.887 78.9481C421.96 80.0215 422.563 81.4774 422.563 82.9955C422.563 84.5135 421.96 85.9694 420.887 87.0428C419.814 88.1163 418.358 88.7193 416.84 88.7193Z" fill="#CCCCCC"/>
<path d="M469.352 99.777C461.687 110.953 457.219 124.009 456.431 137.538C455.642 151.067 458.564 164.554 464.879 176.544C471.194 188.534 480.664 198.572 492.266 205.575C503.869 212.577 517.163 216.278 530.714 216.279V151.322L469.352 99.777Z" fill="url(#paint0_linear_262_2843)"/>
<path d="M530.714 67.4594C518.629 67.4517 506.725 70.3908 496.032 76.0222C485.34 81.6536 476.182 89.8073 469.352 99.7769L530.714 151.322V67.4594Z" fill="#CCCCCC"/>
<path d="M530.714 217.097H529.896V66.6417H530.714C550.666 66.6417 569.8 74.5674 583.908 88.6753C598.016 102.783 605.942 121.918 605.942 141.869C605.942 161.821 598.016 180.955 583.908 195.063C569.8 209.171 550.666 217.097 530.714 217.097ZM531.532 68.2815V215.457C550.907 215.241 569.415 207.394 583.04 193.617C596.664 179.84 604.306 161.245 604.306 141.869C604.306 122.493 596.664 103.899 583.04 90.1216C569.415 76.3447 550.907 68.4969 531.532 68.2815Z" fill="#3F3D56"/>
<path d="M301.545 247.76H287.644C286.669 247.759 285.734 247.371 285.044 246.681C284.354 245.991 283.966 245.056 283.965 244.08V204.014C283.966 203.038 284.354 202.103 285.044 201.413C285.734 200.723 286.669 200.335 287.644 200.334H301.545C302.521 200.335 303.456 200.723 304.146 201.413C304.836 202.103 305.224 203.038 305.225 204.014V244.08C305.224 245.056 304.836 245.991 304.146 246.681C303.456 247.371 302.521 247.759 301.545 247.76Z" fill="#CCCCCC"/>
<path d="M342.43 247.76H328.529C327.554 247.759 326.618 247.371 325.929 246.681C325.239 245.991 324.851 245.056 324.85 244.08V185.207C324.851 184.231 325.239 183.296 325.929 182.606C326.618 181.916 327.554 181.528 328.529 181.527H342.43C343.405 181.528 344.341 181.916 345.031 182.606C345.72 183.296 346.108 184.231 346.11 185.207V244.08C346.108 245.056 345.72 245.991 345.031 246.681C344.341 247.371 343.405 247.759 342.43 247.76Z" fill="#FF6584"/>
<path d="M383.315 247.76H369.414C368.438 247.759 367.503 247.371 366.813 246.681C366.124 245.991 365.735 245.056 365.734 244.08V168.853C365.735 167.877 366.124 166.942 366.813 166.252C367.503 165.562 368.438 165.174 369.414 165.173H383.315C384.29 165.174 385.226 165.562 385.915 166.252C386.605 166.942 386.993 167.877 386.994 168.853V244.08C386.993 245.056 386.605 245.991 385.915 246.681C385.226 247.371 384.29 247.759 383.315 247.76Z" fill="url(#paint1_linear_262_2843)"/>
<path d="M301.546 248.169H287.645C286.561 248.168 285.522 247.736 284.756 246.97C283.989 246.203 283.558 245.164 283.557 244.08V154.134C283.558 153.051 283.989 152.011 284.756 151.245C285.522 150.478 286.561 150.047 287.645 150.046H301.546C302.63 150.047 303.669 150.478 304.435 151.245C305.202 152.011 305.633 153.051 305.634 154.134V244.08C305.633 245.164 305.202 246.203 304.435 246.97C303.669 247.736 302.63 248.168 301.546 248.169ZM287.645 151.681C286.995 151.682 286.371 151.941 285.911 152.401C285.451 152.861 285.193 153.484 285.192 154.134V244.08C285.193 244.731 285.451 245.354 285.911 245.814C286.371 246.274 286.995 246.533 287.645 246.533H301.546C302.196 246.533 302.82 246.274 303.28 245.814C303.739 245.354 303.998 244.731 303.999 244.08V154.134C303.998 153.484 303.739 152.861 303.28 152.401C302.82 151.941 302.196 151.682 301.546 151.681H287.645Z" fill="#3F3D56"/>
<path d="M342.43 248.169H328.529C327.445 248.168 326.406 247.736 325.639 246.97C324.873 246.203 324.442 245.164 324.44 244.08V154.134C324.442 153.051 324.873 152.011 325.639 151.245C326.406 150.478 327.445 150.047 328.529 150.046H342.43C343.514 150.047 344.553 150.478 345.319 151.245C346.086 152.011 346.517 153.051 346.518 154.134V244.08C346.517 245.164 346.086 246.203 345.319 246.97C344.553 247.736 343.514 248.168 342.43 248.169ZM328.529 151.681C327.879 151.682 327.255 151.941 326.795 152.401C326.335 152.861 326.077 153.484 326.076 154.134V244.08C326.077 244.731 326.335 245.354 326.795 245.814C327.255 246.274 327.879 246.533 328.529 246.533H342.43C343.08 246.533 343.704 246.274 344.163 245.814C344.623 245.354 344.882 244.731 344.883 244.08V154.134C344.882 153.484 344.623 152.861 344.163 152.401C343.704 151.941 343.08 151.682 342.43 151.681H328.529Z" fill="#3F3D56"/>
<path d="M383.314 248.169H369.414C368.33 248.168 367.291 247.736 366.524 246.97C365.758 246.203 365.326 245.164 365.325 244.08V154.134C365.326 153.051 365.758 152.011 366.524 151.245C367.291 150.478 368.33 150.047 369.414 150.046H383.314C384.398 150.047 385.438 150.478 386.204 151.245C386.97 152.011 387.402 153.051 387.403 154.134V244.08C387.402 245.164 386.97 246.203 386.204 246.97C385.438 247.736 384.398 248.168 383.314 248.169ZM369.414 151.681C368.763 151.682 368.14 151.941 367.68 152.401C367.22 152.861 366.961 153.484 366.961 154.134V244.08C366.961 244.731 367.22 245.354 367.68 245.814C368.14 246.274 368.763 246.533 369.414 246.533H383.314C383.965 246.533 384.588 246.274 385.048 245.814C385.508 245.354 385.767 244.731 385.767 244.08V154.134C385.767 153.484 385.508 152.861 385.048 152.401C384.588 151.941 383.965 151.682 383.314 151.681H369.414Z" fill="#3F3D56"/>
<path d="M91.9339 293.553C92.2516 292.393 92.3113 291.178 92.1087 289.994C91.9061 288.809 91.4462 287.683 90.7613 286.695C90.0765 285.707 89.1833 284.881 88.1448 284.276C87.1063 283.67 85.9477 283.3 84.7506 283.191L77.7186 254.83L67.4268 265.994L75.6823 291.214C75.6322 293.238 76.3259 295.209 77.6322 296.755C78.9384 298.301 80.7663 299.314 82.7695 299.602C84.7727 299.89 86.8121 299.434 88.5012 298.319C90.1902 297.204 91.4116 295.508 91.9339 293.553H91.9339Z" fill="#FFB8B8"/>
<path d="M73.0804 284.83C72.6034 284.631 72.1736 284.334 71.8189 283.958C71.4643 283.582 71.1927 283.135 71.022 282.647L59.2831 246.523C56.25 237.846 56.4719 228.363 59.9075 219.838L71.2231 191.746C71.4775 190.209 72.0323 188.738 72.8558 187.415C73.6794 186.093 74.7554 184.946 76.0225 184.04C77.2896 183.134 78.7229 182.486 80.2404 182.135C81.7579 181.783 83.3299 181.734 84.8664 181.99C86.403 182.246 87.8739 182.802 89.1953 183.627C90.5166 184.452 91.6624 185.529 92.5671 186.798C93.4718 188.066 94.1178 189.5 94.4679 191.018C94.818 192.535 94.8656 194.107 94.6078 195.644L78.996 241.073L84.4607 278.064C84.5333 278.817 84.3731 279.573 84.0017 280.232C83.6302 280.891 83.0655 281.419 82.3838 281.747L76.0804 284.754C75.4043 285.077 74.646 285.185 73.9066 285.065C73.6229 285.02 73.3456 284.941 73.0804 284.83Z" fill="#2F2E41"/>
<path d="M131.111 423.925L141.136 423.925L145.905 385.258L131.109 385.259L131.111 423.925Z" fill="#FFB8B8"/>
<path d="M160.47 433.233L128.964 433.234L128.963 421.061L148.296 421.06C151.525 421.06 154.621 422.343 156.904 424.625C159.187 426.908 160.47 430.004 160.47 433.233Z" fill="#2F2E41"/>
<path d="M81.2321 423.925L91.257 423.925L96.0257 385.258L81.2305 385.259L81.2321 423.925Z" fill="#FFB8B8"/>
<path d="M110.59 433.233L79.0837 433.234L79.0831 421.061L98.4165 421.06C101.645 421.06 104.741 422.343 107.024 424.625C109.307 426.908 110.59 430.004 110.59 433.233Z" fill="#2F2E41"/>
<path d="M133.851 266.331L142.663 336.15C143.875 345.748 144.722 355.382 145.206 365.052L147.58 412.534C147.602 412.977 147.534 413.419 147.38 413.835C147.226 414.25 146.989 414.63 146.683 414.951C146.378 415.273 146.01 415.528 145.603 415.703C145.195 415.878 144.757 415.968 144.313 415.968H130.939C130.157 415.968 129.4 415.687 128.807 415.177C128.214 414.667 127.823 413.962 127.705 413.188L115.677 333.943C115.619 333.561 115.428 333.212 115.137 332.957C114.846 332.703 114.474 332.56 114.088 332.553C113.702 332.547 113.325 332.677 113.026 332.921C112.727 333.166 112.524 333.508 112.453 333.888L97.9618 411.5C97.8185 412.198 97.4513 412.83 96.9161 413.3C96.381 413.77 95.707 414.052 94.9967 414.104L82.6872 414.885C82.2302 414.919 81.7712 414.856 81.3401 414.7C80.909 414.545 80.5153 414.301 80.1845 413.984C79.8538 413.667 79.5934 413.283 79.4203 412.859C79.2471 412.435 79.165 411.979 79.1793 411.521L83.1544 284.32L133.851 266.331Z" fill="#2F2E41"/>
<path d="M94.8079 166.883C105.9 166.883 114.891 157.892 114.891 146.8C114.891 135.708 105.9 126.717 94.8079 126.717C83.7162 126.717 74.7246 135.708 74.7246 146.8C74.7246 157.892 83.7162 166.883 94.8079 166.883Z" fill="#FFB8B8"/>
<path d="M79.0662 285.955C83.9724 297.403 105.232 305.58 110.138 289.226C113.933 276.585 128.962 271.27 135.593 269.512C136.427 269.289 137.14 268.748 137.577 268.004C138.015 267.26 138.142 266.374 137.932 265.537L119.395 192.722C118.315 188.481 116.165 184.587 113.149 181.415C110.134 178.242 106.355 175.896 102.174 174.602C87.4396 170.04 71.9035 179.435 69.4093 194.652C68.728 198.919 68.294 203.222 68.1093 207.539C66.5717 239.666 75.8362 278.416 79.0662 285.955Z" fill="url(#paint2_linear_262_2843)"/>
<path d="M145.617 285.934C145.497 284.738 145.116 283.583 144.501 282.55C143.886 281.517 143.052 280.632 142.058 279.956C141.064 279.28 139.933 278.831 138.747 278.639C137.56 278.448 136.346 278.519 135.189 278.847L118.433 254.909L112.842 269.027L129.611 289.594C130.292 291.5 131.648 293.09 133.423 294.063C135.197 295.036 137.267 295.325 139.24 294.873C141.213 294.422 142.952 293.263 144.127 291.616C145.303 289.968 145.833 287.947 145.617 285.934L145.617 285.934Z" fill="#FFB8B8"/>
<path d="M124.889 284.572C124.372 284.557 123.864 284.434 123.398 284.211C122.932 283.988 122.518 283.669 122.183 283.275L98.2437 253.785C92.2944 246.778 89.0926 237.849 89.234 228.659L89.6954 198.377C89.3813 196.852 89.3707 195.28 89.6644 193.75C89.9581 192.221 90.5502 190.765 91.407 189.464C92.2637 188.164 93.3683 187.045 94.6576 186.172C95.9468 185.298 97.3956 184.688 98.921 184.374C100.446 184.061 102.019 184.052 103.548 184.346C105.077 184.641 106.533 185.234 107.833 186.091C109.133 186.949 110.251 188.054 111.123 189.344C111.996 190.634 112.606 192.083 112.918 193.608L114.68 241.613L133.076 274.167C133.414 274.843 133.537 275.607 133.427 276.355C133.317 277.103 132.98 277.8 132.462 278.35L127.661 283.423C127.146 283.966 126.477 284.34 125.744 284.494C125.463 284.554 125.176 284.58 124.889 284.572Z" fill="#2F2E41"/>
<path d="M79.5642 163.227C79.9967 163.483 80.4825 163.637 80.9838 163.675C81.4851 163.714 81.9886 163.636 82.4553 163.449C82.922 163.262 83.3393 162.97 83.6749 162.595C84.0106 162.221 84.2555 161.774 84.3909 161.29L84.4021 161.244C84.7666 159.72 84.4639 158.128 84.3593 156.565C84.2547 155.001 84.4078 153.283 85.4728 152.133C87.4581 149.99 90.9902 151.126 93.861 150.584C95.5425 150.209 97.0297 149.234 98.0441 147.841C99.0585 146.449 99.5307 144.734 99.3723 143.018C99.3314 142.693 99.2673 142.368 99.1954 142.043C99.0158 141.219 99.0297 140.364 99.2359 139.547C99.4421 138.729 99.835 137.97 100.384 137.33C100.933 136.69 101.622 136.185 102.399 135.857C103.175 135.528 104.018 135.383 104.859 135.435C107.761 135.601 110.892 136.48 113.293 134.331C114.173 133.483 114.784 132.395 115.049 131.203C115.315 130.01 115.223 128.766 114.786 127.625C113.416 123.668 109.542 121.597 105.708 120.459C100.967 119.089 95.9803 118.793 91.1104 119.592C86.2404 120.391 81.6097 122.265 77.5549 125.078C75.1336 126.785 72.8724 128.929 71.8403 131.706C70.8083 134.483 71.3062 137.986 73.6334 139.819C71.8295 141.729 70.5592 144.08 69.9499 146.635C69.3405 149.19 69.4134 151.861 70.1613 154.38C71.3107 158.083 76.7964 161.634 79.5642 163.227Z" fill="#2F2E41"/>
<path d="M225.769 434.554H9.08136C8.8645 434.554 8.65651 434.468 8.50317 434.314C8.34982 434.161 8.26367 433.953 8.26367 433.736C8.26367 433.519 8.34982 433.311 8.50317 433.158C8.65651 433.004 8.8645 432.918 9.08136 432.918H225.769C225.986 432.918 226.194 433.004 226.347 433.158C226.501 433.311 226.587 433.519 226.587 433.736C226.587 433.953 226.501 434.161 226.347 434.314C226.194 434.468 225.986 434.554 225.769 434.554Z" fill="#3F3D56"/>
</g>
<defs>
<linearGradient id="paint0_linear_262_2843" x1="450.24" y1="158.028" x2="538.354" y2="158.028" gradientUnits="userSpaceOnUse">
<stop stop-color="#005BAA"/>
<stop offset="0.0001" stop-color="#005BAA" stop-opacity="0.984375"/>
<stop offset="1" stop-color="#042B4D"/>
</linearGradient>
<linearGradient id="paint1_linear_262_2843" x1="364.002" y1="206.467" x2="389.177" y2="206.467" gradientUnits="userSpaceOnUse">
<stop stop-color="#005BAA"/>
<stop offset="0.0001" stop-color="#005BAA" stop-opacity="0.984375"/>
<stop offset="1" stop-color="#042B4D"/>
</linearGradient>
<linearGradient id="paint2_linear_262_2843" x1="62.2256" y1="235.941" x2="145.227" y2="235.941" gradientUnits="userSpaceOnUse">
<stop stop-color="#005BAA"/>
<stop offset="0.0001" stop-color="#005BAA" stop-opacity="0.984375"/>
<stop offset="1" stop-color="#042B4D"/>
</linearGradient>
<clipPath id="clip0_262_2843">
<rect width="632" height="434.554" fill="white"/>
</clipPath>
</defs>
</svg>
