<svg width="19" height="23" viewBox="0 0 19 23" fill="none" xmlns="http://www.w3.org/2000/svg">
<path d="M14.25 10.3021C13.9254 10.3021 13.6562 9.97625 13.6562 9.58334V7.66667C13.6562 4.64792 12.9517 2.63542 9.5 2.63542C6.04833 2.63542 5.34375 4.64792 5.34375 7.66667V9.58334C5.34375 9.97625 5.07458 10.3021 4.75 10.3021C4.42542 10.3021 4.15625 9.97625 4.15625 9.58334V7.66667C4.15625 4.88751 4.71042 1.19792 9.5 1.19792C14.2896 1.19792 14.8438 4.88751 14.8438 7.66667V9.58334C14.8438 9.97625 14.5746 10.3021 14.25 10.3021ZM9.5 18.4479C8.08292 18.4479 6.92708 17.0488 6.92708 15.3333C6.92708 13.6179 8.08292 12.2188 9.5 12.2188C10.9171 12.2188 12.0729 13.6179 12.0729 15.3333C12.0729 17.0488 10.9171 18.4479 9.5 18.4479ZM9.5 13.6563C8.74 13.6563 8.11458 14.4133 8.11458 15.3333C8.11458 16.2533 8.74 17.0104 9.5 17.0104C10.26 17.0104 10.8854 16.2533 10.8854 15.3333C10.8854 14.4133 10.26 13.6563 9.5 13.6563Z" fill="#666666"/>
<path d="M13.4585 21.8021H5.54183C2.05058 21.8021 0.989746 20.5179 0.989746 16.2917V14.375C0.989746 10.1487 2.05058 8.86458 5.54183 8.86458H13.4585C16.9497 8.86458 18.0106 10.1487 18.0106 14.375V16.2917C18.0106 20.5179 16.9497 21.8021 13.4585 21.8021ZM5.54183 10.3021C2.70766 10.3021 2.17725 10.9537 2.17725 14.375V16.2917C2.17725 19.7129 2.70766 20.3646 5.54183 20.3646H13.4585C16.2927 20.3646 16.8231 19.7129 16.8231 16.2917V14.375C16.8231 10.9537 16.2927 10.3021 13.4585 10.3021H5.54183Z" fill="#666666"/>
</svg>
