<svg width="134" height="126" viewBox="0 0 134 126" fill="none" xmlns="http://www.w3.org/2000/svg">
<g clip-path="url(#clip0_118_403)">
<path d="M12.8862 106.144L11.7061 101.78C9.6136 100.949 7.47279 100.229 5.29381 99.6237L5.14485 101.652L4.54074 99.4174C1.83842 98.6932 0 98.3746 0 98.3746C0 98.3746 2.48265 107.227 7.69155 113.995L13.7604 114.995L9.04568 115.632C9.7009 116.371 10.405 117.071 11.154 117.727C18.7305 124.32 27.1696 127.345 30.0029 124.483C32.8362 121.622 28.9909 113.957 21.4143 107.365C19.0655 105.321 16.1149 103.681 13.1613 102.389L12.8862 106.144Z" fill="#F2F2F2"/>
<path d="M24.1098 101.404L25.5055 97.0972C24.1728 95.3715 22.7373 93.7177 21.2059 92.1436L19.9602 93.8074L20.6748 91.602C18.7604 89.6732 17.3624 88.5097 17.3624 88.5097C17.3624 88.5097 14.6072 97.2912 15.334 105.609L19.9782 109.405L15.59 107.666C15.7436 108.616 15.9607 109.557 16.2402 110.482C19.0909 119.797 24.6472 126.476 28.6504 125.4C32.6536 124.323 33.588 115.898 30.7373 106.583C29.8536 103.695 28.2319 100.861 26.4155 98.3243L24.1098 101.404Z" fill="#F2F2F2"/>
<path d="M93.5043 29.8495H92.7682V10.943C92.7682 9.50594 92.4662 8.08296 91.8796 6.75529C91.293 5.42763 90.4332 4.22128 89.3493 3.20513C88.2654 2.18898 86.9786 1.38292 85.5625 0.832985C84.1463 0.283048 82.6284 0 81.0955 0H38.3674C35.2717 0 32.3027 1.15292 30.1137 3.20513C27.9246 5.25734 26.6948 8.04073 26.6948 10.943V114.667C26.6948 116.104 26.9967 117.527 27.5833 118.855C28.1699 120.183 29.0297 121.389 30.1137 122.405C31.1976 123.421 32.4843 124.227 33.9005 124.777C35.3167 125.327 36.8346 125.61 38.3674 125.61H81.0955C84.1913 125.61 87.1602 124.457 89.3492 122.405C91.5382 120.353 92.768 117.569 92.768 114.667V43.3075H93.5041L93.5043 29.8495Z" fill="#E6E6E6"/>
<path d="M81.5669 2.84592H75.9899C76.2464 3.43547 76.3443 4.07512 76.275 4.70851C76.2057 5.3419 75.9713 5.94958 75.5924 6.47802C75.2136 7.00646 74.7019 7.43943 74.1025 7.7388C73.5031 8.03817 72.8343 8.19474 72.1551 8.19471H47.6767C46.9976 8.19468 46.3289 8.03807 45.7295 7.73868C45.1301 7.43929 44.6185 7.00631 44.2397 6.47788C43.8609 5.94945 43.6265 5.34179 43.5572 4.70843C43.4879 4.07507 43.5858 3.43545 43.8423 2.84592H38.633C36.3211 2.84592 34.1039 3.70691 32.4692 5.23948C30.8344 6.77205 29.916 8.85066 29.916 11.018V114.592C29.916 116.759 30.8344 118.838 32.4692 120.37C34.1039 121.903 36.3211 122.764 38.633 122.764H81.5669C83.8788 122.764 86.096 121.903 87.7308 120.37C89.3655 118.838 90.2839 116.759 90.2839 114.592V11.0179C90.2839 8.85052 89.3655 6.77195 87.7307 5.23942C86.096 3.70688 83.8788 2.84592 81.5669 2.84592Z" fill="white"/>
<path d="M54.6288 44.1044C54.6286 43.3804 54.8319 42.6692 55.2181 42.0423C55.6044 41.4154 56.16 40.8949 56.829 40.5332C56.1603 40.1712 55.4017 39.9805 54.6296 39.9805C53.8574 39.9804 53.0988 40.1709 52.4301 40.5328C51.7613 40.8947 51.206 41.4153 50.8199 42.0422C50.4337 42.6691 50.2305 43.3802 50.2305 44.1041C50.2305 44.828 50.4337 45.5392 50.8199 46.1661C51.206 46.793 51.7613 47.3136 52.4301 47.6755C53.0988 48.0374 53.8574 48.2279 54.6296 48.2278C55.4017 48.2277 56.1603 48.0371 56.829 47.675C56.16 47.3135 55.6044 46.7931 55.2182 46.1663C54.832 45.5394 54.6287 44.8283 54.6288 44.1044Z" fill="#CCCCCC"/>
<path d="M60.1585 44.1044C60.1584 43.3804 60.3617 42.6692 60.7479 42.0423C61.1341 41.4153 61.6897 40.8949 62.3587 40.5332C61.6901 40.1712 60.9315 39.9805 60.1594 39.9805C59.3872 39.9804 58.6286 40.1709 57.9599 40.5328C57.2911 40.8947 56.7357 41.4153 56.3496 42.0422C55.9635 42.6691 55.7603 43.3802 55.7603 44.1041C55.7603 44.828 55.9635 45.5392 56.3496 46.1661C56.7357 46.793 57.2911 47.3136 57.9599 47.6755C58.6286 48.0374 59.3872 48.2279 60.1594 48.2278C60.9315 48.2277 61.6901 48.0371 62.3587 47.675C61.6898 47.3135 61.1342 46.7931 60.748 46.1663C60.3617 45.5394 60.1584 44.8283 60.1585 44.1044Z" fill="#CCCCCC"/>
<path d="M65.5627 48.2279C67.992 48.2279 69.9613 46.3817 69.9613 44.1042C69.9613 41.8268 67.992 39.9806 65.5627 39.9806C63.1334 39.9806 61.1641 41.8268 61.1641 44.1042C61.1641 46.3817 63.1334 48.2279 65.5627 48.2279Z" fill="#005BAA"/>
<path d="M72.9136 56.9841H47.2775C47.0334 56.9838 46.7995 56.8928 46.6269 56.731C46.4543 56.5692 46.3572 56.3499 46.3569 56.1211V32.0874C46.3572 31.8586 46.4543 31.6392 46.6269 31.4774C46.7995 31.3156 47.0334 31.2246 47.2775 31.2244H72.9136C73.1577 31.2246 73.3916 31.3156 73.5642 31.4774C73.7368 31.6392 73.8339 31.8586 73.8342 32.0874V56.1211C73.8339 56.3499 73.7368 56.5692 73.5642 56.731C73.3916 56.8928 73.1577 56.9838 72.9136 56.9841ZM47.2775 31.5698C47.1311 31.5699 46.9907 31.6245 46.8871 31.7216C46.7836 31.8187 46.7253 31.9503 46.7252 32.0876V56.1212C46.7253 56.2585 46.7836 56.3901 46.8871 56.4872C46.9907 56.5843 47.1311 56.6389 47.2775 56.639H72.9136C73.06 56.6389 73.2004 56.5843 73.304 56.4872C73.4075 56.3901 73.4658 56.2585 73.4659 56.1212V32.0876C73.4658 31.9503 73.4075 31.8187 73.304 31.7216C73.2004 31.6245 73.06 31.5699 72.9136 31.5698H47.2775Z" fill="#CCCCCC"/>
<path d="M78.6379 75.407H39.3198V75.7523H78.6379V75.407Z" fill="#CCCCCC"/>
<path d="M40.5615 73.2516C41.2473 73.2516 41.8032 72.7304 41.8032 72.0875C41.8032 71.4446 41.2473 70.9234 40.5615 70.9234C39.8757 70.9234 39.3198 71.4446 39.3198 72.0875C39.3198 72.7304 39.8757 73.2516 40.5615 73.2516Z" fill="#005BAA"/>
<path d="M78.6379 87.0471H39.3198V87.3923H78.6379V87.0471Z" fill="#CCCCCC"/>
<path d="M40.5615 84.8918C41.2473 84.8918 41.8032 84.3706 41.8032 83.7277C41.8032 83.0848 41.2473 82.5637 40.5615 82.5637C39.8757 82.5637 39.3198 83.0848 39.3198 83.7277C39.3198 84.3706 39.8757 84.8918 40.5615 84.8918Z" fill="#005BAA"/>
<path d="M77.9182 100.302H65.4927C65.278 100.302 65.0723 100.222 64.9205 100.08C64.7687 99.9374 64.6833 99.7445 64.6831 99.5433V95.4604C64.6833 95.2592 64.7687 95.0663 64.9205 94.924C65.0723 94.7817 65.278 94.7017 65.4927 94.7015H77.9182C78.1329 94.7017 78.3387 94.7817 78.4904 94.924C78.6422 95.0663 78.7276 95.2592 78.7278 95.4604V99.5433C78.7276 99.7445 78.6422 99.9374 78.4904 100.08C78.3387 100.222 78.1329 100.302 77.9182 100.302Z" fill="#005BAA"/>
<path d="M44.6118 73.2516C45.2976 73.2516 45.8535 72.7304 45.8535 72.0875C45.8535 71.4446 45.2976 70.9234 44.6118 70.9234C43.926 70.9234 43.3701 71.4446 43.3701 72.0875C43.3701 72.7304 43.926 73.2516 44.6118 73.2516Z" fill="#005BAA"/>
<path d="M48.6621 73.2516C49.3479 73.2516 49.9038 72.7304 49.9038 72.0875C49.9038 71.4446 49.3479 70.9234 48.6621 70.9234C47.9763 70.9234 47.4204 71.4446 47.4204 72.0875C47.4204 72.7304 47.9763 73.2516 48.6621 73.2516Z" fill="#005BAA"/>
<path d="M44.6118 84.8918C45.2976 84.8918 45.8535 84.3706 45.8535 83.7277C45.8535 83.0848 45.2976 82.5637 44.6118 82.5637C43.926 82.5637 43.3701 83.0848 43.3701 83.7277C43.3701 84.3706 43.926 84.8918 44.6118 84.8918Z" fill="#005BAA"/>
<path d="M48.6621 84.8918C49.3479 84.8918 49.9038 84.3706 49.9038 83.7277C49.9038 83.0848 49.3479 82.5637 48.6621 82.5637C47.9763 82.5637 47.4204 83.0848 47.4204 83.7277C47.4204 84.3706 47.9763 84.8918 48.6621 84.8918Z" fill="#005BAA"/>
<path d="M133.5 126H4.33203C4.05552 126 3.83154 125.908 3.83154 125.795C3.83154 125.681 4.05552 125.589 4.33203 125.589H133.5C133.776 125.589 134 125.681 134 125.795C134 125.908 133.776 126 133.5 126Z" fill="#3F3D56"/>
<path d="M101.587 82.5512C101.675 82.5891 101.76 82.6335 101.841 82.684L109.91 79.4554L110.198 77.4627L113.422 77.4442L113.231 82.0145L102.581 84.655C102.559 84.7244 102.532 84.7924 102.501 84.8588C102.347 85.1668 102.099 85.4253 101.789 85.6018C101.479 85.7783 101.12 85.865 100.757 85.8509C100.395 85.8368 100.045 85.7227 99.7511 85.5227C99.4576 85.3228 99.2336 85.0459 99.1073 84.727C98.981 84.4081 98.9581 84.0614 99.0413 83.7303C99.1245 83.3992 99.3103 83.0985 99.5752 82.866C99.8401 82.6336 100.172 82.4797 100.53 82.4237C100.888 82.3677 101.256 82.412 101.587 82.5512Z" fill="#FFB8B8"/>
<path d="M114.594 123.967H112.389L111.339 115.991L114.595 115.991L114.594 123.967Z" fill="#FFB8B8"/>
<path d="M110.813 123.376H115.067V125.887H108.135C108.135 125.221 108.417 124.582 108.92 124.111C109.422 123.64 110.103 123.376 110.813 123.376Z" fill="#2F2E41"/>
<path d="M123.172 123.382L120.977 123.585L119.099 115.745L122.338 115.445L123.172 123.382Z" fill="#FFB8B8"/>
<path d="M119.347 123.142L123.581 122.751L123.843 125.25L116.945 125.887C116.91 125.559 116.945 125.227 117.047 124.912C117.149 124.596 117.317 124.303 117.54 124.048C117.763 123.793 118.037 123.582 118.347 123.426C118.658 123.271 118.997 123.174 119.347 123.142Z" fill="#2F2E41"/>
<path d="M115.208 69.0036C117.648 69.0036 119.627 67.149 119.627 64.8612C119.627 62.5734 117.648 60.7188 115.208 60.7188C112.768 60.7188 110.79 62.5734 110.79 64.8612C110.79 67.149 112.768 69.0036 115.208 69.0036Z" fill="#FFB8B8"/>
<path d="M111.896 122.354C111.706 122.354 111.523 122.292 111.377 122.178C111.232 122.064 111.134 121.905 111.101 121.73C109.96 115.789 106.228 96.3633 106.139 95.8252C106.137 95.8128 106.136 95.8003 106.136 95.7878V94.3394C106.136 94.2866 106.154 94.2352 106.186 94.1923L106.679 93.545C106.703 93.5139 106.734 93.4882 106.769 93.4699C106.805 93.4517 106.845 93.4413 106.885 93.4396C109.696 93.3161 118.9 92.9541 119.344 93.4749C119.791 93.9983 119.633 95.5842 119.597 95.8968L119.599 95.9295L123.734 120.721C123.766 120.919 123.714 121.121 123.589 121.283C123.464 121.445 123.276 121.554 123.066 121.587L120.483 121.986C120.291 122.015 120.094 121.978 119.928 121.883C119.762 121.787 119.638 121.639 119.579 121.465C118.78 119.072 116.102 111.022 115.173 107.907C115.167 107.887 115.154 107.87 115.136 107.859C115.118 107.848 115.096 107.843 115.074 107.846C115.052 107.849 115.033 107.859 115.018 107.874C115.004 107.89 114.997 107.91 114.997 107.93C115.043 110.899 115.155 118.475 115.194 121.092L115.198 121.373C115.2 121.564 115.125 121.749 114.989 121.89C114.852 122.032 114.664 122.121 114.462 122.139L111.971 122.351C111.946 122.353 111.921 122.354 111.896 122.354Z" fill="#2F2E41"/>
<path d="M112.404 70.6324C111.633 71.0621 111.172 71.8519 110.907 72.6555C110.417 74.1432 110.121 75.6814 110.028 77.2361L109.748 81.8911L106.284 94.2317C109.287 96.6133 111.018 96.072 115.06 94.124C119.101 92.1759 119.563 94.7735 119.563 94.7735L120.371 84.2732L121.526 72.799C121.267 72.5064 120.974 72.242 120.652 72.0107C119.584 71.2326 118.343 70.6918 117.02 70.429C115.697 70.1662 114.328 70.1883 113.016 70.4936L112.404 70.6324Z" fill="#005BAA"/>
<path d="M111.279 85.0436C111.372 85.0764 111.462 85.1161 111.549 85.1623L119.527 81.4186L119.66 79.3904L122.951 79.1777L123.127 83.801L112.465 87.1066C112.378 87.4567 112.179 87.7736 111.895 88.0152C111.611 88.2568 111.256 88.4117 110.876 88.4593C110.496 88.5068 110.109 88.4448 109.768 88.2814C109.426 88.118 109.146 87.861 108.964 87.5446C108.782 87.2281 108.707 86.8673 108.749 86.51C108.791 86.1527 108.949 85.816 109.2 85.5445C109.451 85.273 109.785 85.0796 110.156 84.9902C110.527 84.9007 110.919 84.9193 111.279 85.0436Z" fill="#FFB8B8"/>
<path d="M121.468 72.8515C123.431 73.5011 123.777 80.5379 123.777 80.5379C121.468 79.3471 118.696 81.2957 118.696 81.2957C118.696 81.2957 118.119 79.4554 117.426 77.0738C117.217 76.4039 117.192 75.6953 117.354 75.0139C117.515 74.3326 117.858 73.7006 118.35 73.1768C118.35 73.1768 119.505 72.2016 121.468 72.8515Z" fill="#005BAA"/>
<path d="M119.17 65.9566C118.62 65.5437 117.869 66.2943 117.869 66.2943L117.428 62.5781C117.428 62.5781 114.676 62.8873 112.914 62.475C111.152 62.0627 110.877 63.9718 110.877 63.9718C110.786 63.2007 110.768 62.4235 110.822 61.6493C110.932 60.7202 112.363 59.7912 114.896 59.1718C117.428 58.5524 118.749 61.2363 118.749 61.2363C120.511 62.0621 119.721 66.3696 119.17 65.9566Z" fill="#2F2E41"/>
</g>
<defs>
<clipPath id="clip0_118_403">
<rect width="134" height="126" fill="white"/>
</clipPath>
</defs>
</svg>
