<svg width="300" height="300" viewBox="0 0 300 300" fill="none" xmlns="http://www.w3.org/2000/svg">
<mask id="path-1-inside-1_182_771" fill="white">
<path d="M150 0C171.701 -9.48582e-07 193.144 4.70871 212.848 13.8012C232.552 22.8936 250.049 36.1533 264.131 52.665L150 150V0Z"/>
</mask>
<path d="M150 0C171.701 -9.48582e-07 193.144 4.70871 212.848 13.8012C232.552 22.8936 250.049 36.1533 264.131 52.665L150 150V0Z" fill="url(#paint0_linear_182_771)" stroke="#777777" stroke-width="2" mask="url(#path-1-inside-1_182_771)"/>
<mask id="path-2-inside-2_182_771" fill="white">
<path d="M264.131 52.665C280.583 71.956 291.877 95.1024 296.957 119.942C302.038 144.781 300.74 170.503 293.183 194.705C285.627 218.906 272.06 240.798 253.749 258.334C235.438 275.87 212.98 288.479 188.475 294.982L150 150L264.131 52.665Z"/>
</mask>
<path d="M264.131 52.665C280.583 71.956 291.877 95.1024 296.957 119.942C302.038 144.781 300.74 170.503 293.183 194.705C285.627 218.906 272.06 240.798 253.749 258.334C235.438 275.87 212.98 288.479 188.475 294.982L150 150L264.131 52.665Z" fill="url(#paint1_linear_182_771)" stroke="#777777" stroke-width="2" mask="url(#path-2-inside-2_182_771)"/>
<mask id="path-3-inside-3_182_771" fill="white">
<path d="M188.475 294.982C160.423 302.426 130.813 301.572 103.236 292.524C75.6598 283.476 51.3003 266.622 33.1113 244.006C14.9224 221.389 3.68536 193.981 0.762563 165.106C-2.16024 136.23 3.35677 107.127 16.6447 81.3242L150 150L188.475 294.982Z"/>
</mask>
<path d="M188.475 294.982C160.423 302.426 130.813 301.572 103.236 292.524C75.6598 283.476 51.3003 266.622 33.1113 244.006C14.9224 221.389 3.68536 193.981 0.762563 165.106C-2.16024 136.23 3.35677 107.127 16.6447 81.3242L150 150L188.475 294.982Z" fill="url(#paint2_linear_182_771)" stroke="#777777" stroke-width="2" mask="url(#path-3-inside-3_182_771)"/>
<path d="M16.6447 81.3242C29.2596 56.8285 48.3778 36.2806 71.9019 21.9349C95.4259 7.58916 122.447 -3.28569e-07 150 0V150L16.6447 81.3242Z" fill="#8E599B"/>
<path d="M161.17 63.3235C160.862 63.3235 160.624 63.2442 160.456 63.0855C160.297 62.9175 160.218 62.6795 160.218 62.3715V54.4055C160.218 54.0975 160.297 53.8642 160.456 53.7055C160.624 53.5375 160.862 53.4535 161.17 53.4535H164.53C165.221 53.4535 165.809 53.5562 166.294 53.7615C166.779 53.9668 167.148 54.2609 167.4 54.6435C167.661 55.0262 167.792 55.4835 167.792 56.0155C167.792 56.6128 167.619 57.1168 167.274 57.5275C166.929 57.9382 166.457 58.2135 165.86 58.3535V58.1435C166.551 58.2462 167.087 58.5075 167.47 58.9275C167.853 59.3475 168.044 59.8935 168.044 60.5655C168.044 61.4429 167.745 62.1242 167.148 62.6095C166.56 63.0855 165.739 63.3235 164.684 63.3235H161.17ZM161.94 61.9655H164.46C165.095 61.9655 165.561 61.8442 165.86 61.6015C166.159 61.3495 166.308 60.9762 166.308 60.4815C166.308 59.9775 166.159 59.6042 165.86 59.3615C165.561 59.1188 165.095 58.9975 164.46 58.9975H161.94V61.9655ZM161.94 57.6395H164.222C164.838 57.6395 165.295 57.5228 165.594 57.2895C165.902 57.0468 166.056 56.6922 166.056 56.2255C166.056 55.7588 165.902 55.4088 165.594 55.1755C165.295 54.9328 164.838 54.8115 164.222 54.8115H161.94V57.6395ZM172.811 63.4635C172.101 63.4635 171.485 63.3189 170.963 63.0295C170.44 62.7402 170.034 62.3295 169.745 61.7975C169.455 61.2562 169.311 60.6215 169.311 59.8935C169.311 59.3428 169.39 58.8528 169.549 58.4235C169.717 57.9848 169.955 57.6115 170.263 57.3035C170.571 56.9862 170.939 56.7482 171.369 56.5895C171.798 56.4215 172.279 56.3375 172.811 56.3375C173.52 56.3375 174.136 56.4822 174.659 56.7715C175.181 57.0609 175.587 57.4715 175.877 58.0035C176.166 58.5355 176.311 59.1655 176.311 59.8935C176.311 60.4442 176.227 60.9389 176.059 61.3775C175.9 61.8162 175.667 62.1942 175.359 62.5115C175.051 62.8195 174.682 63.0575 174.253 63.2255C173.823 63.3842 173.343 63.4635 172.811 63.4635ZM172.811 62.1335C173.156 62.1335 173.459 62.0495 173.721 61.8815C173.982 61.7135 174.183 61.4662 174.323 61.1395C174.472 60.8035 174.547 60.3882 174.547 59.8935C174.547 59.1468 174.388 58.5915 174.071 58.2275C173.753 57.8542 173.333 57.6675 172.811 57.6675C172.465 57.6675 172.162 57.7515 171.901 57.9195C171.639 58.0782 171.434 58.3255 171.285 58.6615C171.145 58.9882 171.075 59.3989 171.075 59.8935C171.075 60.6309 171.233 61.1909 171.551 61.5735C171.868 61.9469 172.288 62.1335 172.811 62.1335ZM180.093 63.4635C179.318 63.4635 178.735 63.2442 178.343 62.8055C177.951 62.3575 177.755 61.7042 177.755 60.8455V54.2235C177.755 53.9342 177.83 53.7148 177.979 53.5655C178.128 53.4162 178.343 53.3415 178.623 53.3415C178.903 53.3415 179.118 53.4162 179.267 53.5655C179.426 53.7148 179.505 53.9342 179.505 54.2235V60.7615C179.505 61.1909 179.594 61.5082 179.771 61.7135C179.958 61.9189 180.219 62.0215 180.555 62.0215C180.63 62.0215 180.7 62.0215 180.765 62.0215C180.83 62.0122 180.896 62.0029 180.961 61.9935C181.092 61.9749 181.18 62.0122 181.227 62.1055C181.274 62.1895 181.297 62.3669 181.297 62.6375C181.297 62.8709 181.25 63.0529 181.157 63.1835C181.064 63.3142 180.91 63.3935 180.695 63.4215C180.602 63.4309 180.504 63.4402 180.401 63.4495C180.298 63.4589 180.196 63.4635 180.093 63.4635ZM184.663 63.4635C184.262 63.4635 183.837 63.4215 183.389 63.3375C182.941 63.2535 182.54 63.1089 182.185 62.9035C182.036 62.8102 181.929 62.7029 181.863 62.5815C181.807 62.4509 181.784 62.3249 181.793 62.2035C181.812 62.0729 181.859 61.9609 181.933 61.8675C182.017 61.7742 182.12 61.7135 182.241 61.6855C182.372 61.6575 182.512 61.6809 182.661 61.7555C183.035 61.9329 183.385 62.0589 183.711 62.1335C184.038 62.1989 184.36 62.2315 184.677 62.2315C185.125 62.2315 185.457 62.1569 185.671 62.0075C185.895 61.8489 186.007 61.6435 186.007 61.3915C186.007 61.1769 185.933 61.0135 185.783 60.9015C185.643 60.7802 185.429 60.6915 185.139 60.6355L183.739 60.3695C183.161 60.2575 182.717 60.0475 182.409 59.7395C182.111 59.4222 181.961 59.0162 181.961 58.5215C181.961 58.0735 182.083 57.6862 182.325 57.3595C182.577 57.0328 182.923 56.7808 183.361 56.6035C183.8 56.4262 184.304 56.3375 184.873 56.3375C185.284 56.3375 185.667 56.3842 186.021 56.4775C186.385 56.5615 186.735 56.6968 187.071 56.8835C187.211 56.9582 187.305 57.0562 187.351 57.1775C187.407 57.2988 187.421 57.4248 187.393 57.5555C187.365 57.6768 187.309 57.7888 187.225 57.8915C187.141 57.9848 187.034 58.0455 186.903 58.0735C186.782 58.0922 186.642 58.0642 186.483 57.9895C186.194 57.8402 185.914 57.7328 185.643 57.6675C185.382 57.6022 185.13 57.5695 184.887 57.5695C184.43 57.5695 184.089 57.6488 183.865 57.8075C183.651 57.9662 183.543 58.1762 183.543 58.4375C183.543 58.6335 183.609 58.7969 183.739 58.9275C183.87 59.0582 184.071 59.1468 184.341 59.1935L185.741 59.4595C186.348 59.5715 186.805 59.7769 187.113 60.0755C187.431 60.3742 187.589 60.7755 187.589 61.2795C187.589 61.9609 187.323 62.4975 186.791 62.8895C186.259 63.2722 185.55 63.4635 184.663 63.4635ZM191.247 63.4635C190.753 63.4635 190.309 63.3702 189.917 63.1835C189.535 62.9875 189.231 62.7262 189.007 62.3995C188.793 62.0729 188.685 61.7042 188.685 61.2935C188.685 60.7895 188.816 60.3929 189.077 60.1035C189.339 59.8048 189.763 59.5902 190.351 59.4595C190.939 59.3288 191.728 59.2635 192.717 59.2635H193.417V60.2715H192.731C192.153 60.2715 191.691 60.2995 191.345 60.3555C191 60.4115 190.753 60.5095 190.603 60.6495C190.463 60.7802 190.393 60.9669 190.393 61.2095C190.393 61.5175 190.501 61.7695 190.715 61.9655C190.93 62.1615 191.229 62.2595 191.611 62.2595C191.919 62.2595 192.19 62.1895 192.423 62.0495C192.666 61.9002 192.857 61.6995 192.997 61.4475C193.137 61.1955 193.207 60.9062 193.207 60.5795V58.9695C193.207 58.5028 193.105 58.1668 192.899 57.9615C192.694 57.7562 192.349 57.6535 191.863 57.6535C191.593 57.6535 191.299 57.6862 190.981 57.7515C190.673 57.8168 190.347 57.9288 190.001 58.0875C189.824 58.1715 189.665 58.1949 189.525 58.1575C189.395 58.1202 189.292 58.0455 189.217 57.9335C189.143 57.8122 189.105 57.6815 189.105 57.5415C189.105 57.4015 189.143 57.2662 189.217 57.1355C189.292 56.9955 189.418 56.8928 189.595 56.8275C190.025 56.6502 190.435 56.5242 190.827 56.4495C191.229 56.3748 191.593 56.3375 191.919 56.3375C192.591 56.3375 193.142 56.4402 193.571 56.6455C194.01 56.8508 194.337 57.1635 194.551 57.5835C194.766 57.9942 194.873 58.5262 194.873 59.1795V62.5395C194.873 62.8289 194.803 63.0529 194.663 63.2115C194.523 63.3609 194.323 63.4355 194.061 63.4355C193.8 63.4355 193.595 63.3609 193.445 63.2115C193.305 63.0529 193.235 62.8289 193.235 62.5395V61.8675H193.347C193.282 62.1942 193.151 62.4789 192.955 62.7215C192.769 62.9549 192.531 63.1369 192.241 63.2675C191.952 63.3982 191.621 63.4635 191.247 63.4635ZM203.082 63.4635C202.485 63.4635 201.958 63.3189 201.5 63.0295C201.052 62.7402 200.702 62.3295 200.45 61.7975C200.198 61.2562 200.072 60.6215 200.072 59.8935C200.072 59.1562 200.198 58.5262 200.45 58.0035C200.702 57.4715 201.052 57.0609 201.5 56.7715C201.958 56.4822 202.485 56.3375 203.082 56.3375C203.652 56.3375 204.146 56.4775 204.566 56.7575C204.996 57.0375 205.285 57.4062 205.434 57.8635H205.28V54.2235C205.28 53.9342 205.355 53.7148 205.504 53.5655C205.654 53.4162 205.868 53.3415 206.148 53.3415C206.428 53.3415 206.643 53.4162 206.792 53.5655C206.951 53.7148 207.03 53.9342 207.03 54.2235V62.5395C207.03 62.8289 206.956 63.0529 206.806 63.2115C206.657 63.3609 206.442 63.4355 206.162 63.4355C205.882 63.4355 205.668 63.3609 205.518 63.2115C205.369 63.0529 205.294 62.8289 205.294 62.5395V61.4475L205.448 61.8675C205.308 62.3529 205.024 62.7402 204.594 63.0295C204.165 63.3189 203.661 63.4635 203.082 63.4635ZM203.572 62.1335C203.918 62.1335 204.221 62.0495 204.482 61.8815C204.744 61.7135 204.944 61.4662 205.084 61.1395C205.234 60.8035 205.308 60.3882 205.308 59.8935C205.308 59.1468 205.15 58.5915 204.832 58.2275C204.515 57.8542 204.095 57.6675 203.572 57.6675C203.227 57.6675 202.924 57.7515 202.662 57.9195C202.401 58.0782 202.196 58.3255 202.046 58.6615C201.906 58.9882 201.836 59.3989 201.836 59.8935C201.836 60.6309 201.995 61.1909 202.312 61.5735C202.63 61.9469 203.05 62.1335 203.572 62.1335ZM212.219 63.4635C211.444 63.4635 210.777 63.3189 210.217 63.0295C209.657 62.7402 209.223 62.3295 208.915 61.7975C208.616 61.2655 208.467 60.6355 208.467 59.9075C208.467 59.1982 208.612 58.5775 208.901 58.0455C209.2 57.5135 209.606 57.0982 210.119 56.7995C210.642 56.4915 211.234 56.3375 211.897 56.3375C212.382 56.3375 212.816 56.4168 213.199 56.5755C213.591 56.7342 213.922 56.9628 214.193 57.2615C214.473 57.5602 214.683 57.9242 214.823 58.3535C214.972 58.7735 215.047 59.2495 215.047 59.7815C215.047 59.9495 214.986 60.0802 214.865 60.1735C214.753 60.2575 214.59 60.2995 214.375 60.2995H209.881V59.2915H213.815L213.591 59.5015C213.591 59.0722 213.526 58.7129 213.395 58.4235C213.274 58.1342 213.092 57.9148 212.849 57.7655C212.616 57.6068 212.322 57.5275 211.967 57.5275C211.575 57.5275 211.239 57.6208 210.959 57.8075C210.688 57.9848 210.478 58.2415 210.329 58.5775C210.189 58.9042 210.119 59.2962 210.119 59.7535V59.8515C210.119 60.6169 210.296 61.1909 210.651 61.5735C211.015 61.9469 211.547 62.1335 212.247 62.1335C212.49 62.1335 212.76 62.1055 213.059 62.0495C213.367 61.9842 213.656 61.8769 213.927 61.7275C214.123 61.6155 214.296 61.5689 214.445 61.5875C214.594 61.5969 214.711 61.6482 214.795 61.7415C214.888 61.8349 214.944 61.9515 214.963 62.0915C214.982 62.2222 214.954 62.3575 214.879 62.4975C214.814 62.6375 214.697 62.7589 214.529 62.8615C214.202 63.0669 213.824 63.2209 213.395 63.3235C212.975 63.4169 212.583 63.4635 212.219 63.4635ZM167.429 81.4355C167.196 81.4355 166.991 81.3749 166.813 81.2535C166.645 81.1322 166.505 80.9455 166.393 80.6935L164.167 75.5275C164.083 75.3222 164.051 75.1308 164.069 74.9535C164.097 74.7762 164.181 74.6362 164.321 74.5335C164.471 74.4215 164.671 74.3655 164.923 74.3655C165.138 74.3655 165.311 74.4168 165.441 74.5195C165.572 74.6128 165.689 74.7948 165.791 75.0655L167.681 79.7835H167.261L169.207 75.0515C169.31 74.7902 169.427 74.6128 169.557 74.5195C169.697 74.4168 169.884 74.3655 170.117 74.3655C170.323 74.3655 170.486 74.4215 170.607 74.5335C170.729 74.6362 170.803 74.7762 170.831 74.9535C170.859 75.1215 170.827 75.3082 170.733 75.5135L168.465 80.6935C168.363 80.9455 168.223 81.1322 168.045 81.2535C167.877 81.3749 167.672 81.4355 167.429 81.4355ZM174.158 81.4635C173.663 81.4635 173.22 81.3702 172.828 81.1835C172.445 80.9875 172.142 80.7262 171.918 80.3995C171.703 80.0729 171.596 79.7042 171.596 79.2935C171.596 78.7895 171.726 78.3929 171.988 78.1035C172.249 77.8048 172.674 77.5902 173.262 77.4595C173.85 77.3288 174.638 77.2635 175.628 77.2635H176.328V78.2715H175.642C175.063 78.2715 174.601 78.2995 174.256 78.3555C173.91 78.4115 173.663 78.5095 173.514 78.6495C173.374 78.7802 173.304 78.9669 173.304 79.2095C173.304 79.5175 173.411 79.7695 173.626 79.9655C173.84 80.1615 174.139 80.2595 174.522 80.2595C174.83 80.2595 175.1 80.1895 175.334 80.0495C175.576 79.9002 175.768 79.6995 175.908 79.4475C176.048 79.1955 176.118 78.9062 176.118 78.5795V76.9695C176.118 76.5028 176.015 76.1668 175.81 75.9615C175.604 75.7562 175.259 75.6535 174.774 75.6535C174.503 75.6535 174.209 75.6862 173.892 75.7515C173.584 75.8168 173.257 75.9288 172.912 76.0875C172.734 76.1715 172.576 76.1949 172.436 76.1575C172.305 76.1202 172.202 76.0455 172.128 75.9335C172.053 75.8122 172.016 75.6815 172.016 75.5415C172.016 75.4015 172.053 75.2662 172.128 75.1355C172.202 74.9955 172.328 74.8928 172.506 74.8275C172.935 74.6502 173.346 74.5242 173.738 74.4495C174.139 74.3748 174.503 74.3375 174.83 74.3375C175.502 74.3375 176.052 74.4402 176.482 74.6455C176.92 74.8508 177.247 75.1635 177.462 75.5835C177.676 75.9942 177.784 76.5262 177.784 77.1795V80.5395C177.784 80.8289 177.714 81.0529 177.574 81.2115C177.434 81.3609 177.233 81.4355 176.972 81.4355C176.71 81.4355 176.505 81.3609 176.356 81.2115C176.216 81.0529 176.146 80.8289 176.146 80.5395V79.8675H176.258C176.192 80.1942 176.062 80.4789 175.866 80.7215C175.679 80.9549 175.441 81.1369 175.152 81.2675C174.862 81.3982 174.531 81.4635 174.158 81.4635ZM181.898 81.4635C181.123 81.4635 180.54 81.2442 180.148 80.8055C179.756 80.3575 179.56 79.7042 179.56 78.8455V72.2235C179.56 71.9342 179.634 71.7148 179.784 71.5655C179.933 71.4162 180.148 71.3415 180.428 71.3415C180.708 71.3415 180.922 71.4162 181.072 71.5655C181.23 71.7148 181.31 71.9342 181.31 72.2235V78.7615C181.31 79.1909 181.398 79.5082 181.576 79.7135C181.762 79.9189 182.024 80.0215 182.36 80.0215C182.434 80.0215 182.504 80.0215 182.57 80.0215C182.635 80.0122 182.7 80.0029 182.766 79.9935C182.896 79.9749 182.985 80.0122 183.032 80.1055C183.078 80.1895 183.102 80.3669 183.102 80.6375C183.102 80.8709 183.055 81.0529 182.962 81.1835C182.868 81.3142 182.714 81.3935 182.5 81.4215C182.406 81.4309 182.308 81.4402 182.206 81.4495C182.103 81.4589 182 81.4635 181.898 81.4635ZM187.084 81.4635C186.375 81.4635 185.759 81.3189 185.236 81.0295C184.713 80.7402 184.307 80.3295 184.018 79.7975C183.729 79.2562 183.584 78.6215 183.584 77.8935C183.584 77.3428 183.663 76.8528 183.822 76.4235C183.99 75.9848 184.228 75.6115 184.536 75.3035C184.844 74.9862 185.213 74.7482 185.642 74.5895C186.071 74.4215 186.552 74.3375 187.084 74.3375C187.793 74.3375 188.409 74.4822 188.932 74.7715C189.455 75.0609 189.861 75.4715 190.15 76.0035C190.439 76.5355 190.584 77.1655 190.584 77.8935C190.584 78.4442 190.5 78.9389 190.332 79.3775C190.173 79.8162 189.94 80.1942 189.632 80.5115C189.324 80.8195 188.955 81.0575 188.526 81.2255C188.097 81.3842 187.616 81.4635 187.084 81.4635ZM187.084 80.1335C187.429 80.1335 187.733 80.0495 187.994 79.8815C188.255 79.7135 188.456 79.4662 188.596 79.1395C188.745 78.8035 188.82 78.3882 188.82 77.8935C188.82 77.1468 188.661 76.5915 188.344 76.2275C188.027 75.8542 187.607 75.6675 187.084 75.6675C186.739 75.6675 186.435 75.7515 186.174 75.9195C185.913 76.0782 185.707 76.3255 185.558 76.6615C185.418 76.9882 185.348 77.3989 185.348 77.8935C185.348 78.6309 185.507 79.1909 185.824 79.5735C186.141 79.9469 186.561 80.1335 187.084 80.1335ZM192.925 81.4355C192.635 81.4355 192.411 81.3609 192.253 81.2115C192.103 81.0529 192.029 80.8289 192.029 80.5395V75.2475C192.029 74.9582 192.103 74.7388 192.253 74.5895C192.402 74.4402 192.612 74.3655 192.883 74.3655C193.153 74.3655 193.363 74.4402 193.513 74.5895C193.662 74.7388 193.737 74.9582 193.737 75.2475V76.1295H193.597C193.727 75.5695 193.984 75.1448 194.367 74.8555C194.749 74.5662 195.258 74.3935 195.893 74.3375C196.089 74.3188 196.243 74.3702 196.355 74.4915C196.476 74.6035 196.546 74.7808 196.565 75.0235C196.583 75.2568 196.527 75.4482 196.397 75.5975C196.275 75.7375 196.089 75.8215 195.837 75.8495L195.529 75.8775C194.959 75.9335 194.53 76.1108 194.241 76.4095C193.951 76.6988 193.807 77.1095 193.807 77.6415V80.5395C193.807 80.8289 193.732 81.0529 193.583 81.2115C193.433 81.3609 193.214 81.4355 192.925 81.4355ZM200.776 81.4635C200.001 81.4635 199.334 81.3189 198.774 81.0295C198.214 80.7402 197.78 80.3295 197.472 79.7975C197.173 79.2655 197.024 78.6355 197.024 77.9075C197.024 77.1982 197.168 76.5775 197.458 76.0455C197.756 75.5135 198.162 75.0982 198.676 74.7995C199.198 74.4915 199.791 74.3375 200.454 74.3375C200.939 74.3375 201.373 74.4168 201.756 74.5755C202.148 74.7342 202.479 74.9628 202.75 75.2615C203.03 75.5602 203.24 75.9242 203.38 76.3535C203.529 76.7735 203.604 77.2495 203.604 77.7815C203.604 77.9495 203.543 78.0802 203.422 78.1735C203.31 78.2575 203.146 78.2995 202.932 78.2995H198.438V77.2915H202.372L202.148 77.5015C202.148 77.0722 202.082 76.7129 201.952 76.4235C201.83 76.1342 201.648 75.9148 201.406 75.7655C201.172 75.6068 200.878 75.5275 200.524 75.5275C200.132 75.5275 199.796 75.6208 199.516 75.8075C199.245 75.9848 199.035 76.2415 198.886 76.5775C198.746 76.9042 198.676 77.2962 198.676 77.7535V77.8515C198.676 78.6169 198.853 79.1909 199.208 79.5735C199.572 79.9469 200.104 80.1335 200.804 80.1335C201.046 80.1335 201.317 80.1055 201.616 80.0495C201.924 79.9842 202.213 79.8769 202.484 79.7275C202.68 79.6155 202.852 79.5689 203.002 79.5875C203.151 79.5969 203.268 79.6482 203.352 79.7415C203.445 79.8349 203.501 79.9515 203.52 80.0915C203.538 80.2222 203.51 80.3575 203.436 80.4975C203.37 80.6375 203.254 80.7589 203.086 80.8615C202.759 81.0669 202.381 81.2209 201.952 81.3235C201.532 81.4169 201.14 81.4635 200.776 81.4635ZM207.495 81.4635C207.094 81.4635 206.669 81.4215 206.221 81.3375C205.773 81.2535 205.372 81.1089 205.017 80.9035C204.868 80.8102 204.761 80.7029 204.695 80.5815C204.639 80.4509 204.616 80.3249 204.625 80.2035C204.644 80.0729 204.691 79.9609 204.765 79.8675C204.849 79.7742 204.952 79.7135 205.073 79.6855C205.204 79.6575 205.344 79.6809 205.493 79.7555C205.867 79.9329 206.217 80.0589 206.543 80.1335C206.87 80.1989 207.192 80.2315 207.509 80.2315C207.957 80.2315 208.289 80.1569 208.503 80.0075C208.727 79.8489 208.839 79.6435 208.839 79.3915C208.839 79.1769 208.765 79.0135 208.615 78.9015C208.475 78.7802 208.261 78.6915 207.971 78.6355L206.571 78.3695C205.993 78.2575 205.549 78.0475 205.241 77.7395C204.943 77.4222 204.793 77.0162 204.793 76.5215C204.793 76.0735 204.915 75.6862 205.157 75.3595C205.409 75.0328 205.755 74.7808 206.193 74.6035C206.632 74.4262 207.136 74.3375 207.705 74.3375C208.116 74.3375 208.499 74.3842 208.853 74.4775C209.217 74.5615 209.567 74.6968 209.903 74.8835C210.043 74.9582 210.137 75.0562 210.183 75.1775C210.239 75.2988 210.253 75.4248 210.225 75.5555C210.197 75.6768 210.141 75.7888 210.057 75.8915C209.973 75.9848 209.866 76.0455 209.735 76.0735C209.614 76.0922 209.474 76.0642 209.315 75.9895C209.026 75.8402 208.746 75.7328 208.475 75.6675C208.214 75.6022 207.962 75.5695 207.719 75.5695C207.262 75.5695 206.921 75.6488 206.697 75.8075C206.483 75.9662 206.375 76.1762 206.375 76.4375C206.375 76.6335 206.441 76.7969 206.571 76.9275C206.702 77.0582 206.903 77.1468 207.173 77.1935L208.573 77.4595C209.18 77.5715 209.637 77.7769 209.945 78.0755C210.263 78.3742 210.421 78.7755 210.421 79.2795C210.421 79.9609 210.155 80.4975 209.623 80.8895C209.091 81.2722 208.382 81.4635 207.495 81.4635Z" fill="white"/>
<path d="M217.85 187.112C217.561 187.112 217.337 187.033 217.178 186.874C217.029 186.706 216.954 186.477 216.954 186.188V177.942C216.954 177.643 217.029 177.415 217.178 177.256C217.337 177.097 217.561 177.018 217.85 177.018C218.139 177.018 218.359 177.097 218.508 177.256C218.667 177.415 218.746 177.643 218.746 177.942V186.188C218.746 186.477 218.671 186.706 218.522 186.874C218.373 187.033 218.149 187.112 217.85 187.112ZM221.801 187.112C221.512 187.112 221.288 187.033 221.129 186.874C220.98 186.706 220.905 186.477 220.905 186.188V178.04C220.905 177.741 220.984 177.517 221.143 177.368C221.302 177.209 221.526 177.13 221.815 177.13H225.189C226.272 177.13 227.107 177.401 227.695 177.942C228.283 178.483 228.577 179.239 228.577 180.21C228.577 181.181 228.283 181.941 227.695 182.492C227.107 183.033 226.272 183.304 225.189 183.304H222.697V186.188C222.697 186.477 222.622 186.706 222.473 186.874C222.324 187.033 222.1 187.112 221.801 187.112ZM222.697 181.89H224.909C225.544 181.89 226.024 181.75 226.351 181.47C226.678 181.181 226.841 180.761 226.841 180.21C226.841 179.659 226.678 179.244 226.351 178.964C226.024 178.684 225.544 178.544 224.909 178.544H222.697V181.89ZM234.394 187.14C233.442 187.14 232.606 186.93 231.888 186.51C231.178 186.09 230.628 185.502 230.236 184.746C229.844 183.981 229.648 183.085 229.648 182.058C229.648 181.283 229.76 180.588 229.984 179.972C230.208 179.347 230.525 178.815 230.936 178.376C231.356 177.928 231.855 177.587 232.434 177.354C233.022 177.111 233.675 176.99 234.394 176.99C235.355 176.99 236.19 177.2 236.9 177.62C237.609 178.031 238.16 178.614 238.552 179.37C238.944 180.126 239.14 181.017 239.14 182.044C239.14 182.819 239.028 183.519 238.804 184.144C238.58 184.769 238.258 185.306 237.838 185.754C237.427 186.202 236.928 186.547 236.34 186.79C235.761 187.023 235.112 187.14 234.394 187.14ZM234.394 185.6C235 185.6 235.514 185.46 235.934 185.18C236.363 184.9 236.69 184.494 236.914 183.962C237.147 183.43 237.264 182.795 237.264 182.058C237.264 180.938 237.012 180.07 236.508 179.454C236.013 178.838 235.308 178.53 234.394 178.53C233.796 178.53 233.283 178.67 232.854 178.95C232.424 179.221 232.093 179.622 231.86 180.154C231.636 180.677 231.524 181.311 231.524 182.058C231.524 183.169 231.776 184.037 232.28 184.662C232.784 185.287 233.488 185.6 234.394 185.6ZM241.592 181.302C241.424 181.302 241.274 181.241 241.144 181.12C241.022 180.999 240.952 180.835 240.934 180.63L240.668 178.04C240.64 177.751 240.714 177.508 240.892 177.312C241.069 177.116 241.302 177.018 241.592 177.018C241.778 177.018 241.942 177.065 242.082 177.158C242.231 177.242 242.343 177.363 242.418 177.522C242.492 177.671 242.52 177.844 242.502 178.04L242.236 180.63C242.217 180.835 242.147 180.999 242.026 181.12C241.914 181.241 241.769 181.302 241.592 181.302ZM246.704 187.14C246.303 187.14 245.878 187.098 245.43 187.014C244.982 186.93 244.581 186.785 244.226 186.58C244.077 186.487 243.969 186.379 243.904 186.258C243.848 186.127 243.825 186.001 243.834 185.88C243.853 185.749 243.899 185.637 243.974 185.544C244.058 185.451 244.161 185.39 244.282 185.362C244.413 185.334 244.553 185.357 244.702 185.432C245.075 185.609 245.425 185.735 245.752 185.81C246.079 185.875 246.401 185.908 246.718 185.908C247.166 185.908 247.497 185.833 247.712 185.684C247.936 185.525 248.048 185.32 248.048 185.068C248.048 184.853 247.973 184.69 247.824 184.578C247.684 184.457 247.469 184.368 247.18 184.312L245.78 184.046C245.201 183.934 244.758 183.724 244.45 183.416C244.151 183.099 244.002 182.693 244.002 182.198C244.002 181.75 244.123 181.363 244.366 181.036C244.618 180.709 244.963 180.457 245.402 180.28C245.841 180.103 246.345 180.014 246.914 180.014C247.325 180.014 247.707 180.061 248.062 180.154C248.426 180.238 248.776 180.373 249.112 180.56C249.252 180.635 249.345 180.733 249.392 180.854C249.448 180.975 249.462 181.101 249.434 181.232C249.406 181.353 249.35 181.465 249.266 181.568C249.182 181.661 249.075 181.722 248.944 181.75C248.823 181.769 248.683 181.741 248.524 181.666C248.235 181.517 247.955 181.409 247.684 181.344C247.423 181.279 247.171 181.246 246.928 181.246C246.471 181.246 246.13 181.325 245.906 181.484C245.691 181.643 245.584 181.853 245.584 182.114C245.584 182.31 245.649 182.473 245.78 182.604C245.911 182.735 246.111 182.823 246.382 182.87L247.782 183.136C248.389 183.248 248.846 183.453 249.154 183.752C249.471 184.051 249.63 184.452 249.63 184.956C249.63 185.637 249.364 186.174 248.832 186.566C248.3 186.949 247.591 187.14 246.704 187.14Z" fill="white"/>
<path d="M69.5227 211.112C69.2987 211.112 69.1167 211.061 68.9767 210.958C68.846 210.855 68.7667 210.72 68.7387 210.552C68.7107 210.375 68.7433 210.179 68.8367 209.964L72.5327 201.774C72.654 201.503 72.7987 201.312 72.9667 201.2C73.144 201.079 73.3447 201.018 73.5687 201.018C73.7833 201.018 73.9747 201.079 74.1427 201.2C74.32 201.312 74.4693 201.503 74.5907 201.774L78.3007 209.964C78.4033 210.179 78.4407 210.375 78.4127 210.552C78.3847 210.729 78.3053 210.869 78.1747 210.972C78.044 211.065 77.8713 211.112 77.6567 211.112C77.3953 211.112 77.19 211.051 77.0407 210.93C76.9007 210.799 76.7747 210.603 76.6627 210.342L75.7527 208.228L76.5087 208.718H70.6007L71.3567 208.228L70.4607 210.342C70.3393 210.613 70.2133 210.809 70.0827 210.93C69.952 211.051 69.7653 211.112 69.5227 211.112ZM73.5407 203.076L71.5807 207.738L71.2167 207.29H75.8927L75.5427 207.738L73.5687 203.076H73.5407ZM82.7703 211.14C82.0516 211.14 81.4263 210.995 80.8943 210.706C80.3623 210.407 79.9516 209.987 79.6623 209.446C79.373 208.905 79.2283 208.27 79.2283 207.542C79.2283 206.991 79.3076 206.501 79.4663 206.072C79.6343 205.633 79.8723 205.265 80.1803 204.966C80.4883 204.658 80.8616 204.425 81.3003 204.266C81.739 204.098 82.229 204.014 82.7703 204.014C83.0783 204.014 83.4096 204.056 83.7643 204.14C84.1283 204.224 84.469 204.364 84.7863 204.56C84.9356 204.653 85.0336 204.765 85.0803 204.896C85.127 205.027 85.1363 205.162 85.1083 205.302C85.0803 205.433 85.0196 205.549 84.9263 205.652C84.8423 205.745 84.735 205.806 84.6043 205.834C84.4736 205.853 84.329 205.82 84.1703 205.736C83.965 205.615 83.755 205.526 83.5403 205.47C83.3256 205.405 83.1203 205.372 82.9243 205.372C82.6163 205.372 82.3456 205.423 82.1123 205.526C81.879 205.619 81.6783 205.759 81.5103 205.946C81.3516 206.123 81.2303 206.347 81.1463 206.618C81.0623 206.889 81.0203 207.201 81.0203 207.556C81.0203 208.247 81.1836 208.793 81.5103 209.194C81.8463 209.586 82.3176 209.782 82.9243 209.782C83.1203 209.782 83.321 209.754 83.5263 209.698C83.741 209.642 83.9556 209.553 84.1703 209.432C84.329 209.348 84.469 209.32 84.5903 209.348C84.721 209.376 84.8283 209.441 84.9123 209.544C84.9963 209.637 85.0476 209.754 85.0663 209.894C85.085 210.025 85.0663 210.155 85.0103 210.286C84.9636 210.417 84.8703 210.524 84.7303 210.608C84.4223 210.795 84.0956 210.93 83.7503 211.014C83.405 211.098 83.0783 211.14 82.7703 211.14ZM82.6863 213.73C82.509 213.73 82.3223 213.716 82.1263 213.688C81.9303 213.669 81.753 213.632 81.5943 213.576C81.4543 213.529 81.3563 213.45 81.3003 213.338C81.2536 213.235 81.2443 213.128 81.2723 213.016C81.3096 212.913 81.375 212.834 81.4683 212.778C81.571 212.722 81.6923 212.722 81.8323 212.778C81.9536 212.815 82.0703 212.843 82.1823 212.862C82.2943 212.881 82.4156 212.89 82.5463 212.89C82.789 212.89 82.9756 212.853 83.1063 212.778C83.237 212.713 83.3023 212.61 83.3023 212.47C83.3023 212.367 83.2603 212.288 83.1763 212.232C83.1016 212.176 82.971 212.148 82.7843 212.148C82.719 212.148 82.649 212.148 82.5743 212.148C82.509 212.157 82.439 212.171 82.3643 212.19C82.299 212.209 82.2383 212.213 82.1823 212.204C82.1356 212.204 82.089 212.185 82.0423 212.148C82.005 212.111 81.9816 212.064 81.9723 212.008C81.963 211.952 81.963 211.877 81.9723 211.784L82.1263 210.72H83.0643L82.8823 211.784L82.4343 211.63C82.5463 211.593 82.6583 211.565 82.7703 211.546C82.8823 211.527 82.985 211.518 83.0783 211.518C83.461 211.518 83.769 211.607 84.0023 211.784C84.2356 211.961 84.3523 212.209 84.3523 212.526C84.3523 212.89 84.1983 213.179 83.8903 213.394C83.5823 213.618 83.181 213.73 82.6863 213.73ZM89.1951 211.14C88.4858 211.14 87.8698 210.995 87.3471 210.706C86.8244 210.417 86.4184 210.006 86.1291 209.474C85.8398 208.933 85.6951 208.298 85.6951 207.57C85.6951 207.019 85.7744 206.529 85.9331 206.1C86.1011 205.661 86.3391 205.288 86.6471 204.98C86.9551 204.663 87.3238 204.425 87.7531 204.266C88.1824 204.098 88.6631 204.014 89.1951 204.014C89.9044 204.014 90.5204 204.159 91.0431 204.448C91.5658 204.737 91.9718 205.148 92.2611 205.68C92.5504 206.212 92.6951 206.842 92.6951 207.57C92.6951 208.121 92.6111 208.615 92.4431 209.054C92.2844 209.493 92.0511 209.871 91.7431 210.188C91.4351 210.496 91.0664 210.734 90.6371 210.902C90.2078 211.061 89.7271 211.14 89.1951 211.14ZM89.1951 209.81C89.5404 209.81 89.8438 209.726 90.1051 209.558C90.3664 209.39 90.5671 209.143 90.7071 208.816C90.8564 208.48 90.9311 208.065 90.9311 207.57C90.9311 206.823 90.7724 206.268 90.4551 205.904C90.1378 205.531 89.7178 205.344 89.1951 205.344C88.8498 205.344 88.5464 205.428 88.2851 205.596C88.0238 205.755 87.8184 206.002 87.6691 206.338C87.5291 206.665 87.4591 207.075 87.4591 207.57C87.4591 208.307 87.6178 208.867 87.9351 209.25C88.2524 209.623 88.6724 209.81 89.1951 209.81ZM86.9131 202.866C86.7731 202.857 86.6658 202.81 86.5911 202.726C86.5164 202.642 86.4978 202.511 86.5351 202.334C86.5724 202.138 86.6284 201.947 86.7031 201.76C86.7871 201.564 86.8944 201.387 87.0251 201.228C87.1558 201.069 87.3144 200.943 87.5011 200.85C87.6878 200.747 87.9071 200.696 88.1591 200.696C88.3924 200.696 88.5978 200.743 88.7751 200.836C88.9524 200.929 89.1158 201.037 89.2651 201.158C89.4144 201.279 89.5638 201.387 89.7131 201.48C89.8624 201.573 90.0258 201.62 90.2031 201.62C90.3991 201.62 90.5671 201.555 90.7071 201.424C90.8564 201.284 90.9498 201.111 90.9871 200.906C91.0058 200.803 91.0524 200.724 91.1271 200.668C91.2111 200.612 91.3278 200.589 91.4771 200.598C91.6171 200.607 91.7244 200.654 91.7991 200.738C91.8738 200.822 91.8924 200.953 91.8551 201.13C91.8084 201.382 91.7198 201.634 91.5891 201.886C91.4584 202.138 91.2811 202.348 91.0571 202.516C90.8424 202.684 90.5671 202.768 90.2311 202.768C89.9978 202.768 89.7924 202.721 89.6151 202.628C89.4378 202.535 89.2698 202.427 89.1111 202.306C88.9618 202.185 88.8124 202.077 88.6631 201.984C88.5138 201.891 88.3551 201.844 88.1871 201.844C87.9911 201.844 87.8231 201.909 87.6831 202.04C87.5431 202.171 87.4498 202.343 87.4031 202.558C87.3844 202.661 87.3331 202.74 87.2491 202.796C87.1744 202.852 87.0624 202.875 86.9131 202.866ZM97.5135 211.14C96.7388 211.14 96.0715 210.995 95.5115 210.706C94.9515 210.417 94.5175 210.006 94.2095 209.474C93.9108 208.942 93.7615 208.312 93.7615 207.584C93.7615 206.875 93.9062 206.254 94.1955 205.722C94.4942 205.19 94.9002 204.775 95.4135 204.476C95.9362 204.168 96.5288 204.014 97.1915 204.014C97.6768 204.014 98.1108 204.093 98.4935 204.252C98.8855 204.411 99.2168 204.639 99.4875 204.938C99.7675 205.237 99.9775 205.601 100.117 206.03C100.267 206.45 100.341 206.926 100.341 207.458C100.341 207.626 100.281 207.757 100.159 207.85C100.047 207.934 99.8842 207.976 99.6695 207.976H95.1755V206.968H99.1095L98.8855 207.178C98.8855 206.749 98.8202 206.389 98.6895 206.1C98.5682 205.811 98.3862 205.591 98.1435 205.442C97.9102 205.283 97.6162 205.204 97.2615 205.204C96.8695 205.204 96.5335 205.297 96.2535 205.484C95.9828 205.661 95.7728 205.918 95.6235 206.254C95.4835 206.581 95.4135 206.973 95.4135 207.43V207.528C95.4135 208.293 95.5908 208.867 95.9455 209.25C96.3095 209.623 96.8415 209.81 97.5415 209.81C97.7842 209.81 98.0548 209.782 98.3535 209.726C98.6615 209.661 98.9508 209.553 99.2215 209.404C99.4175 209.292 99.5902 209.245 99.7395 209.264C99.8888 209.273 100.005 209.325 100.089 209.418C100.183 209.511 100.239 209.628 100.257 209.768C100.276 209.899 100.248 210.034 100.173 210.174C100.108 210.314 99.9915 210.435 99.8235 210.538C99.4968 210.743 99.1188 210.897 98.6895 211C98.2695 211.093 97.8775 211.14 97.5135 211.14ZM104.233 211.14C103.832 211.14 103.407 211.098 102.959 211.014C102.511 210.93 102.11 210.785 101.755 210.58C101.606 210.487 101.499 210.379 101.433 210.258C101.377 210.127 101.354 210.001 101.363 209.88C101.382 209.749 101.429 209.637 101.503 209.544C101.587 209.451 101.69 209.39 101.811 209.362C101.942 209.334 102.082 209.357 102.231 209.432C102.605 209.609 102.955 209.735 103.281 209.81C103.608 209.875 103.93 209.908 104.247 209.908C104.695 209.908 105.027 209.833 105.241 209.684C105.465 209.525 105.577 209.32 105.577 209.068C105.577 208.853 105.503 208.69 105.353 208.578C105.213 208.457 104.999 208.368 104.709 208.312L103.309 208.046C102.731 207.934 102.287 207.724 101.979 207.416C101.681 207.099 101.531 206.693 101.531 206.198C101.531 205.75 101.653 205.363 101.895 205.036C102.147 204.709 102.493 204.457 102.931 204.28C103.37 204.103 103.874 204.014 104.443 204.014C104.854 204.014 105.237 204.061 105.591 204.154C105.955 204.238 106.305 204.373 106.641 204.56C106.781 204.635 106.875 204.733 106.921 204.854C106.977 204.975 106.991 205.101 106.963 205.232C106.935 205.353 106.879 205.465 106.795 205.568C106.711 205.661 106.604 205.722 106.473 205.75C106.352 205.769 106.212 205.741 106.053 205.666C105.764 205.517 105.484 205.409 105.213 205.344C104.952 205.279 104.7 205.246 104.457 205.246C104 205.246 103.659 205.325 103.435 205.484C103.221 205.643 103.113 205.853 103.113 206.114C103.113 206.31 103.179 206.473 103.309 206.604C103.44 206.735 103.641 206.823 103.911 206.87L105.311 207.136C105.918 207.248 106.375 207.453 106.683 207.752C107.001 208.051 107.159 208.452 107.159 208.956C107.159 209.637 106.893 210.174 106.361 210.566C105.829 210.949 105.12 211.14 104.233 211.14Z" fill="white"/>
<path d="M74.1144 68.2038C73.8064 68.2038 73.5684 68.1244 73.4004 67.9658C73.2417 67.7978 73.1624 67.5598 73.1624 67.2518V59.2858C73.1624 58.9778 73.2417 58.7444 73.4004 58.5858C73.5684 58.4178 73.8064 58.3338 74.1144 58.3338H79.1124C79.3457 58.3338 79.523 58.3944 79.6444 58.5158C79.775 58.6371 79.8404 58.8098 79.8404 59.0338C79.8404 59.2671 79.775 59.4491 79.6444 59.5798C79.523 59.7011 79.3457 59.7618 79.1124 59.7618H74.8844V62.4778H78.8044C79.047 62.4778 79.229 62.5384 79.3504 62.6598C79.4717 62.7811 79.5324 62.9584 79.5324 63.1918C79.5324 63.4251 79.4717 63.6024 79.3504 63.7238C79.229 63.8451 79.047 63.9058 78.8044 63.9058H74.8844V66.7758H79.1124C79.3457 66.7758 79.523 66.8364 79.6444 66.9578C79.775 67.0791 79.8404 67.2564 79.8404 67.4898C79.8404 67.7231 79.775 67.9004 79.6444 68.0218C79.523 68.1431 79.3457 68.2038 79.1124 68.2038H74.1144ZM83.9389 68.3438C83.3415 68.3438 82.8142 68.1991 82.3569 67.9098C81.9089 67.6204 81.5589 67.2098 81.3069 66.6778C81.0549 66.1364 80.9289 65.5018 80.9289 64.7738C80.9289 64.0364 81.0549 63.4064 81.3069 62.8838C81.5589 62.3518 81.9089 61.9411 82.3569 61.6518C82.8142 61.3624 83.3415 61.2178 83.9389 61.2178C84.5082 61.2178 85.0029 61.3578 85.4229 61.6378C85.8522 61.9178 86.1415 62.2864 86.2909 62.7438H86.1369V59.1038C86.1369 58.8144 86.2115 58.5951 86.3609 58.4458C86.5102 58.2964 86.7249 58.2218 87.0049 58.2218C87.2849 58.2218 87.4995 58.2964 87.6489 58.4458C87.8075 58.5951 87.8869 58.8144 87.8869 59.1038V67.4198C87.8869 67.7091 87.8122 67.9331 87.6629 68.0918C87.5135 68.2411 87.2989 68.3158 87.0189 68.3158C86.7389 68.3158 86.5242 68.2411 86.3749 68.0918C86.2255 67.9331 86.1509 67.7091 86.1509 67.4198V66.3278L86.3049 66.7478C86.1649 67.2331 85.8802 67.6204 85.4509 67.9098C85.0215 68.1991 84.5175 68.3438 83.9389 68.3438ZM84.4289 67.0138C84.7742 67.0138 85.0775 66.9298 85.3389 66.7618C85.6002 66.5938 85.8009 66.3464 85.9409 66.0198C86.0902 65.6838 86.1649 65.2684 86.1649 64.7738C86.1649 64.0271 86.0062 63.4718 85.6889 63.1078C85.3715 62.7344 84.9515 62.5478 84.4289 62.5478C84.0835 62.5478 83.7802 62.6318 83.5189 62.7998C83.2575 62.9584 83.0522 63.2058 82.9029 63.5418C82.7629 63.8684 82.6929 64.2791 82.6929 64.7738C82.6929 65.5111 82.8515 66.0711 83.1689 66.4538C83.4862 66.8271 83.9062 67.0138 84.4289 67.0138ZM92.1794 68.3438C91.6101 68.3438 91.1387 68.2411 90.7654 68.0358C90.3921 67.8211 90.1121 67.5038 89.9254 67.0838C89.7481 66.6638 89.6594 66.1411 89.6594 65.5158V62.1278C89.6594 61.8291 89.7341 61.6098 89.8834 61.4698C90.0327 61.3204 90.2474 61.2458 90.5274 61.2458C90.8074 61.2458 91.0221 61.3204 91.1714 61.4698C91.3301 61.6098 91.4094 61.8291 91.4094 62.1278V65.5438C91.4094 66.0291 91.5074 66.3884 91.7034 66.6218C91.8994 66.8551 92.2121 66.9718 92.6414 66.9718C93.1081 66.9718 93.4907 66.8131 93.7894 66.4958C94.0881 66.1691 94.2374 65.7398 94.2374 65.2078V62.1278C94.2374 61.8291 94.3121 61.6098 94.4614 61.4698C94.6107 61.3204 94.8254 61.2458 95.1054 61.2458C95.3854 61.2458 95.6001 61.3204 95.7494 61.4698C95.9081 61.6098 95.9874 61.8291 95.9874 62.1278V67.4198C95.9874 68.0171 95.7027 68.3158 95.1334 68.3158C94.8627 68.3158 94.6527 68.2411 94.5034 68.0918C94.3541 67.9331 94.2794 67.7091 94.2794 67.4198V66.3558L94.4754 66.7758C94.2794 67.2798 93.9807 67.6671 93.5794 67.9378C93.1874 68.2084 92.7207 68.3438 92.1794 68.3438ZM100.973 68.3438C100.254 68.3438 99.6288 68.1991 99.0968 67.9098C98.5648 67.6111 98.1542 67.1911 97.8648 66.6498C97.5755 66.1084 97.4308 65.4738 97.4308 64.7458C97.4308 64.1951 97.5102 63.7051 97.6688 63.2758C97.8368 62.8371 98.0748 62.4684 98.3828 62.1698C98.6908 61.8618 99.0642 61.6284 99.5028 61.4698C99.9415 61.3018 100.431 61.2178 100.973 61.2178C101.281 61.2178 101.612 61.2598 101.967 61.3438C102.331 61.4278 102.671 61.5678 102.989 61.7638C103.138 61.8571 103.236 61.9691 103.283 62.0998C103.329 62.2304 103.339 62.3658 103.311 62.5058C103.283 62.6364 103.222 62.7531 103.129 62.8558C103.045 62.9491 102.937 63.0098 102.807 63.0378C102.676 63.0564 102.531 63.0238 102.373 62.9398C102.167 62.8184 101.957 62.7298 101.743 62.6738C101.528 62.6084 101.323 62.5758 101.127 62.5758C100.819 62.5758 100.548 62.6271 100.315 62.7298C100.081 62.8231 99.8808 62.9631 99.7128 63.1498C99.5542 63.3271 99.4328 63.5511 99.3488 63.8218C99.2648 64.0924 99.2228 64.4051 99.2228 64.7598C99.2228 65.4504 99.3862 65.9964 99.7128 66.3978C100.049 66.7898 100.52 66.9858 101.127 66.9858C101.323 66.9858 101.523 66.9578 101.729 66.9018C101.943 66.8458 102.158 66.7571 102.373 66.6358C102.531 66.5518 102.671 66.5238 102.793 66.5518C102.923 66.5798 103.031 66.6451 103.115 66.7478C103.199 66.8411 103.25 66.9578 103.269 67.0978C103.287 67.2284 103.269 67.3591 103.213 67.4898C103.166 67.6204 103.073 67.7278 102.933 67.8118C102.625 67.9984 102.298 68.1338 101.953 68.2178C101.607 68.3018 101.281 68.3438 100.973 68.3438ZM106.625 68.3438C106.131 68.3438 105.687 68.2504 105.295 68.0638C104.913 67.8678 104.609 67.6064 104.385 67.2798C104.171 66.9531 104.063 66.5844 104.063 66.1738C104.063 65.6698 104.194 65.2731 104.455 64.9838C104.717 64.6851 105.141 64.4704 105.729 64.3398C106.317 64.2091 107.106 64.1438 108.095 64.1438H108.795V65.1518H108.109C107.531 65.1518 107.069 65.1798 106.723 65.2358C106.378 65.2918 106.131 65.3898 105.981 65.5298C105.841 65.6604 105.771 65.8471 105.771 66.0898C105.771 66.3978 105.879 66.6498 106.093 66.8458C106.308 67.0418 106.607 67.1398 106.989 67.1398C107.297 67.1398 107.568 67.0698 107.801 66.9298C108.044 66.7804 108.235 66.5798 108.375 66.3278C108.515 66.0758 108.585 65.7864 108.585 65.4598V63.8498C108.585 63.3831 108.483 63.0471 108.277 62.8418C108.072 62.6364 107.727 62.5338 107.241 62.5338C106.971 62.5338 106.677 62.5664 106.359 62.6318C106.051 62.6971 105.725 62.8091 105.379 62.9678C105.202 63.0518 105.043 63.0751 104.903 63.0378C104.773 63.0004 104.67 62.9258 104.595 62.8138C104.521 62.6924 104.483 62.5618 104.483 62.4218C104.483 62.2818 104.521 62.1464 104.595 62.0158C104.67 61.8758 104.796 61.7731 104.973 61.7078C105.403 61.5304 105.813 61.4044 106.205 61.3298C106.607 61.2551 106.971 61.2178 107.297 61.2178C107.969 61.2178 108.52 61.3204 108.949 61.5258C109.388 61.7311 109.715 62.0438 109.929 62.4638C110.144 62.8744 110.251 63.4064 110.251 64.0598V67.4198C110.251 67.7091 110.181 67.9331 110.041 68.0918C109.901 68.2411 109.701 68.3158 109.439 68.3158C109.178 68.3158 108.973 68.2411 108.823 68.0918C108.683 67.9331 108.613 67.7091 108.613 67.4198V66.7478H108.725C108.66 67.0744 108.529 67.3591 108.333 67.6018C108.147 67.8351 107.909 68.0171 107.619 68.1478C107.33 68.2784 106.999 68.3438 106.625 68.3438ZM115.192 68.3438C114.473 68.3438 113.848 68.1991 113.316 67.9098C112.784 67.6111 112.373 67.1911 112.084 66.6498C111.794 66.1084 111.65 65.4738 111.65 64.7458C111.65 64.1951 111.729 63.7051 111.888 63.2758C112.056 62.8371 112.294 62.4684 112.602 62.1698C112.91 61.8618 113.283 61.6284 113.722 61.4698C114.16 61.3018 114.65 61.2178 115.192 61.2178C115.5 61.2178 115.831 61.2598 116.186 61.3438C116.55 61.4278 116.89 61.5678 117.208 61.7638C117.357 61.8571 117.455 61.9691 117.502 62.0998C117.548 62.2304 117.558 62.3658 117.53 62.5058C117.502 62.6364 117.441 62.7531 117.348 62.8558C117.264 62.9491 117.156 63.0098 117.026 63.0378C116.895 63.0564 116.75 63.0238 116.592 62.9398C116.386 62.8184 116.176 62.7298 115.962 62.6738C115.747 62.6084 115.542 62.5758 115.346 62.5758C115.038 62.5758 114.767 62.6271 114.534 62.7298C114.3 62.8231 114.1 62.9631 113.932 63.1498C113.773 63.3271 113.652 63.5511 113.568 63.8218C113.484 64.0924 113.442 64.4051 113.442 64.7598C113.442 65.4504 113.605 65.9964 113.932 66.3978C114.268 66.7898 114.739 66.9858 115.346 66.9858C115.542 66.9858 115.742 66.9578 115.948 66.9018C116.162 66.8458 116.377 66.7571 116.592 66.6358C116.75 66.5518 116.89 66.5238 117.012 66.5518C117.142 66.5798 117.25 66.6451 117.334 66.7478C117.418 66.8411 117.469 66.9578 117.488 67.0978C117.506 67.2284 117.488 67.3591 117.432 67.4898C117.385 67.6204 117.292 67.7278 117.152 67.8118C116.844 67.9984 116.517 68.1338 116.172 68.2178C115.826 68.3018 115.5 68.3438 115.192 68.3438ZM115.108 70.9338C114.93 70.9338 114.744 70.9198 114.548 70.8918C114.352 70.8731 114.174 70.8358 114.016 70.7798C113.876 70.7331 113.778 70.6538 113.722 70.5418C113.675 70.4391 113.666 70.3318 113.694 70.2198C113.731 70.1171 113.796 70.0378 113.89 69.9818C113.992 69.9258 114.114 69.9258 114.254 69.9818C114.375 70.0191 114.492 70.0471 114.604 70.0658C114.716 70.0844 114.837 70.0938 114.968 70.0938C115.21 70.0938 115.397 70.0564 115.528 69.9818C115.658 69.9164 115.724 69.8138 115.724 69.6738C115.724 69.5711 115.682 69.4918 115.598 69.4358C115.523 69.3798 115.392 69.3518 115.206 69.3518C115.14 69.3518 115.07 69.3518 114.996 69.3518C114.93 69.3611 114.86 69.3751 114.786 69.3938C114.72 69.4124 114.66 69.4171 114.604 69.4078C114.557 69.4078 114.51 69.3891 114.464 69.3518C114.426 69.3144 114.403 69.2678 114.394 69.2118C114.384 69.1558 114.384 69.0811 114.394 68.9878L114.548 67.9238H115.486L115.304 68.9878L114.856 68.8338C114.968 68.7964 115.08 68.7684 115.192 68.7498C115.304 68.7311 115.406 68.7218 115.5 68.7218C115.882 68.7218 116.19 68.8104 116.424 68.9878C116.657 69.1651 116.774 69.4124 116.774 69.7298C116.774 70.0938 116.62 70.3831 116.312 70.5978C116.004 70.8218 115.602 70.9338 115.108 70.9338ZM120.885 68.3438C120.39 68.3438 119.947 68.2504 119.555 68.0638C119.172 67.8678 118.869 67.6064 118.645 67.2798C118.43 66.9531 118.323 66.5844 118.323 66.1738C118.323 65.6698 118.454 65.2731 118.715 64.9838C118.976 64.6851 119.401 64.4704 119.989 64.3398C120.577 64.2091 121.366 64.1438 122.355 64.1438H123.055V65.1518H122.369C121.79 65.1518 121.328 65.1798 120.983 65.2358C120.638 65.2918 120.39 65.3898 120.241 65.5298C120.101 65.6604 120.031 65.8471 120.031 66.0898C120.031 66.3978 120.138 66.6498 120.353 66.8458C120.568 67.0418 120.866 67.1398 121.249 67.1398C121.557 67.1398 121.828 67.0698 122.061 66.9298C122.304 66.7804 122.495 66.5798 122.635 66.3278C122.775 66.0758 122.845 65.7864 122.845 65.4598V63.8498C122.845 63.3831 122.742 63.0471 122.537 62.8418C122.332 62.6364 121.986 62.5338 121.501 62.5338C121.23 62.5338 120.936 62.5664 120.619 62.6318C120.311 62.6971 119.984 62.8091 119.639 62.9678C119.462 63.0518 119.303 63.0751 119.163 63.0378C119.032 63.0004 118.93 62.9258 118.855 62.8138C118.78 62.6924 118.743 62.5618 118.743 62.4218C118.743 62.2818 118.78 62.1464 118.855 62.0158C118.93 61.8758 119.056 61.7731 119.233 61.7078C119.662 61.5304 120.073 61.4044 120.465 61.3298C120.866 61.2551 121.23 61.2178 121.557 61.2178C122.229 61.2178 122.78 61.3204 123.209 61.5258C123.648 61.7311 123.974 62.0438 124.189 62.4638C124.404 62.8744 124.511 63.4064 124.511 64.0598V67.4198C124.511 67.7091 124.441 67.9331 124.301 68.0918C124.161 68.2411 123.96 68.3158 123.699 68.3158C123.438 68.3158 123.232 68.2411 123.083 68.0918C122.943 67.9331 122.873 67.7091 122.873 67.4198V66.7478H122.985C122.92 67.0744 122.789 67.3591 122.593 67.6018C122.406 67.8351 122.168 68.0171 121.879 68.1478C121.59 68.2784 121.258 68.3438 120.885 68.3438ZM119.345 60.0698C119.205 60.0604 119.098 60.0138 119.023 59.9298C118.948 59.8458 118.93 59.7151 118.967 59.5378C119.004 59.3418 119.06 59.1504 119.135 58.9638C119.219 58.7678 119.326 58.5904 119.457 58.4318C119.588 58.2731 119.746 58.1471 119.933 58.0538C120.12 57.9511 120.339 57.8998 120.591 57.8998C120.824 57.8998 121.03 57.9464 121.207 58.0398C121.384 58.1331 121.548 58.2404 121.697 58.3618C121.846 58.4831 121.996 58.5904 122.145 58.6838C122.294 58.7771 122.458 58.8238 122.635 58.8238C122.831 58.8238 122.999 58.7584 123.139 58.6278C123.288 58.4878 123.382 58.3151 123.419 58.1098C123.438 58.0071 123.484 57.9278 123.559 57.8718C123.643 57.8158 123.76 57.7924 123.909 57.8018C124.049 57.8111 124.156 57.8578 124.231 57.9418C124.306 58.0258 124.324 58.1564 124.287 58.3338C124.24 58.5858 124.152 58.8378 124.021 59.0898C123.89 59.3418 123.713 59.5518 123.489 59.7198C123.274 59.8878 122.999 59.9718 122.663 59.9718C122.43 59.9718 122.224 59.9251 122.047 59.8318C121.87 59.7384 121.702 59.6311 121.543 59.5098C121.394 59.3884 121.244 59.2811 121.095 59.1878C120.946 59.0944 120.787 59.0478 120.619 59.0478C120.423 59.0478 120.255 59.1131 120.115 59.2438C119.975 59.3744 119.882 59.5471 119.835 59.7618C119.816 59.8644 119.765 59.9438 119.681 59.9998C119.606 60.0558 119.494 60.0791 119.345 60.0698ZM129.409 68.3438C128.7 68.3438 128.084 68.1991 127.561 67.9098C127.039 67.6204 126.633 67.2098 126.343 66.6778C126.054 66.1364 125.909 65.5018 125.909 64.7738C125.909 64.2231 125.989 63.7331 126.147 63.3038C126.315 62.8651 126.553 62.4918 126.861 62.1838C127.169 61.8664 127.538 61.6284 127.967 61.4698C128.397 61.3018 128.877 61.2178 129.409 61.2178C130.119 61.2178 130.735 61.3624 131.257 61.6518C131.78 61.9411 132.186 62.3518 132.475 62.8838C132.765 63.4158 132.909 64.0458 132.909 64.7738C132.909 65.3244 132.825 65.8191 132.657 66.2578C132.499 66.6964 132.265 67.0744 131.957 67.3918C131.649 67.6998 131.281 67.9378 130.851 68.1058C130.422 68.2644 129.941 68.3438 129.409 68.3438ZM129.409 67.0138C129.755 67.0138 130.058 66.9298 130.319 66.7618C130.581 66.5938 130.781 66.3464 130.921 66.0198C131.071 65.6838 131.145 65.2684 131.145 64.7738C131.145 64.0271 130.987 63.4718 130.669 63.1078C130.352 62.7344 129.932 62.5478 129.409 62.5478C129.064 62.5478 128.761 62.6318 128.499 62.7998C128.238 62.9584 128.033 63.2058 127.883 63.5418C127.743 63.8684 127.673 64.2791 127.673 64.7738C127.673 65.5111 127.832 66.0711 128.149 66.4538C128.467 66.8271 128.887 67.0138 129.409 67.0138ZM73.3745 86.3158C73.0945 86.3158 72.8752 86.2411 72.7165 86.0918C72.5672 85.9331 72.4925 85.7091 72.4925 85.4198V80.6738H71.8485C71.6245 80.6738 71.4518 80.6178 71.3305 80.5058C71.2092 80.3844 71.1485 80.2211 71.1485 80.0158C71.1485 79.8011 71.2092 79.6378 71.3305 79.5258C71.4518 79.4138 71.6245 79.3578 71.8485 79.3578H72.9965L72.4925 79.8198V79.3438C72.4925 78.4011 72.7305 77.6871 73.2065 77.2018C73.6825 76.7164 74.3732 76.4271 75.2785 76.3338L75.6985 76.2918C75.9132 76.2731 76.0812 76.3011 76.2025 76.3758C76.3332 76.4504 76.4172 76.5531 76.4545 76.6838C76.5012 76.8051 76.5105 76.9358 76.4825 77.0758C76.4545 77.2064 76.3985 77.3231 76.3145 77.4258C76.2305 77.5191 76.1232 77.5704 75.9925 77.5798L75.6565 77.6078C75.1618 77.6451 74.8025 77.7804 74.5785 78.0138C74.3545 78.2471 74.2425 78.5971 74.2425 79.0638V79.5818L74.0185 79.3578H77.8965C78.1765 79.3578 78.3912 79.4418 78.5405 79.6098C78.6898 79.7684 78.7645 79.9971 78.7645 80.2958V85.3498C78.7645 85.6484 78.6898 85.8818 78.5405 86.0498C78.4005 86.2178 78.1858 86.3018 77.8965 86.3018C77.6165 86.3018 77.3972 86.2178 77.2385 86.0498C77.0892 85.8818 77.0145 85.6484 77.0145 85.3498V80.6738H74.2425V85.4198C74.2425 86.0171 73.9532 86.3158 73.3745 86.3158ZM77.9245 77.9578C77.6072 77.9578 77.3598 77.8784 77.1825 77.7198C77.0145 77.5518 76.9305 77.3231 76.9305 77.0338C76.9305 76.7351 77.0145 76.5064 77.1825 76.3478C77.3598 76.1891 77.6072 76.1098 77.9245 76.1098C78.2512 76.1098 78.4985 76.1891 78.6665 76.3478C78.8438 76.5064 78.9325 76.7351 78.9325 77.0338C78.9325 77.3231 78.8438 77.5518 78.6665 77.7198C78.4985 77.8784 78.2512 77.9578 77.9245 77.9578ZM81.4571 86.3158C81.1771 86.3158 80.9624 86.2411 80.8131 86.0918C80.6638 85.9331 80.5891 85.7091 80.5891 85.4198V80.1278C80.5891 79.8384 80.6638 79.6191 80.8131 79.4698C80.9624 79.3204 81.1724 79.2458 81.4431 79.2458C81.7138 79.2458 81.9238 79.3204 82.0731 79.4698C82.2224 79.6191 82.2971 79.8384 82.2971 80.1278V81.0798L82.1431 80.7298C82.3484 80.2351 82.6658 79.8618 83.0951 79.6098C83.5338 79.3484 84.0284 79.2178 84.5791 79.2178C85.1298 79.2178 85.5824 79.3204 85.9371 79.5258C86.2918 79.7311 86.5578 80.0438 86.7351 80.4638C86.9124 80.8744 87.0011 81.3971 87.0011 82.0318V85.4198C87.0011 85.7091 86.9264 85.9331 86.7771 86.0918C86.6278 86.2411 86.4131 86.3158 86.1331 86.3158C85.8531 86.3158 85.6338 86.2411 85.4751 86.0918C85.3258 85.9331 85.2511 85.7091 85.2511 85.4198V82.1158C85.2511 81.5838 85.1484 81.1964 84.9431 80.9538C84.7471 80.7111 84.4391 80.5898 84.0191 80.5898C83.5058 80.5898 83.0951 80.7531 82.7871 81.0798C82.4884 81.3971 82.3391 81.8218 82.3391 82.3538V85.4198C82.3391 86.0171 82.0451 86.3158 81.4571 86.3158ZM91.0325 86.3438C90.5379 86.3438 90.0945 86.2504 89.7025 86.0638C89.3199 85.8678 89.0165 85.6064 88.7925 85.2798C88.5779 84.9531 88.4705 84.5844 88.4705 84.1738C88.4705 83.6698 88.6012 83.2731 88.8625 82.9838C89.1239 82.6851 89.5485 82.4704 90.1365 82.3398C90.7245 82.2091 91.5132 82.1438 92.5025 82.1438H93.2025V83.1518H92.5165C91.9379 83.1518 91.4759 83.1798 91.1305 83.2358C90.7852 83.2918 90.5379 83.3898 90.3885 83.5298C90.2485 83.6604 90.1785 83.8471 90.1785 84.0898C90.1785 84.3978 90.2859 84.6498 90.5005 84.8458C90.7152 85.0418 91.0139 85.1398 91.3965 85.1398C91.7045 85.1398 91.9752 85.0698 92.2085 84.9298C92.4512 84.7804 92.6425 84.5798 92.7825 84.3278C92.9225 84.0758 92.9925 83.7864 92.9925 83.4598V81.8498C92.9925 81.3831 92.8899 81.0471 92.6845 80.8418C92.4792 80.6364 92.1339 80.5338 91.6485 80.5338C91.3779 80.5338 91.0839 80.5664 90.7665 80.6318C90.4585 80.6971 90.1319 80.8091 89.7865 80.9678C89.6092 81.0518 89.4505 81.0751 89.3105 81.0378C89.1799 81.0004 89.0772 80.9258 89.0025 80.8138C88.9279 80.6924 88.8905 80.5618 88.8905 80.4218C88.8905 80.2818 88.9279 80.1464 89.0025 80.0158C89.0772 79.8758 89.2032 79.7731 89.3805 79.7078C89.8099 79.5304 90.2205 79.4044 90.6125 79.3298C91.0139 79.2551 91.3779 79.2178 91.7045 79.2178C92.3765 79.2178 92.9272 79.3204 93.3565 79.5258C93.7952 79.7311 94.1219 80.0438 94.3365 80.4638C94.5512 80.8744 94.6585 81.4064 94.6585 82.0598V85.4198C94.6585 85.7091 94.5885 85.9331 94.4485 86.0918C94.3085 86.2411 94.1079 86.3158 93.8465 86.3158C93.5852 86.3158 93.3799 86.2411 93.2305 86.0918C93.0905 85.9331 93.0205 85.7091 93.0205 85.4198V84.7478H93.1325C93.0672 85.0744 92.9365 85.3591 92.7405 85.6018C92.5539 85.8351 92.3159 86.0171 92.0265 86.1478C91.7372 86.2784 91.4059 86.3438 91.0325 86.3438ZM97.3028 86.3158C97.0228 86.3158 96.8081 86.2411 96.6588 86.0918C96.5095 85.9331 96.4348 85.7091 96.4348 85.4198V80.1278C96.4348 79.8384 96.5095 79.6191 96.6588 79.4698C96.8081 79.3204 97.0181 79.2458 97.2888 79.2458C97.5595 79.2458 97.7695 79.3204 97.9188 79.4698C98.0681 79.6191 98.1428 79.8384 98.1428 80.1278V81.0798L97.9888 80.7298C98.1941 80.2351 98.5115 79.8618 98.9408 79.6098C99.3795 79.3484 99.8741 79.2178 100.425 79.2178C100.975 79.2178 101.428 79.3204 101.783 79.5258C102.137 79.7311 102.403 80.0438 102.581 80.4638C102.758 80.8744 102.847 81.3971 102.847 82.0318V85.4198C102.847 85.7091 102.772 85.9331 102.623 86.0918C102.473 86.2411 102.259 86.3158 101.979 86.3158C101.699 86.3158 101.479 86.2411 101.321 86.0918C101.171 85.9331 101.097 85.7091 101.097 85.4198V82.1158C101.097 81.5838 100.994 81.1964 100.789 80.9538C100.593 80.7111 100.285 80.5898 99.8648 80.5898C99.3515 80.5898 98.9408 80.7531 98.6328 81.0798C98.3341 81.3971 98.1848 81.8218 98.1848 82.3538V85.4198C98.1848 86.0171 97.8908 86.3158 97.3028 86.3158ZM107.788 86.3438C107.07 86.3438 106.444 86.1991 105.912 85.9098C105.38 85.6111 104.97 85.1911 104.68 84.6498C104.391 84.1084 104.246 83.4738 104.246 82.7458C104.246 82.1951 104.326 81.7051 104.484 81.2758C104.652 80.8371 104.89 80.4684 105.198 80.1698C105.506 79.8618 105.88 79.6284 106.318 79.4698C106.757 79.3018 107.247 79.2178 107.788 79.2178C108.096 79.2178 108.428 79.2598 108.782 79.3438C109.146 79.4278 109.487 79.5678 109.804 79.7638C109.954 79.8571 110.052 79.9691 110.098 80.0998C110.145 80.2304 110.154 80.3658 110.126 80.5058C110.098 80.6364 110.038 80.7531 109.944 80.8558C109.86 80.9491 109.753 81.0098 109.622 81.0378C109.492 81.0564 109.347 81.0238 109.188 80.9398C108.983 80.8184 108.773 80.7298 108.558 80.6738C108.344 80.6084 108.138 80.5758 107.942 80.5758C107.634 80.5758 107.364 80.6271 107.13 80.7298C106.897 80.8231 106.696 80.9631 106.528 81.1498C106.37 81.3271 106.248 81.5511 106.164 81.8218C106.08 82.0924 106.038 82.4051 106.038 82.7598C106.038 83.4504 106.202 83.9964 106.528 84.3978C106.864 84.7898 107.336 84.9858 107.942 84.9858C108.138 84.9858 108.339 84.9578 108.544 84.9018C108.759 84.8458 108.974 84.7571 109.188 84.6358C109.347 84.5518 109.487 84.5238 109.608 84.5518C109.739 84.5798 109.846 84.6451 109.93 84.7478C110.014 84.8411 110.066 84.9578 110.084 85.0978C110.103 85.2284 110.084 85.3591 110.028 85.4898C109.982 85.6204 109.888 85.7278 109.748 85.8118C109.44 85.9984 109.114 86.1338 108.768 86.2178C108.423 86.3018 108.096 86.3438 107.788 86.3438ZM114.465 86.3438C113.69 86.3438 113.023 86.1991 112.463 85.9098C111.903 85.6204 111.469 85.2098 111.161 84.6778C110.862 84.1458 110.713 83.5158 110.713 82.7878C110.713 82.0784 110.858 81.4578 111.147 80.9258C111.446 80.3938 111.852 79.9784 112.365 79.6798C112.888 79.3718 113.48 79.2178 114.143 79.2178C114.628 79.2178 115.062 79.2971 115.445 79.4558C115.837 79.6144 116.168 79.8431 116.439 80.1418C116.719 80.4404 116.929 80.8044 117.069 81.2338C117.218 81.6538 117.293 82.1298 117.293 82.6618C117.293 82.8298 117.232 82.9604 117.111 83.0538C116.999 83.1378 116.836 83.1798 116.621 83.1798H112.127V82.1718H116.061L115.837 82.3818C115.837 81.9524 115.772 81.5931 115.641 81.3038C115.52 81.0144 115.338 80.7951 115.095 80.6458C114.862 80.4871 114.568 80.4078 114.213 80.4078C113.821 80.4078 113.485 80.5011 113.205 80.6878C112.934 80.8651 112.724 81.1218 112.575 81.4578C112.435 81.7844 112.365 82.1764 112.365 82.6338V82.7318C112.365 83.4971 112.542 84.0711 112.897 84.4538C113.261 84.8271 113.793 85.0138 114.493 85.0138C114.736 85.0138 115.006 84.9858 115.305 84.9298C115.613 84.8644 115.902 84.7571 116.173 84.6078C116.369 84.4958 116.542 84.4491 116.691 84.4678C116.84 84.4771 116.957 84.5284 117.041 84.6218C117.134 84.7151 117.19 84.8318 117.209 84.9718C117.228 85.1024 117.2 85.2378 117.125 85.3778C117.06 85.5178 116.943 85.6391 116.775 85.7418C116.448 85.9471 116.07 86.1011 115.641 86.2038C115.221 86.2971 114.829 86.3438 114.465 86.3438ZM119.547 86.3018C119.267 86.3018 119.052 86.2178 118.903 86.0498C118.754 85.8818 118.679 85.6484 118.679 85.3498V80.2118C118.679 79.9038 118.754 79.6704 118.903 79.5118C119.052 79.3438 119.267 79.2598 119.547 79.2598C119.827 79.2598 120.042 79.3438 120.191 79.5118C120.35 79.6704 120.429 79.9038 120.429 80.2118V85.3498C120.429 85.6484 120.354 85.8818 120.205 86.0498C120.056 86.2178 119.836 86.3018 119.547 86.3018ZM119.547 77.9578C119.22 77.9578 118.964 77.8784 118.777 77.7198C118.6 77.5518 118.511 77.3231 118.511 77.0338C118.511 76.7351 118.6 76.5064 118.777 76.3478C118.964 76.1891 119.22 76.1098 119.547 76.1098C119.883 76.1098 120.14 76.1891 120.317 76.3478C120.494 76.5064 120.583 76.7351 120.583 77.0338C120.583 77.3231 120.494 77.5518 120.317 77.7198C120.14 77.8784 119.883 77.9578 119.547 77.9578ZM123.143 86.3158C122.854 86.3158 122.63 86.2411 122.471 86.0918C122.322 85.9331 122.247 85.7091 122.247 85.4198V80.1278C122.247 79.8384 122.322 79.6191 122.471 79.4698C122.621 79.3204 122.831 79.2458 123.101 79.2458C123.372 79.2458 123.582 79.3204 123.731 79.4698C123.881 79.6191 123.955 79.8384 123.955 80.1278V81.0098H123.815C123.946 80.4498 124.203 80.0251 124.585 79.7358C124.968 79.4464 125.477 79.2738 126.111 79.2178C126.307 79.1991 126.461 79.2504 126.573 79.3718C126.695 79.4838 126.765 79.6611 126.783 79.9038C126.802 80.1371 126.746 80.3284 126.615 80.4778C126.494 80.6178 126.307 80.7018 126.055 80.7298L125.747 80.7578C125.178 80.8138 124.749 80.9911 124.459 81.2898C124.17 81.5791 124.025 81.9898 124.025 82.5218V85.4198C124.025 85.7091 123.951 85.9331 123.801 86.0918C123.652 86.2411 123.433 86.3158 123.143 86.3158ZM129.915 86.3438C129.421 86.3438 128.977 86.2504 128.585 86.0638C128.203 85.8678 127.899 85.6064 127.675 85.2798C127.461 84.9531 127.353 84.5844 127.353 84.1738C127.353 83.6698 127.484 83.2731 127.745 82.9838C128.007 82.6851 128.431 82.4704 129.019 82.3398C129.607 82.2091 130.396 82.1438 131.385 82.1438H132.085V83.1518H131.399C130.821 83.1518 130.359 83.1798 130.013 83.2358C129.668 83.2918 129.421 83.3898 129.271 83.5298C129.131 83.6604 129.061 83.8471 129.061 84.0898C129.061 84.3978 129.169 84.6498 129.383 84.8458C129.598 85.0418 129.897 85.1398 130.279 85.1398C130.587 85.1398 130.858 85.0698 131.091 84.9298C131.334 84.7804 131.525 84.5798 131.665 84.3278C131.805 84.0758 131.875 83.7864 131.875 83.4598V81.8498C131.875 81.3831 131.773 81.0471 131.567 80.8418C131.362 80.6364 131.017 80.5338 130.531 80.5338C130.261 80.5338 129.967 80.5664 129.649 80.6318C129.341 80.6971 129.015 80.8091 128.669 80.9678C128.492 81.0518 128.333 81.0751 128.193 81.0378C128.063 81.0004 127.96 80.9258 127.885 80.8138C127.811 80.6924 127.773 80.5618 127.773 80.4218C127.773 80.2818 127.811 80.1464 127.885 80.0158C127.96 79.8758 128.086 79.7731 128.263 79.7078C128.693 79.5304 129.103 79.4044 129.495 79.3298C129.897 79.2551 130.261 79.2178 130.587 79.2178C131.259 79.2178 131.81 79.3204 132.239 79.5258C132.678 79.7311 133.005 80.0438 133.219 80.4638C133.434 80.8744 133.541 81.4064 133.541 82.0598V85.4198C133.541 85.7091 133.471 85.9331 133.331 86.0918C133.191 86.2411 132.991 86.3158 132.729 86.3158C132.468 86.3158 132.263 86.2411 132.113 86.0918C131.973 85.9331 131.903 85.7091 131.903 85.4198V84.7478H132.015C131.95 85.0744 131.819 85.3591 131.623 85.6018C131.437 85.8351 131.199 86.0171 130.909 86.1478C130.62 86.2784 130.289 86.3438 129.915 86.3438Z" fill="white"/>
<defs>
<linearGradient id="paint0_linear_182_771" x1="-56.1404" y1="300" x2="363.158" y2="300" gradientUnits="userSpaceOnUse">
<stop stop-color="#32C352"/>
<stop offset="1" stop-color="#496FA9"/>
</linearGradient>
<linearGradient id="paint1_linear_182_771" x1="-27.2727" y1="151.145" x2="328.322" y2="151.145" gradientUnits="userSpaceOnUse">
<stop stop-color="#AD7449"/>
<stop offset="1" stop-color="#D18B57"/>
</linearGradient>
<linearGradient id="paint2_linear_182_771" x1="-24.4514" y1="150" x2="330.799" y2="150" gradientUnits="userSpaceOnUse">
<stop stop-color="#005BAA"/>
<stop offset="0.0001" stop-color="#005BAA" stop-opacity="0.984375"/>
<stop offset="1" stop-color="#042B4D"/>
</linearGradient>
</defs>
</svg>
