<svg width="479" height="299" viewBox="0 0 479 299" fill="none" xmlns="http://www.w3.org/2000/svg">
<path d="M42.6709 274.5H476.268" stroke="#CCCCCC" stroke-dasharray="4 2"/>
<path d="M42.6709 207.75H476.268" stroke="#CCCCCC" stroke-dasharray="4 2"/>
<path d="M42.6709 141H476.268" stroke="#CCCCCC" stroke-dasharray="4 2"/>
<path d="M42.6709 74.25H476.268" stroke="#CCCCCC" stroke-dasharray="4 2"/>
<path d="M42.6709 7.5H476.268" stroke="#CCCCCC" stroke-dasharray="4 2"/>
<path d="M42.6709 11V279" stroke="#CCCCCC" stroke-dasharray="4 2"/>
<path d="M167.933 7V275" stroke="#CCCCCC" stroke-dasharray="4 2"/>
<path d="M284.935 6V274" stroke="#CCCCCC" stroke-dasharray="4 2"/>
<path d="M477.645 6V274" stroke="#CCCCCC" stroke-dasharray="4 2"/>
<path d="M28.2205 273.055V274.355C28.2205 275.055 28.158 275.645 28.033 276.125C27.908 276.605 27.7283 276.992 27.4939 277.285C27.2595 277.578 26.9763 277.791 26.6443 277.924C26.3162 278.053 25.9451 278.117 25.531 278.117C25.2029 278.117 24.9001 278.076 24.6228 277.994C24.3455 277.912 24.0955 277.781 23.8728 277.602C23.654 277.418 23.4665 277.18 23.3103 276.887C23.154 276.594 23.0349 276.238 22.9529 275.82C22.8708 275.402 22.8298 274.914 22.8298 274.355V273.055C22.8298 272.355 22.8923 271.77 23.0173 271.297C23.1462 270.824 23.3279 270.445 23.5622 270.16C23.7966 269.871 24.0779 269.664 24.406 269.539C24.738 269.414 25.1091 269.352 25.5193 269.352C25.8513 269.352 26.156 269.393 26.4333 269.475C26.7146 269.553 26.9646 269.68 27.1833 269.855C27.4021 270.027 27.5876 270.258 27.74 270.547C27.8962 270.832 28.0154 271.182 28.0974 271.596C28.1794 272.01 28.2205 272.496 28.2205 273.055ZM27.1306 274.531V272.873C27.1306 272.49 27.1072 272.154 27.0603 271.865C27.0173 271.572 26.9529 271.322 26.8669 271.115C26.781 270.908 26.6716 270.74 26.5388 270.611C26.4099 270.482 26.2595 270.389 26.0876 270.33C25.9197 270.268 25.7302 270.236 25.5193 270.236C25.2615 270.236 25.033 270.285 24.8337 270.383C24.6345 270.477 24.4665 270.627 24.3298 270.834C24.197 271.041 24.0955 271.312 24.0251 271.648C23.9548 271.984 23.9197 272.393 23.9197 272.873V274.531C23.9197 274.914 23.9412 275.252 23.9841 275.545C24.031 275.838 24.0994 276.092 24.1892 276.307C24.279 276.518 24.3884 276.691 24.5173 276.828C24.6462 276.965 24.7947 277.066 24.9626 277.133C25.1345 277.195 25.324 277.227 25.531 277.227C25.7966 277.227 26.029 277.176 26.2283 277.074C26.4275 276.973 26.5935 276.814 26.7263 276.6C26.863 276.381 26.9646 276.102 27.031 275.762C27.0974 275.418 27.1306 275.008 27.1306 274.531Z" fill="#333333"/>
<path d="M21.7056 210.359V211.25H16.1216V210.471L18.9165 207.359C19.2602 206.977 19.5259 206.652 19.7134 206.387C19.9048 206.117 20.0376 205.877 20.1118 205.666C20.1899 205.451 20.229 205.232 20.229 205.01C20.229 204.729 20.1704 204.475 20.0532 204.248C19.9399 204.018 19.772 203.834 19.5493 203.697C19.3266 203.561 19.0571 203.492 18.7407 203.492C18.3618 203.492 18.0454 203.566 17.7915 203.715C17.5415 203.859 17.354 204.062 17.229 204.324C17.104 204.586 17.0415 204.887 17.0415 205.227H15.9575C15.9575 204.746 16.063 204.307 16.2739 203.908C16.4848 203.51 16.7973 203.193 17.2114 202.959C17.6255 202.721 18.1352 202.602 18.7407 202.602C19.2798 202.602 19.7407 202.697 20.1235 202.889C20.5063 203.076 20.7993 203.342 21.0024 203.686C21.2095 204.025 21.313 204.424 21.313 204.881C21.313 205.131 21.27 205.385 21.1841 205.643C21.102 205.896 20.9868 206.15 20.8384 206.404C20.6938 206.658 20.5239 206.908 20.3286 207.154C20.1372 207.4 19.9321 207.643 19.7134 207.881L17.4282 210.359H21.7056ZM24.2368 207.189L23.3696 206.967L23.7973 202.719H28.1743V203.721H24.7173L24.4595 206.041C24.6157 205.951 24.813 205.867 25.0513 205.789C25.2934 205.711 25.5708 205.672 25.8833 205.672C26.2778 205.672 26.6313 205.74 26.9438 205.877C27.2563 206.01 27.522 206.201 27.7407 206.451C27.9634 206.701 28.1333 207.002 28.2505 207.354C28.3677 207.705 28.4263 208.098 28.4263 208.531C28.4263 208.941 28.3696 209.318 28.2563 209.662C28.147 210.006 27.9809 210.307 27.7583 210.564C27.5356 210.818 27.2544 211.016 26.9145 211.156C26.5786 211.297 26.1821 211.367 25.7251 211.367C25.3813 211.367 25.0552 211.32 24.7466 211.227C24.4419 211.129 24.1684 210.982 23.9263 210.787C23.688 210.588 23.4927 210.342 23.3403 210.049C23.1919 209.752 23.0981 209.404 23.0591 209.006H24.0903C24.1372 209.326 24.2309 209.596 24.3716 209.814C24.5122 210.033 24.6958 210.199 24.9223 210.312C25.1528 210.422 25.4204 210.477 25.7251 210.477C25.9829 210.477 26.2114 210.432 26.4106 210.342C26.6098 210.252 26.7778 210.123 26.9145 209.955C27.0513 209.787 27.1548 209.584 27.2251 209.346C27.2993 209.107 27.3364 208.84 27.3364 208.543C27.3364 208.273 27.2993 208.023 27.2251 207.793C27.1509 207.562 27.0395 207.361 26.8911 207.189C26.7466 207.018 26.5688 206.885 26.3579 206.791C26.147 206.693 25.9048 206.645 25.6313 206.645C25.2681 206.645 24.9927 206.693 24.8052 206.791C24.6216 206.889 24.4321 207.021 24.2368 207.189Z" fill="#333333"/>
<path d="M17.4868 140.439L16.6196 140.217L17.0473 135.969H21.4243V136.971H17.9673L17.7095 139.291C17.8657 139.201 18.063 139.117 18.3013 139.039C18.5434 138.961 18.8208 138.922 19.1333 138.922C19.5278 138.922 19.8813 138.99 20.1938 139.127C20.5063 139.26 20.772 139.451 20.9907 139.701C21.2134 139.951 21.3833 140.252 21.5005 140.604C21.6177 140.955 21.6763 141.348 21.6763 141.781C21.6763 142.191 21.6196 142.568 21.5063 142.912C21.397 143.256 21.2309 143.557 21.0083 143.814C20.7856 144.068 20.5044 144.266 20.1645 144.406C19.8286 144.547 19.4321 144.617 18.9751 144.617C18.6313 144.617 18.3052 144.57 17.9966 144.477C17.6919 144.379 17.4184 144.232 17.1763 144.037C16.938 143.838 16.7427 143.592 16.5903 143.299C16.4419 143.002 16.3481 142.654 16.3091 142.256H17.3403C17.3872 142.576 17.4809 142.846 17.6216 143.064C17.7622 143.283 17.9458 143.449 18.1723 143.562C18.4028 143.672 18.6704 143.727 18.9751 143.727C19.2329 143.727 19.4614 143.682 19.6606 143.592C19.8598 143.502 20.0278 143.373 20.1645 143.205C20.3013 143.037 20.4048 142.834 20.4751 142.596C20.5493 142.357 20.5864 142.09 20.5864 141.793C20.5864 141.523 20.5493 141.273 20.4751 141.043C20.4009 140.812 20.2895 140.611 20.1411 140.439C19.9966 140.268 19.8188 140.135 19.6079 140.041C19.397 139.943 19.1548 139.895 18.8813 139.895C18.5181 139.895 18.2427 139.943 18.0552 140.041C17.8716 140.139 17.6821 140.271 17.4868 140.439ZM28.2212 139.555V140.855C28.2212 141.555 28.1587 142.145 28.0337 142.625C27.9087 143.105 27.729 143.492 27.4946 143.785C27.2602 144.078 26.977 144.291 26.645 144.424C26.3169 144.553 25.9458 144.617 25.5317 144.617C25.2036 144.617 24.9009 144.576 24.6235 144.494C24.3462 144.412 24.0962 144.281 23.8735 144.102C23.6548 143.918 23.4673 143.68 23.311 143.387C23.1548 143.094 23.0356 142.738 22.9536 142.32C22.8716 141.902 22.8306 141.414 22.8306 140.855V139.555C22.8306 138.855 22.8931 138.27 23.0181 137.797C23.147 137.324 23.3286 136.945 23.563 136.66C23.7973 136.371 24.0786 136.164 24.4067 136.039C24.7388 135.914 25.1098 135.852 25.52 135.852C25.852 135.852 26.1567 135.893 26.4341 135.975C26.7153 136.053 26.9653 136.18 27.1841 136.355C27.4028 136.527 27.5884 136.758 27.7407 137.047C27.897 137.332 28.0161 137.682 28.0981 138.096C28.1802 138.51 28.2212 138.996 28.2212 139.555ZM27.1313 141.031V139.373C27.1313 138.99 27.1079 138.654 27.061 138.365C27.0181 138.072 26.9536 137.822 26.8677 137.615C26.7817 137.408 26.6723 137.24 26.5395 137.111C26.4106 136.982 26.2602 136.889 26.0884 136.83C25.9204 136.768 25.7309 136.736 25.52 136.736C25.2622 136.736 25.0337 136.785 24.8345 136.883C24.6352 136.977 24.4673 137.127 24.3306 137.334C24.1977 137.541 24.0962 137.812 24.0259 138.148C23.9556 138.484 23.9204 138.893 23.9204 139.373V141.031C23.9204 141.414 23.9419 141.752 23.9848 142.045C24.0317 142.338 24.1001 142.592 24.1899 142.807C24.2798 143.018 24.3891 143.191 24.5181 143.328C24.647 143.465 24.7954 143.566 24.9634 143.633C25.1352 143.695 25.3247 143.727 25.5317 143.727C25.7973 143.727 26.0298 143.676 26.229 143.574C26.4282 143.473 26.5942 143.314 26.727 143.1C26.8638 142.881 26.9653 142.602 27.0317 142.262C27.0981 141.918 27.1313 141.508 27.1313 141.031Z" fill="#333333"/>
<path d="M21.6294 69.2188V69.8281L18.0962 77.75H16.9536L20.4809 70.1094H15.8638V69.2188H21.6294ZM24.2368 73.6895L23.3696 73.4668L23.7973 69.2188H28.1743V70.2207H24.7173L24.4595 72.541C24.6157 72.4512 24.813 72.3672 25.0513 72.2891C25.2934 72.2109 25.5708 72.1719 25.8833 72.1719C26.2778 72.1719 26.6313 72.2402 26.9438 72.377C27.2563 72.5098 27.522 72.7012 27.7407 72.9512C27.9634 73.2012 28.1333 73.502 28.2505 73.8535C28.3677 74.2051 28.4263 74.5977 28.4263 75.0312C28.4263 75.4414 28.3696 75.8184 28.2563 76.1621C28.147 76.5059 27.9809 76.8066 27.7583 77.0645C27.5356 77.3184 27.2544 77.5156 26.9145 77.6562C26.5786 77.7969 26.1821 77.8672 25.7251 77.8672C25.3813 77.8672 25.0552 77.8203 24.7466 77.7266C24.4419 77.6289 24.1684 77.4824 23.9263 77.2871C23.688 77.0879 23.4927 76.8418 23.3403 76.5488C23.1919 76.252 23.0981 75.9043 23.0591 75.5059H24.0903C24.1372 75.8262 24.2309 76.0957 24.3716 76.3145C24.5122 76.5332 24.6958 76.6992 24.9223 76.8125C25.1528 76.9219 25.4204 76.9766 25.7251 76.9766C25.9829 76.9766 26.2114 76.9316 26.4106 76.8418C26.6098 76.752 26.7778 76.623 26.9145 76.4551C27.0513 76.2871 27.1548 76.084 27.2251 75.8457C27.2993 75.6074 27.3364 75.3398 27.3364 75.043C27.3364 74.7734 27.2993 74.5234 27.2251 74.293C27.1509 74.0625 27.0395 73.8613 26.8911 73.6895C26.7466 73.5176 26.5688 73.3848 26.3579 73.291C26.147 73.1934 25.9048 73.1445 25.6313 73.1445C25.2681 73.1445 24.9927 73.1934 24.8052 73.291C24.6216 73.3887 24.4321 73.5215 24.2368 73.6895Z" fill="#333333"/>
<path d="M12.928 2.42188V11H11.844V3.77539L9.65843 4.57227V3.59375L12.758 2.42188H12.928ZM21.4709 6.05469V7.35547C21.4709 8.05469 21.4084 8.64453 21.2834 9.125C21.1584 9.60547 20.9787 9.99219 20.7444 10.2852C20.51 10.5781 20.2268 10.791 19.8948 10.9238C19.5666 11.0527 19.1955 11.1172 18.7815 11.1172C18.4534 11.1172 18.1506 11.0762 17.8733 10.9941C17.5959 10.9121 17.3459 10.7812 17.1233 10.6016C16.9045 10.418 16.717 10.1797 16.5608 9.88672C16.4045 9.59375 16.2854 9.23828 16.2034 8.82031C16.1213 8.40234 16.0803 7.91406 16.0803 7.35547V6.05469C16.0803 5.35547 16.1428 4.76953 16.2678 4.29688C16.3967 3.82422 16.5784 3.44531 16.8127 3.16016C17.0471 2.87109 17.3284 2.66406 17.6565 2.53906C17.9885 2.41406 18.3596 2.35156 18.7698 2.35156C19.1018 2.35156 19.4065 2.39258 19.6838 2.47461C19.9651 2.55273 20.2151 2.67969 20.4338 2.85547C20.6526 3.02734 20.8381 3.25781 20.9905 3.54688C21.1467 3.83203 21.2659 4.18164 21.3479 4.5957C21.4299 5.00977 21.4709 5.49609 21.4709 6.05469ZM20.3811 7.53125V5.87305C20.3811 5.49023 20.3576 5.1543 20.3108 4.86523C20.2678 4.57227 20.2034 4.32227 20.1174 4.11523C20.0315 3.9082 19.9221 3.74023 19.7893 3.61133C19.6604 3.48242 19.51 3.38867 19.3381 3.33008C19.1701 3.26758 18.9807 3.23633 18.7698 3.23633C18.5119 3.23633 18.2834 3.28516 18.0842 3.38281C17.885 3.47656 17.717 3.62695 17.5803 3.83398C17.4475 4.04102 17.3459 4.3125 17.2756 4.64844C17.2053 4.98438 17.1701 5.39258 17.1701 5.87305V7.53125C17.1701 7.91406 17.1916 8.25195 17.2346 8.54492C17.2815 8.83789 17.3498 9.0918 17.4397 9.30664C17.5295 9.51758 17.6389 9.69141 17.7678 9.82812C17.8967 9.96484 18.0451 10.0664 18.2131 10.1328C18.385 10.1953 18.5744 10.2266 18.7815 10.2266C19.0471 10.2266 19.2795 10.1758 19.4787 10.0742C19.678 9.97266 19.844 9.81445 19.9768 9.59961C20.1135 9.38086 20.2151 9.10156 20.2815 8.76172C20.3479 8.41797 20.3811 8.00781 20.3811 7.53125ZM28.2209 6.05469V7.35547C28.2209 8.05469 28.1584 8.64453 28.0334 9.125C27.9084 9.60547 27.7287 9.99219 27.4944 10.2852C27.26 10.5781 26.9768 10.791 26.6448 10.9238C26.3166 11.0527 25.9455 11.1172 25.5315 11.1172C25.2034 11.1172 24.9006 11.0762 24.6233 10.9941C24.3459 10.9121 24.0959 10.7812 23.8733 10.6016C23.6545 10.418 23.467 10.1797 23.3108 9.88672C23.1545 9.59375 23.0354 9.23828 22.9534 8.82031C22.8713 8.40234 22.8303 7.91406 22.8303 7.35547V6.05469C22.8303 5.35547 22.8928 4.76953 23.0178 4.29688C23.1467 3.82422 23.3284 3.44531 23.5627 3.16016C23.7971 2.87109 24.0784 2.66406 24.4065 2.53906C24.7385 2.41406 25.1096 2.35156 25.5198 2.35156C25.8518 2.35156 26.1565 2.39258 26.4338 2.47461C26.7151 2.55273 26.9651 2.67969 27.1838 2.85547C27.4026 3.02734 27.5881 3.25781 27.7405 3.54688C27.8967 3.83203 28.0159 4.18164 28.0979 4.5957C28.1799 5.00977 28.2209 5.49609 28.2209 6.05469ZM27.1311 7.53125V5.87305C27.1311 5.49023 27.1076 5.1543 27.0608 4.86523C27.0178 4.57227 26.9534 4.32227 26.8674 4.11523C26.7815 3.9082 26.6721 3.74023 26.5393 3.61133C26.4104 3.48242 26.26 3.38867 26.0881 3.33008C25.9201 3.26758 25.7307 3.23633 25.5198 3.23633C25.2619 3.23633 25.0334 3.28516 24.8342 3.38281C24.635 3.47656 24.467 3.62695 24.3303 3.83398C24.1975 4.04102 24.0959 4.3125 24.0256 4.64844C23.9553 4.98438 23.9201 5.39258 23.9201 5.87305V7.53125C23.9201 7.91406 23.9416 8.25195 23.9846 8.54492C24.0315 8.83789 24.0998 9.0918 24.1897 9.30664C24.2795 9.51758 24.3889 9.69141 24.5178 9.82812C24.6467 9.96484 24.7951 10.0664 24.9631 10.1328C25.135 10.1953 25.3244 10.2266 25.5315 10.2266C25.7971 10.2266 26.0295 10.1758 26.2287 10.0742C26.428 9.97266 26.594 9.81445 26.7268 9.59961C26.8635 9.38086 26.9651 9.10156 27.0315 8.76172C27.0979 8.41797 27.1311 8.00781 27.1311 7.53125Z" fill="#333333"/>
<path d="M85.2513 295.14C84.2247 295.14 83.3427 294.935 82.6053 294.524C81.8773 294.104 81.3173 293.516 80.9253 292.76C80.5333 291.995 80.3373 291.094 80.3373 290.058C80.3373 289.283 80.4493 288.588 80.6733 287.972C80.8973 287.347 81.2193 286.815 81.6393 286.376C82.0593 285.928 82.5727 285.587 83.1793 285.354C83.7953 285.111 84.486 284.99 85.2513 284.99C85.7647 284.99 86.2687 285.055 86.7633 285.186C87.258 285.317 87.692 285.503 88.0653 285.746C88.2613 285.867 88.392 286.017 88.4573 286.194C88.5227 286.362 88.5367 286.53 88.4993 286.698C88.462 286.857 88.3827 286.992 88.2613 287.104C88.1493 287.216 88.0047 287.281 87.8273 287.3C87.6593 287.309 87.4727 287.249 87.2673 287.118C86.978 286.931 86.6653 286.796 86.3293 286.712C85.9933 286.628 85.6527 286.586 85.3073 286.586C84.6447 286.586 84.0847 286.721 83.6273 286.992C83.17 287.263 82.8247 287.655 82.5913 288.168C82.358 288.681 82.2413 289.311 82.2413 290.058C82.2413 290.795 82.358 291.425 82.5913 291.948C82.8247 292.471 83.17 292.867 83.6273 293.138C84.0847 293.409 84.6447 293.544 85.3073 293.544C85.662 293.544 86.012 293.502 86.3573 293.418C86.7027 293.325 87.0293 293.185 87.3373 292.998C87.5427 292.877 87.7247 292.825 87.8833 292.844C88.0513 292.853 88.1913 292.909 88.3033 293.012C88.4153 293.115 88.49 293.245 88.5273 293.404C88.5647 293.553 88.5553 293.712 88.4993 293.88C88.4433 294.039 88.3313 294.179 88.1633 294.3C87.79 294.571 87.342 294.781 86.8193 294.93C86.306 295.07 85.7833 295.14 85.2513 295.14ZM92.3072 295.14C91.7379 295.14 91.2666 295.037 90.8932 294.832C90.5199 294.617 90.2399 294.3 90.0532 293.88C89.8759 293.46 89.7872 292.937 89.7872 292.312V288.924C89.7872 288.625 89.8619 288.406 90.0112 288.266C90.1606 288.117 90.3752 288.042 90.6552 288.042C90.9352 288.042 91.1499 288.117 91.2992 288.266C91.4579 288.406 91.5372 288.625 91.5372 288.924V292.34C91.5372 292.825 91.6352 293.185 91.8312 293.418C92.0272 293.651 92.3399 293.768 92.7692 293.768C93.2359 293.768 93.6186 293.609 93.9172 293.292C94.2159 292.965 94.3652 292.536 94.3652 292.004V288.924C94.3652 288.625 94.4399 288.406 94.5892 288.266C94.7386 288.117 94.9532 288.042 95.2332 288.042C95.5132 288.042 95.7279 288.117 95.8772 288.266C96.0359 288.406 96.1152 288.625 96.1152 288.924V294.216C96.1152 294.813 95.8306 295.112 95.2612 295.112C94.9906 295.112 94.7806 295.037 94.6312 294.888C94.4819 294.729 94.4072 294.505 94.4072 294.216V293.152L94.6032 293.572C94.4072 294.076 94.1086 294.463 93.7072 294.734C93.3152 295.005 92.8486 295.14 92.3072 295.14ZM98.8327 295.112C98.5433 295.112 98.3193 295.037 98.1607 294.888C98.0113 294.729 97.9367 294.505 97.9367 294.216V288.924C97.9367 288.635 98.0113 288.415 98.1607 288.266C98.31 288.117 98.52 288.042 98.7907 288.042C99.0613 288.042 99.2713 288.117 99.4207 288.266C99.57 288.415 99.6447 288.635 99.6447 288.924V289.806H99.5047C99.6353 289.246 99.892 288.821 100.275 288.532C100.657 288.243 101.166 288.07 101.801 288.014C101.997 287.995 102.151 288.047 102.263 288.168C102.384 288.28 102.454 288.457 102.473 288.7C102.491 288.933 102.435 289.125 102.305 289.274C102.183 289.414 101.997 289.498 101.745 289.526L101.437 289.554C100.867 289.61 100.438 289.787 100.149 290.086C99.8593 290.375 99.7147 290.786 99.7147 291.318V294.216C99.7147 294.505 99.64 294.729 99.4907 294.888C99.3413 295.037 99.122 295.112 98.8327 295.112ZM106.952 295.14C106.345 295.14 105.836 295.037 105.426 294.832C105.024 294.627 104.726 294.328 104.53 293.936C104.334 293.535 104.236 293.04 104.236 292.452V289.47H103.508C103.284 289.47 103.111 289.414 102.99 289.302C102.868 289.181 102.808 289.017 102.808 288.812C102.808 288.597 102.868 288.434 102.99 288.322C103.111 288.21 103.284 288.154 103.508 288.154H104.236V286.88C104.236 286.591 104.31 286.371 104.46 286.222C104.618 286.073 104.838 285.998 105.118 285.998C105.398 285.998 105.612 286.073 105.762 286.222C105.911 286.371 105.986 286.591 105.986 286.88V288.154H107.47C107.694 288.154 107.866 288.21 107.988 288.322C108.109 288.434 108.17 288.597 108.17 288.812C108.17 289.017 108.109 289.181 107.988 289.302C107.866 289.414 107.694 289.47 107.47 289.47H105.986V292.354C105.986 292.802 106.084 293.138 106.28 293.362C106.476 293.586 106.793 293.698 107.232 293.698C107.39 293.698 107.53 293.684 107.652 293.656C107.773 293.628 107.88 293.609 107.974 293.6C108.086 293.591 108.179 293.628 108.254 293.712C108.328 293.787 108.366 293.945 108.366 294.188C108.366 294.375 108.333 294.543 108.268 294.692C108.212 294.832 108.104 294.93 107.946 294.986C107.824 295.023 107.666 295.056 107.47 295.084C107.274 295.121 107.101 295.14 106.952 295.14ZM110.234 295.098C109.954 295.098 109.74 295.014 109.59 294.846C109.441 294.678 109.366 294.445 109.366 294.146V289.008C109.366 288.7 109.441 288.467 109.59 288.308C109.74 288.14 109.954 288.056 110.234 288.056C110.514 288.056 110.729 288.14 110.878 288.308C111.037 288.467 111.116 288.7 111.116 289.008V294.146C111.116 294.445 111.042 294.678 110.892 294.846C110.743 295.014 110.524 295.098 110.234 295.098ZM110.234 286.754C109.908 286.754 109.651 286.675 109.464 286.516C109.287 286.348 109.198 286.119 109.198 285.83C109.198 285.531 109.287 285.303 109.464 285.144C109.651 284.985 109.908 284.906 110.234 284.906C110.57 284.906 110.827 284.985 111.004 285.144C111.182 285.303 111.27 285.531 111.27 285.83C111.27 286.119 111.182 286.348 111.004 286.516C110.827 286.675 110.57 286.754 110.234 286.754ZM115.567 295.14C114.969 295.14 114.442 294.995 113.985 294.706C113.537 294.417 113.187 294.006 112.935 293.474C112.683 292.933 112.557 292.298 112.557 291.57C112.557 290.833 112.683 290.203 112.935 289.68C113.187 289.148 113.537 288.737 113.985 288.448C114.442 288.159 114.969 288.014 115.567 288.014C116.136 288.014 116.631 288.154 117.051 288.434C117.48 288.714 117.769 289.083 117.919 289.54H117.765V285.9C117.765 285.611 117.839 285.391 117.989 285.242C118.138 285.093 118.353 285.018 118.633 285.018C118.913 285.018 119.127 285.093 119.277 285.242C119.435 285.391 119.515 285.611 119.515 285.9V294.216C119.515 294.505 119.44 294.729 119.291 294.888C119.141 295.037 118.927 295.112 118.647 295.112C118.367 295.112 118.152 295.037 118.003 294.888C117.853 294.729 117.779 294.505 117.779 294.216V293.124L117.933 293.544C117.793 294.029 117.508 294.417 117.079 294.706C116.649 294.995 116.145 295.14 115.567 295.14ZM116.057 293.81C116.402 293.81 116.705 293.726 116.967 293.558C117.228 293.39 117.429 293.143 117.569 292.816C117.718 292.48 117.793 292.065 117.793 291.57C117.793 290.823 117.634 290.268 117.317 289.904C116.999 289.531 116.579 289.344 116.057 289.344C115.711 289.344 115.408 289.428 115.147 289.596C114.885 289.755 114.68 290.002 114.531 290.338C114.391 290.665 114.321 291.075 114.321 291.57C114.321 292.307 114.479 292.867 114.797 293.25C115.114 293.623 115.534 293.81 116.057 293.81ZM123.583 295.14C123.089 295.14 122.645 295.047 122.253 294.86C121.871 294.664 121.567 294.403 121.343 294.076C121.129 293.749 121.021 293.381 121.021 292.97C121.021 292.466 121.152 292.069 121.413 291.78C121.675 291.481 122.099 291.267 122.687 291.136C123.275 291.005 124.064 290.94 125.053 290.94H125.753V291.948H125.067C124.489 291.948 124.027 291.976 123.681 292.032C123.336 292.088 123.089 292.186 122.939 292.326C122.799 292.457 122.729 292.643 122.729 292.886C122.729 293.194 122.837 293.446 123.051 293.642C123.266 293.838 123.565 293.936 123.947 293.936C124.255 293.936 124.526 293.866 124.759 293.726C125.002 293.577 125.193 293.376 125.333 293.124C125.473 292.872 125.543 292.583 125.543 292.256V290.646C125.543 290.179 125.441 289.843 125.235 289.638C125.03 289.433 124.685 289.33 124.199 289.33C123.929 289.33 123.635 289.363 123.317 289.428C123.009 289.493 122.683 289.605 122.337 289.764C122.16 289.848 122.001 289.871 121.861 289.834C121.731 289.797 121.628 289.722 121.553 289.61C121.479 289.489 121.441 289.358 121.441 289.218C121.441 289.078 121.479 288.943 121.553 288.812C121.628 288.672 121.754 288.569 121.931 288.504C122.361 288.327 122.771 288.201 123.163 288.126C123.565 288.051 123.929 288.014 124.255 288.014C124.927 288.014 125.478 288.117 125.907 288.322C126.346 288.527 126.673 288.84 126.887 289.26C127.102 289.671 127.209 290.203 127.209 290.856V294.216C127.209 294.505 127.139 294.729 126.999 294.888C126.859 295.037 126.659 295.112 126.397 295.112C126.136 295.112 125.931 295.037 125.781 294.888C125.641 294.729 125.571 294.505 125.571 294.216V293.544H125.683C125.618 293.871 125.487 294.155 125.291 294.398C125.105 294.631 124.867 294.813 124.577 294.944C124.288 295.075 123.957 295.14 123.583 295.14ZM131.491 295.14C131.09 295.14 130.665 295.098 130.217 295.014C129.769 294.93 129.368 294.785 129.013 294.58C128.864 294.487 128.757 294.379 128.691 294.258C128.635 294.127 128.612 294.001 128.621 293.88C128.64 293.749 128.687 293.637 128.761 293.544C128.845 293.451 128.948 293.39 129.069 293.362C129.2 293.334 129.34 293.357 129.489 293.432C129.863 293.609 130.213 293.735 130.539 293.81C130.866 293.875 131.188 293.908 131.505 293.908C131.953 293.908 132.285 293.833 132.499 293.684C132.723 293.525 132.835 293.32 132.835 293.068C132.835 292.853 132.761 292.69 132.611 292.578C132.471 292.457 132.257 292.368 131.967 292.312L130.567 292.046C129.989 291.934 129.545 291.724 129.237 291.416C128.939 291.099 128.789 290.693 128.789 290.198C128.789 289.75 128.911 289.363 129.153 289.036C129.405 288.709 129.751 288.457 130.189 288.28C130.628 288.103 131.132 288.014 131.701 288.014C132.112 288.014 132.495 288.061 132.849 288.154C133.213 288.238 133.563 288.373 133.899 288.56C134.039 288.635 134.133 288.733 134.179 288.854C134.235 288.975 134.249 289.101 134.221 289.232C134.193 289.353 134.137 289.465 134.053 289.568C133.969 289.661 133.862 289.722 133.731 289.75C133.61 289.769 133.47 289.741 133.311 289.666C133.022 289.517 132.742 289.409 132.471 289.344C132.21 289.279 131.958 289.246 131.715 289.246C131.258 289.246 130.917 289.325 130.693 289.484C130.479 289.643 130.371 289.853 130.371 290.114C130.371 290.31 130.437 290.473 130.567 290.604C130.698 290.735 130.899 290.823 131.169 290.87L132.569 291.136C133.176 291.248 133.633 291.453 133.941 291.752C134.259 292.051 134.417 292.452 134.417 292.956C134.417 293.637 134.151 294.174 133.619 294.566C133.087 294.949 132.378 295.14 131.491 295.14Z" fill="#333333"/>
<path d="M184.683 295.14C183.656 295.14 182.774 294.935 182.037 294.524C181.309 294.104 180.749 293.516 180.357 292.76C179.965 291.995 179.769 291.094 179.769 290.058C179.769 289.283 179.881 288.588 180.105 287.972C180.329 287.347 180.651 286.815 181.071 286.376C181.491 285.928 182.004 285.587 182.611 285.354C183.227 285.111 183.917 284.99 184.683 284.99C185.196 284.99 185.7 285.055 186.195 285.186C186.689 285.317 187.123 285.503 187.497 285.746C187.693 285.867 187.823 286.017 187.889 286.194C187.954 286.362 187.968 286.53 187.931 286.698C187.893 286.857 187.814 286.992 187.693 287.104C187.581 287.216 187.436 287.281 187.259 287.3C187.091 287.309 186.904 287.249 186.699 287.118C186.409 286.931 186.097 286.796 185.761 286.712C185.425 286.628 185.084 286.586 184.739 286.586C184.076 286.586 183.516 286.721 183.059 286.992C182.601 287.263 182.256 287.655 182.023 288.168C181.789 288.681 181.673 289.311 181.673 290.058C181.673 290.795 181.789 291.425 182.023 291.948C182.256 292.471 182.601 292.867 183.059 293.138C183.516 293.409 184.076 293.544 184.739 293.544C185.093 293.544 185.443 293.502 185.789 293.418C186.134 293.325 186.461 293.185 186.769 292.998C186.974 292.877 187.156 292.825 187.315 292.844C187.483 292.853 187.623 292.909 187.735 293.012C187.847 293.115 187.921 293.245 187.959 293.404C187.996 293.553 187.987 293.712 187.931 293.88C187.875 294.039 187.763 294.179 187.595 294.3C187.221 294.571 186.773 294.781 186.251 294.93C185.737 295.07 185.215 295.14 184.683 295.14ZM192.068 295.14C191.359 295.14 190.743 294.995 190.22 294.706C189.697 294.417 189.291 294.006 189.002 293.474C188.713 292.933 188.568 292.298 188.568 291.57C188.568 291.019 188.647 290.529 188.806 290.1C188.974 289.661 189.212 289.288 189.52 288.98C189.828 288.663 190.197 288.425 190.626 288.266C191.055 288.098 191.536 288.014 192.068 288.014C192.777 288.014 193.393 288.159 193.916 288.448C194.439 288.737 194.845 289.148 195.134 289.68C195.423 290.212 195.568 290.842 195.568 291.57C195.568 292.121 195.484 292.615 195.316 293.054C195.157 293.493 194.924 293.871 194.616 294.188C194.308 294.496 193.939 294.734 193.51 294.902C193.081 295.061 192.6 295.14 192.068 295.14ZM192.068 293.81C192.413 293.81 192.717 293.726 192.978 293.558C193.239 293.39 193.44 293.143 193.58 292.816C193.729 292.48 193.804 292.065 193.804 291.57C193.804 290.823 193.645 290.268 193.328 289.904C193.011 289.531 192.591 289.344 192.068 289.344C191.723 289.344 191.419 289.428 191.158 289.596C190.897 289.755 190.691 290.002 190.542 290.338C190.402 290.665 190.332 291.075 190.332 291.57C190.332 292.307 190.491 292.867 190.808 293.25C191.125 293.623 191.545 293.81 192.068 293.81ZM197.908 295.112C197.628 295.112 197.414 295.037 197.264 294.888C197.115 294.729 197.04 294.505 197.04 294.216V288.924C197.04 288.635 197.115 288.415 197.264 288.266C197.414 288.117 197.624 288.042 197.894 288.042C198.165 288.042 198.375 288.117 198.524 288.266C198.674 288.415 198.748 288.635 198.748 288.924V289.946L198.594 289.526C198.781 289.059 199.07 288.691 199.462 288.42C199.854 288.149 200.321 288.014 200.862 288.014C201.413 288.014 201.866 288.145 202.22 288.406C202.575 288.667 202.822 289.069 202.962 289.61H202.766C202.953 289.115 203.261 288.728 203.69 288.448C204.12 288.159 204.614 288.014 205.174 288.014C205.697 288.014 206.126 288.117 206.462 288.322C206.808 288.527 207.064 288.84 207.232 289.26C207.4 289.671 207.484 290.193 207.484 290.828V294.216C207.484 294.505 207.405 294.729 207.246 294.888C207.097 295.037 206.882 295.112 206.602 295.112C206.322 295.112 206.108 295.037 205.958 294.888C205.809 294.729 205.734 294.505 205.734 294.216V290.898C205.734 290.375 205.646 289.993 205.468 289.75C205.3 289.507 205.011 289.386 204.6 289.386C204.143 289.386 203.784 289.549 203.522 289.876C203.261 290.193 203.13 290.637 203.13 291.206V294.216C203.13 294.505 203.056 294.729 202.906 294.888C202.757 295.037 202.542 295.112 202.262 295.112C201.982 295.112 201.763 295.037 201.604 294.888C201.455 294.729 201.38 294.505 201.38 294.216V290.898C201.38 290.375 201.292 289.993 201.114 289.75C200.946 289.507 200.662 289.386 200.26 289.386C199.803 289.386 199.444 289.549 199.182 289.876C198.921 290.193 198.79 290.637 198.79 291.206V294.216C198.79 294.813 198.496 295.112 197.908 295.112ZM212.664 295.14C211.889 295.14 211.222 294.995 210.662 294.706C210.102 294.417 209.668 294.006 209.36 293.474C209.061 292.942 208.912 292.312 208.912 291.584C208.912 290.875 209.056 290.254 209.346 289.722C209.644 289.19 210.05 288.775 210.564 288.476C211.087 288.168 211.679 288.014 212.342 288.014C212.827 288.014 213.261 288.093 213.644 288.252C214.036 288.411 214.367 288.639 214.638 288.938C214.918 289.237 215.128 289.601 215.268 290.03C215.417 290.45 215.492 290.926 215.492 291.458C215.492 291.626 215.431 291.757 215.31 291.85C215.198 291.934 215.035 291.976 214.82 291.976H210.326V290.968H214.26L214.036 291.178C214.036 290.749 213.971 290.389 213.84 290.1C213.718 289.811 213.536 289.591 213.294 289.442C213.06 289.283 212.767 289.204 212.412 289.204C212.02 289.204 211.684 289.297 211.404 289.484C211.133 289.661 210.923 289.918 210.774 290.254C210.634 290.581 210.564 290.973 210.564 291.43V291.528C210.564 292.293 210.741 292.867 211.096 293.25C211.46 293.623 211.992 293.81 212.692 293.81C212.935 293.81 213.205 293.782 213.504 293.726C213.812 293.661 214.101 293.553 214.372 293.404C214.568 293.292 214.741 293.245 214.89 293.264C215.039 293.273 215.156 293.325 215.24 293.418C215.333 293.511 215.389 293.628 215.408 293.768C215.427 293.899 215.399 294.034 215.324 294.174C215.259 294.314 215.142 294.435 214.974 294.538C214.647 294.743 214.269 294.897 213.84 295C213.42 295.093 213.028 295.14 212.664 295.14ZM217.746 295.112C217.466 295.112 217.251 295.037 217.102 294.888C216.952 294.729 216.878 294.505 216.878 294.216V288.924C216.878 288.635 216.952 288.415 217.102 288.266C217.251 288.117 217.461 288.042 217.732 288.042C218.002 288.042 218.212 288.117 218.362 288.266C218.511 288.415 218.586 288.635 218.586 288.924V289.876L218.432 289.526C218.637 289.031 218.954 288.658 219.384 288.406C219.822 288.145 220.317 288.014 220.868 288.014C221.418 288.014 221.871 288.117 222.226 288.322C222.58 288.527 222.846 288.84 223.024 289.26C223.201 289.671 223.29 290.193 223.29 290.828V294.216C223.29 294.505 223.215 294.729 223.066 294.888C222.916 295.037 222.702 295.112 222.422 295.112C222.142 295.112 221.922 295.037 221.764 294.888C221.614 294.729 221.54 294.505 221.54 294.216V290.912C221.54 290.38 221.437 289.993 221.232 289.75C221.036 289.507 220.728 289.386 220.308 289.386C219.794 289.386 219.384 289.549 219.076 289.876C218.777 290.193 218.628 290.618 218.628 291.15V294.216C218.628 294.813 218.334 295.112 217.746 295.112ZM228.203 295.14C227.597 295.14 227.088 295.037 226.677 294.832C226.276 294.627 225.977 294.328 225.781 293.936C225.585 293.535 225.487 293.04 225.487 292.452V289.47H224.759C224.535 289.47 224.363 289.414 224.241 289.302C224.12 289.181 224.059 289.017 224.059 288.812C224.059 288.597 224.12 288.434 224.241 288.322C224.363 288.21 224.535 288.154 224.759 288.154H225.487V286.88C225.487 286.591 225.562 286.371 225.711 286.222C225.87 286.073 226.089 285.998 226.369 285.998C226.649 285.998 226.864 286.073 227.013 286.222C227.163 286.371 227.237 286.591 227.237 286.88V288.154H228.721C228.945 288.154 229.118 288.21 229.239 288.322C229.361 288.434 229.421 288.597 229.421 288.812C229.421 289.017 229.361 289.181 229.239 289.302C229.118 289.414 228.945 289.47 228.721 289.47H227.237V292.354C227.237 292.802 227.335 293.138 227.531 293.362C227.727 293.586 228.045 293.698 228.483 293.698C228.642 293.698 228.782 293.684 228.903 293.656C229.025 293.628 229.132 293.609 229.225 293.6C229.337 293.591 229.431 293.628 229.505 293.712C229.58 293.787 229.617 293.945 229.617 294.188C229.617 294.375 229.585 294.543 229.519 294.692C229.463 294.832 229.356 294.93 229.197 294.986C229.076 295.023 228.917 295.056 228.721 295.084C228.525 295.121 228.353 295.14 228.203 295.14ZM232.694 295.14C232.2 295.14 231.756 295.047 231.364 294.86C230.982 294.664 230.678 294.403 230.454 294.076C230.24 293.749 230.132 293.381 230.132 292.97C230.132 292.466 230.263 292.069 230.524 291.78C230.786 291.481 231.21 291.267 231.798 291.136C232.386 291.005 233.175 290.94 234.164 290.94H234.864V291.948H234.178C233.6 291.948 233.138 291.976 232.792 292.032C232.447 292.088 232.2 292.186 232.05 292.326C231.91 292.457 231.84 292.643 231.84 292.886C231.84 293.194 231.948 293.446 232.162 293.642C232.377 293.838 232.676 293.936 233.058 293.936C233.366 293.936 233.637 293.866 233.87 293.726C234.113 293.577 234.304 293.376 234.444 293.124C234.584 292.872 234.654 292.583 234.654 292.256V290.646C234.654 290.179 234.552 289.843 234.346 289.638C234.141 289.433 233.796 289.33 233.31 289.33C233.04 289.33 232.746 289.363 232.428 289.428C232.12 289.493 231.794 289.605 231.448 289.764C231.271 289.848 231.112 289.871 230.972 289.834C230.842 289.797 230.739 289.722 230.664 289.61C230.59 289.489 230.552 289.358 230.552 289.218C230.552 289.078 230.59 288.943 230.664 288.812C230.739 288.672 230.865 288.569 231.042 288.504C231.472 288.327 231.882 288.201 232.274 288.126C232.676 288.051 233.04 288.014 233.366 288.014C234.038 288.014 234.589 288.117 235.018 288.322C235.457 288.527 235.784 288.84 235.998 289.26C236.213 289.671 236.32 290.203 236.32 290.856V294.216C236.32 294.505 236.25 294.729 236.11 294.888C235.97 295.037 235.77 295.112 235.508 295.112C235.247 295.112 235.042 295.037 234.892 294.888C234.752 294.729 234.682 294.505 234.682 294.216V293.544H234.794C234.729 293.871 234.598 294.155 234.402 294.398C234.216 294.631 233.978 294.813 233.688 294.944C233.399 295.075 233.068 295.14 232.694 295.14ZM234.094 287.16C234.001 287.291 233.889 287.365 233.758 287.384C233.628 287.403 233.502 287.379 233.38 287.314C233.259 287.249 233.17 287.155 233.114 287.034C233.068 286.913 233.082 286.777 233.156 286.628L234.22 284.542C234.304 284.365 234.416 284.253 234.556 284.206C234.696 284.15 234.841 284.141 234.99 284.178C235.14 284.215 235.266 284.285 235.368 284.388C235.48 284.491 235.546 284.617 235.564 284.766C235.592 284.906 235.555 285.051 235.452 285.2L234.094 287.16ZM238.992 295.112C238.703 295.112 238.479 295.037 238.32 294.888C238.171 294.729 238.096 294.505 238.096 294.216V288.924C238.096 288.635 238.171 288.415 238.32 288.266C238.47 288.117 238.68 288.042 238.95 288.042C239.221 288.042 239.431 288.117 239.58 288.266C239.73 288.415 239.804 288.635 239.804 288.924V289.806H239.664C239.795 289.246 240.052 288.821 240.434 288.532C240.817 288.243 241.326 288.07 241.96 288.014C242.156 287.995 242.31 288.047 242.422 288.168C242.544 288.28 242.614 288.457 242.632 288.7C242.651 288.933 242.595 289.125 242.464 289.274C242.343 289.414 242.156 289.498 241.904 289.526L241.596 289.554C241.027 289.61 240.598 289.787 240.308 290.086C240.019 290.375 239.874 290.786 239.874 291.318V294.216C239.874 294.505 239.8 294.729 239.65 294.888C239.501 295.037 239.282 295.112 238.992 295.112ZM244.447 295.098C244.167 295.098 243.952 295.014 243.803 294.846C243.654 294.678 243.579 294.445 243.579 294.146V289.008C243.579 288.7 243.654 288.467 243.803 288.308C243.952 288.14 244.167 288.056 244.447 288.056C244.727 288.056 244.942 288.14 245.091 288.308C245.25 288.467 245.329 288.7 245.329 289.008V294.146C245.329 294.445 245.254 294.678 245.105 294.846C244.956 295.014 244.736 295.098 244.447 295.098ZM244.447 286.754C244.12 286.754 243.864 286.675 243.677 286.516C243.5 286.348 243.411 286.119 243.411 285.83C243.411 285.531 243.5 285.303 243.677 285.144C243.864 284.985 244.12 284.906 244.447 284.906C244.783 284.906 245.04 284.985 245.217 285.144C245.394 285.303 245.483 285.531 245.483 285.83C245.483 286.119 245.394 286.348 245.217 286.516C245.04 286.675 244.783 286.754 244.447 286.754ZM250.269 295.14C249.56 295.14 248.944 294.995 248.421 294.706C247.899 294.417 247.493 294.006 247.203 293.474C246.914 292.933 246.769 292.298 246.769 291.57C246.769 291.019 246.849 290.529 247.007 290.1C247.175 289.661 247.413 289.288 247.721 288.98C248.029 288.663 248.398 288.425 248.827 288.266C249.257 288.098 249.737 288.014 250.269 288.014C250.979 288.014 251.595 288.159 252.117 288.448C252.64 288.737 253.046 289.148 253.335 289.68C253.625 290.212 253.769 290.842 253.769 291.57C253.769 292.121 253.685 292.615 253.517 293.054C253.359 293.493 253.125 293.871 252.817 294.188C252.509 294.496 252.141 294.734 251.711 294.902C251.282 295.061 250.801 295.14 250.269 295.14ZM250.269 293.81C250.615 293.81 250.918 293.726 251.179 293.558C251.441 293.39 251.641 293.143 251.781 292.816C251.931 292.48 252.005 292.065 252.005 291.57C252.005 290.823 251.847 290.268 251.529 289.904C251.212 289.531 250.792 289.344 250.269 289.344C249.924 289.344 249.621 289.428 249.359 289.596C249.098 289.755 248.893 290.002 248.743 290.338C248.603 290.665 248.533 291.075 248.533 291.57C248.533 292.307 248.692 292.867 249.009 293.25C249.327 293.623 249.747 293.81 250.269 293.81ZM257.72 295.14C257.318 295.14 256.894 295.098 256.446 295.014C255.998 294.93 255.596 294.785 255.242 294.58C255.092 294.487 254.985 294.379 254.92 294.258C254.864 294.127 254.84 294.001 254.85 293.88C254.868 293.749 254.915 293.637 254.99 293.544C255.074 293.451 255.176 293.39 255.298 293.362C255.428 293.334 255.568 293.357 255.718 293.432C256.091 293.609 256.441 293.735 256.768 293.81C257.094 293.875 257.416 293.908 257.734 293.908C258.182 293.908 258.513 293.833 258.728 293.684C258.952 293.525 259.064 293.32 259.064 293.068C259.064 292.853 258.989 292.69 258.84 292.578C258.7 292.457 258.485 292.368 258.196 292.312L256.796 292.046C256.217 291.934 255.774 291.724 255.466 291.416C255.167 291.099 255.018 290.693 255.018 290.198C255.018 289.75 255.139 289.363 255.382 289.036C255.634 288.709 255.979 288.457 256.418 288.28C256.856 288.103 257.36 288.014 257.93 288.014C258.34 288.014 258.723 288.061 259.078 288.154C259.442 288.238 259.792 288.373 260.128 288.56C260.268 288.635 260.361 288.733 260.408 288.854C260.464 288.975 260.478 289.101 260.45 289.232C260.422 289.353 260.366 289.465 260.282 289.568C260.198 289.661 260.09 289.722 259.96 289.75C259.838 289.769 259.698 289.741 259.54 289.666C259.25 289.517 258.97 289.409 258.7 289.344C258.438 289.279 258.186 289.246 257.944 289.246C257.486 289.246 257.146 289.325 256.922 289.484C256.707 289.643 256.6 289.853 256.6 290.114C256.6 290.31 256.665 290.473 256.796 290.604C256.926 290.735 257.127 290.823 257.398 290.87L258.798 291.136C259.404 291.248 259.862 291.453 260.17 291.752C260.487 292.051 260.646 292.452 260.646 292.956C260.646 293.637 260.38 294.174 259.848 294.566C259.316 294.949 258.606 295.14 257.72 295.14Z" fill="#333333"/>
<path d="M314.403 295.14C313.376 295.14 312.494 294.935 311.757 294.524C311.029 294.104 310.469 293.516 310.077 292.76C309.685 291.995 309.489 291.094 309.489 290.058C309.489 289.283 309.601 288.588 309.825 287.972C310.049 287.347 310.371 286.815 310.791 286.376C311.211 285.928 311.724 285.587 312.331 285.354C312.947 285.111 313.637 284.99 314.403 284.99C314.916 284.99 315.42 285.055 315.915 285.186C316.409 285.317 316.843 285.503 317.217 285.746C317.413 285.867 317.543 286.017 317.609 286.194C317.674 286.362 317.688 286.53 317.651 286.698C317.613 286.857 317.534 286.992 317.413 287.104C317.301 287.216 317.156 287.281 316.979 287.3C316.811 287.309 316.624 287.249 316.419 287.118C316.129 286.931 315.817 286.796 315.481 286.712C315.145 286.628 314.804 286.586 314.459 286.586C313.796 286.586 313.236 286.721 312.779 286.992C312.321 287.263 311.976 287.655 311.743 288.168C311.509 288.681 311.393 289.311 311.393 290.058C311.393 290.795 311.509 291.425 311.743 291.948C311.976 292.471 312.321 292.867 312.779 293.138C313.236 293.409 313.796 293.544 314.459 293.544C314.813 293.544 315.163 293.502 315.509 293.418C315.854 293.325 316.181 293.185 316.489 292.998C316.694 292.877 316.876 292.825 317.035 292.844C317.203 292.853 317.343 292.909 317.455 293.012C317.567 293.115 317.641 293.245 317.679 293.404C317.716 293.553 317.707 293.712 317.651 293.88C317.595 294.039 317.483 294.179 317.315 294.3C316.941 294.571 316.493 294.781 315.971 294.93C315.457 295.07 314.935 295.14 314.403 295.14ZM321.788 295.14C321.079 295.14 320.463 294.995 319.94 294.706C319.417 294.417 319.011 294.006 318.722 293.474C318.433 292.933 318.288 292.298 318.288 291.57C318.288 291.019 318.367 290.529 318.526 290.1C318.694 289.661 318.932 289.288 319.24 288.98C319.548 288.663 319.917 288.425 320.346 288.266C320.775 288.098 321.256 288.014 321.788 288.014C322.497 288.014 323.113 288.159 323.636 288.448C324.159 288.737 324.565 289.148 324.854 289.68C325.143 290.212 325.288 290.842 325.288 291.57C325.288 292.121 325.204 292.615 325.036 293.054C324.877 293.493 324.644 293.871 324.336 294.188C324.028 294.496 323.659 294.734 323.23 294.902C322.801 295.061 322.32 295.14 321.788 295.14ZM321.788 293.81C322.133 293.81 322.437 293.726 322.698 293.558C322.959 293.39 323.16 293.143 323.3 292.816C323.449 292.48 323.524 292.065 323.524 291.57C323.524 290.823 323.365 290.268 323.048 289.904C322.731 289.531 322.311 289.344 321.788 289.344C321.443 289.344 321.139 289.428 320.878 289.596C320.617 289.755 320.411 290.002 320.262 290.338C320.122 290.665 320.052 291.075 320.052 291.57C320.052 292.307 320.211 292.867 320.528 293.25C320.845 293.623 321.265 293.81 321.788 293.81ZM327.628 295.112C327.348 295.112 327.134 295.037 326.984 294.888C326.835 294.729 326.76 294.505 326.76 294.216V288.924C326.76 288.635 326.835 288.415 326.984 288.266C327.134 288.117 327.344 288.042 327.614 288.042C327.885 288.042 328.095 288.117 328.244 288.266C328.394 288.415 328.468 288.635 328.468 288.924V289.946L328.314 289.526C328.501 289.059 328.79 288.691 329.182 288.42C329.574 288.149 330.041 288.014 330.582 288.014C331.133 288.014 331.586 288.145 331.94 288.406C332.295 288.667 332.542 289.069 332.682 289.61H332.486C332.673 289.115 332.981 288.728 333.41 288.448C333.84 288.159 334.334 288.014 334.894 288.014C335.417 288.014 335.846 288.117 336.182 288.322C336.528 288.527 336.784 288.84 336.952 289.26C337.12 289.671 337.204 290.193 337.204 290.828V294.216C337.204 294.505 337.125 294.729 336.966 294.888C336.817 295.037 336.602 295.112 336.322 295.112C336.042 295.112 335.828 295.037 335.678 294.888C335.529 294.729 335.454 294.505 335.454 294.216V290.898C335.454 290.375 335.366 289.993 335.188 289.75C335.02 289.507 334.731 289.386 334.32 289.386C333.863 289.386 333.504 289.549 333.242 289.876C332.981 290.193 332.85 290.637 332.85 291.206V294.216C332.85 294.505 332.776 294.729 332.626 294.888C332.477 295.037 332.262 295.112 331.982 295.112C331.702 295.112 331.483 295.037 331.324 294.888C331.175 294.729 331.1 294.505 331.1 294.216V290.898C331.1 290.375 331.012 289.993 330.834 289.75C330.666 289.507 330.382 289.386 329.98 289.386C329.523 289.386 329.164 289.549 328.902 289.876C328.641 290.193 328.51 290.637 328.51 291.206V294.216C328.51 294.813 328.216 295.112 327.628 295.112ZM339.878 297.632C339.598 297.632 339.383 297.557 339.234 297.408C339.084 297.259 339.01 297.039 339.01 296.75V288.924C339.01 288.635 339.084 288.415 339.234 288.266C339.383 288.117 339.593 288.042 339.864 288.042C340.144 288.042 340.358 288.117 340.508 288.266C340.657 288.415 340.732 288.635 340.732 288.924V290.016L340.578 289.596C340.718 289.12 341.002 288.737 341.432 288.448C341.87 288.159 342.379 288.014 342.958 288.014C343.555 288.014 344.078 288.159 344.526 288.448C344.983 288.737 345.338 289.148 345.59 289.68C345.842 290.203 345.968 290.833 345.968 291.57C345.968 292.298 345.842 292.933 345.59 293.474C345.338 294.006 344.988 294.417 344.54 294.706C344.092 294.995 343.564 295.14 342.958 295.14C342.388 295.14 341.889 295 341.46 294.72C341.03 294.431 340.741 294.057 340.592 293.6H340.76V296.75C340.76 297.039 340.68 297.259 340.522 297.408C340.372 297.557 340.158 297.632 339.878 297.632ZM342.468 293.81C342.813 293.81 343.116 293.726 343.378 293.558C343.639 293.39 343.84 293.143 343.98 292.816C344.129 292.48 344.204 292.065 344.204 291.57C344.204 290.823 344.045 290.268 343.728 289.904C343.41 289.531 342.99 289.344 342.468 289.344C342.122 289.344 341.819 289.428 341.558 289.596C341.296 289.755 341.091 290.002 340.942 290.338C340.802 290.665 340.732 291.075 340.732 291.57C340.732 292.307 340.89 292.867 341.208 293.25C341.525 293.623 341.945 293.81 342.468 293.81ZM349.658 295.14C349.164 295.14 348.72 295.047 348.328 294.86C347.946 294.664 347.642 294.403 347.418 294.076C347.204 293.749 347.096 293.381 347.096 292.97C347.096 292.466 347.227 292.069 347.488 291.78C347.75 291.481 348.174 291.267 348.762 291.136C349.35 291.005 350.139 290.94 351.128 290.94H351.828V291.948H351.142C350.564 291.948 350.102 291.976 349.756 292.032C349.411 292.088 349.164 292.186 349.014 292.326C348.874 292.457 348.804 292.643 348.804 292.886C348.804 293.194 348.912 293.446 349.126 293.642C349.341 293.838 349.64 293.936 350.022 293.936C350.33 293.936 350.601 293.866 350.834 293.726C351.077 293.577 351.268 293.376 351.408 293.124C351.548 292.872 351.618 292.583 351.618 292.256V290.646C351.618 290.179 351.516 289.843 351.31 289.638C351.105 289.433 350.76 289.33 350.274 289.33C350.004 289.33 349.71 289.363 349.392 289.428C349.084 289.493 348.758 289.605 348.412 289.764C348.235 289.848 348.076 289.871 347.936 289.834C347.806 289.797 347.703 289.722 347.628 289.61C347.554 289.489 347.516 289.358 347.516 289.218C347.516 289.078 347.554 288.943 347.628 288.812C347.703 288.672 347.829 288.569 348.006 288.504C348.436 288.327 348.846 288.201 349.238 288.126C349.64 288.051 350.004 288.014 350.33 288.014C351.002 288.014 351.553 288.117 351.982 288.322C352.421 288.527 352.748 288.84 352.962 289.26C353.177 289.671 353.284 290.203 353.284 290.856V294.216C353.284 294.505 353.214 294.729 353.074 294.888C352.934 295.037 352.734 295.112 352.472 295.112C352.211 295.112 352.006 295.037 351.856 294.888C351.716 294.729 351.646 294.505 351.646 294.216V293.544H351.758C351.693 293.871 351.562 294.155 351.366 294.398C351.18 294.631 350.942 294.813 350.652 294.944C350.363 295.075 350.032 295.14 349.658 295.14ZM355.956 295.112C355.667 295.112 355.443 295.037 355.284 294.888C355.135 294.729 355.06 294.505 355.06 294.216V288.924C355.06 288.635 355.135 288.415 355.284 288.266C355.434 288.117 355.644 288.042 355.914 288.042C356.185 288.042 356.395 288.117 356.544 288.266C356.694 288.415 356.768 288.635 356.768 288.924V289.806H356.628C356.759 289.246 357.016 288.821 357.398 288.532C357.781 288.243 358.29 288.07 358.924 288.014C359.12 287.995 359.274 288.047 359.386 288.168C359.508 288.28 359.578 288.457 359.596 288.7C359.615 288.933 359.559 289.125 359.428 289.274C359.307 289.414 359.12 289.498 358.868 289.526L358.56 289.554C357.991 289.61 357.562 289.787 357.272 290.086C356.983 290.375 356.838 290.786 356.838 291.318V294.216C356.838 294.505 356.764 294.729 356.614 294.888C356.465 295.037 356.246 295.112 355.956 295.112ZM364.075 295.14C363.469 295.14 362.96 295.037 362.549 294.832C362.148 294.627 361.849 294.328 361.653 293.936C361.457 293.535 361.359 293.04 361.359 292.452V289.47H360.631C360.407 289.47 360.235 289.414 360.113 289.302C359.992 289.181 359.931 289.017 359.931 288.812C359.931 288.597 359.992 288.434 360.113 288.322C360.235 288.21 360.407 288.154 360.631 288.154H361.359V286.88C361.359 286.591 361.434 286.371 361.583 286.222C361.742 286.073 361.961 285.998 362.241 285.998C362.521 285.998 362.736 286.073 362.885 286.222C363.035 286.371 363.109 286.591 363.109 286.88V288.154H364.593C364.817 288.154 364.99 288.21 365.111 288.322C365.233 288.434 365.293 288.597 365.293 288.812C365.293 289.017 365.233 289.181 365.111 289.302C364.99 289.414 364.817 289.47 364.593 289.47H363.109V292.354C363.109 292.802 363.207 293.138 363.403 293.362C363.599 293.586 363.917 293.698 364.355 293.698C364.514 293.698 364.654 293.684 364.775 293.656C364.897 293.628 365.004 293.609 365.097 293.6C365.209 293.591 365.303 293.628 365.377 293.712C365.452 293.787 365.489 293.945 365.489 294.188C365.489 294.375 365.457 294.543 365.391 294.692C365.335 294.832 365.228 294.93 365.069 294.986C364.948 295.023 364.789 295.056 364.593 295.084C364.397 295.121 364.225 295.14 364.075 295.14ZM367.358 295.098C367.078 295.098 366.864 295.014 366.714 294.846C366.565 294.678 366.49 294.445 366.49 294.146V289.008C366.49 288.7 366.565 288.467 366.714 288.308C366.864 288.14 367.078 288.056 367.358 288.056C367.638 288.056 367.853 288.14 368.002 288.308C368.161 288.467 368.24 288.7 368.24 289.008V294.146C368.24 294.445 368.166 294.678 368.016 294.846C367.867 295.014 367.648 295.098 367.358 295.098ZM367.358 286.754C367.032 286.754 366.775 286.675 366.588 286.516C366.411 286.348 366.322 286.119 366.322 285.83C366.322 285.531 366.411 285.303 366.588 285.144C366.775 284.985 367.032 284.906 367.358 284.906C367.694 284.906 367.951 284.985 368.128 285.144C368.306 285.303 368.394 285.531 368.394 285.83C368.394 286.119 368.306 286.348 368.128 286.516C367.951 286.675 367.694 286.754 367.358 286.754ZM372.397 295.14C371.622 295.14 371.039 294.921 370.647 294.482C370.255 294.034 370.059 293.381 370.059 292.522V285.9C370.059 285.611 370.133 285.391 370.283 285.242C370.432 285.093 370.647 285.018 370.927 285.018C371.207 285.018 371.421 285.093 371.571 285.242C371.729 285.391 371.809 285.611 371.809 285.9V292.438C371.809 292.867 371.897 293.185 372.075 293.39C372.261 293.595 372.523 293.698 372.859 293.698C372.933 293.698 373.003 293.698 373.069 293.698C373.134 293.689 373.199 293.679 373.265 293.67C373.395 293.651 373.484 293.689 373.531 293.782C373.577 293.866 373.601 294.043 373.601 294.314C373.601 294.547 373.554 294.729 373.461 294.86C373.367 294.991 373.213 295.07 372.999 295.098C372.905 295.107 372.807 295.117 372.705 295.126C372.602 295.135 372.499 295.14 372.397 295.14ZM375.397 295.112C375.117 295.112 374.903 295.037 374.753 294.888C374.604 294.729 374.529 294.505 374.529 294.216V285.9C374.529 285.611 374.604 285.391 374.753 285.242C374.903 285.093 375.117 285.018 375.397 285.018C375.677 285.018 375.892 285.093 376.041 285.242C376.2 285.391 376.279 285.611 376.279 285.9V289.526H376.083C376.289 289.031 376.606 288.658 377.035 288.406C377.474 288.145 377.969 288.014 378.519 288.014C379.07 288.014 379.523 288.117 379.877 288.322C380.232 288.527 380.498 288.84 380.675 289.26C380.853 289.671 380.941 290.193 380.941 290.828V294.216C380.941 294.505 380.867 294.729 380.717 294.888C380.568 295.037 380.353 295.112 380.073 295.112C379.793 295.112 379.574 295.037 379.415 294.888C379.266 294.729 379.191 294.505 379.191 294.216V290.912C379.191 290.38 379.089 289.993 378.883 289.75C378.687 289.507 378.379 289.386 377.959 289.386C377.446 289.386 377.035 289.549 376.727 289.876C376.429 290.193 376.279 290.618 376.279 291.15V294.216C376.279 294.813 375.985 295.112 375.397 295.112ZM384.973 295.14C384.478 295.14 384.035 295.047 383.643 294.86C383.26 294.664 382.957 294.403 382.733 294.076C382.518 293.749 382.411 293.381 382.411 292.97C382.411 292.466 382.541 292.069 382.803 291.78C383.064 291.481 383.489 291.267 384.077 291.136C384.665 291.005 385.453 290.94 386.443 290.94H387.143V291.948H386.457C385.878 291.948 385.416 291.976 385.071 292.032C384.725 292.088 384.478 292.186 384.329 292.326C384.189 292.457 384.119 292.643 384.119 292.886C384.119 293.194 384.226 293.446 384.441 293.642C384.655 293.838 384.954 293.936 385.337 293.936C385.645 293.936 385.915 293.866 386.149 293.726C386.391 293.577 386.583 293.376 386.723 293.124C386.863 292.872 386.933 292.583 386.933 292.256V290.646C386.933 290.179 386.83 289.843 386.625 289.638C386.419 289.433 386.074 289.33 385.589 289.33C385.318 289.33 385.024 289.363 384.707 289.428C384.399 289.493 384.072 289.605 383.727 289.764C383.549 289.848 383.391 289.871 383.251 289.834C383.12 289.797 383.017 289.722 382.943 289.61C382.868 289.489 382.831 289.358 382.831 289.218C382.831 289.078 382.868 288.943 382.943 288.812C383.017 288.672 383.143 288.569 383.321 288.504C383.75 288.327 384.161 288.201 384.553 288.126C384.954 288.051 385.318 288.014 385.645 288.014C386.317 288.014 386.867 288.117 387.297 288.322C387.735 288.527 388.062 288.84 388.277 289.26C388.491 289.671 388.599 290.203 388.599 290.856V294.216C388.599 294.505 388.529 294.729 388.389 294.888C388.249 295.037 388.048 295.112 387.787 295.112C387.525 295.112 387.32 295.037 387.171 294.888C387.031 294.729 386.961 294.505 386.961 294.216V293.544H387.073C387.007 293.871 386.877 294.155 386.681 294.398C386.494 294.631 386.256 294.813 385.967 294.944C385.677 295.075 385.346 295.14 384.973 295.14ZM391.271 295.112C390.991 295.112 390.776 295.037 390.627 294.888C390.478 294.729 390.403 294.505 390.403 294.216V288.924C390.403 288.635 390.478 288.415 390.627 288.266C390.776 288.117 390.986 288.042 391.257 288.042C391.528 288.042 391.738 288.117 391.887 288.266C392.036 288.415 392.111 288.635 392.111 288.924V289.946L391.957 289.526C392.144 289.059 392.433 288.691 392.825 288.42C393.217 288.149 393.684 288.014 394.225 288.014C394.776 288.014 395.228 288.145 395.583 288.406C395.938 288.667 396.185 289.069 396.325 289.61H396.129C396.316 289.115 396.624 288.728 397.053 288.448C397.482 288.159 397.977 288.014 398.537 288.014C399.06 288.014 399.489 288.117 399.825 288.322C400.17 288.527 400.427 288.84 400.595 289.26C400.763 289.671 400.847 290.193 400.847 290.828V294.216C400.847 294.505 400.768 294.729 400.609 294.888C400.46 295.037 400.245 295.112 399.965 295.112C399.685 295.112 399.47 295.037 399.321 294.888C399.172 294.729 399.097 294.505 399.097 294.216V290.898C399.097 290.375 399.008 289.993 398.831 289.75C398.663 289.507 398.374 289.386 397.963 289.386C397.506 289.386 397.146 289.549 396.885 289.876C396.624 290.193 396.493 290.637 396.493 291.206V294.216C396.493 294.505 396.418 294.729 396.269 294.888C396.12 295.037 395.905 295.112 395.625 295.112C395.345 295.112 395.126 295.037 394.967 294.888C394.818 294.729 394.743 294.505 394.743 294.216V290.898C394.743 290.375 394.654 289.993 394.477 289.75C394.309 289.507 394.024 289.386 393.623 289.386C393.166 289.386 392.806 289.549 392.545 289.876C392.284 290.193 392.153 290.637 392.153 291.206V294.216C392.153 294.813 391.859 295.112 391.271 295.112ZM406.026 295.14C405.252 295.14 404.584 294.995 404.024 294.706C403.464 294.417 403.03 294.006 402.722 293.474C402.424 292.942 402.274 292.312 402.274 291.584C402.274 290.875 402.419 290.254 402.708 289.722C403.007 289.19 403.413 288.775 403.926 288.476C404.449 288.168 405.042 288.014 405.704 288.014C406.19 288.014 406.624 288.093 407.006 288.252C407.398 288.411 407.73 288.639 408 288.938C408.28 289.237 408.49 289.601 408.63 290.03C408.78 290.45 408.854 290.926 408.854 291.458C408.854 291.626 408.794 291.757 408.672 291.85C408.56 291.934 408.397 291.976 408.182 291.976H403.688V290.968H407.622L407.398 291.178C407.398 290.749 407.333 290.389 407.202 290.1C407.081 289.811 406.899 289.591 406.656 289.442C406.423 289.283 406.129 289.204 405.774 289.204C405.382 289.204 405.046 289.297 404.766 289.484C404.496 289.661 404.286 289.918 404.136 290.254C403.996 290.581 403.926 290.973 403.926 291.43V291.528C403.926 292.293 404.104 292.867 404.458 293.25C404.822 293.623 405.354 293.81 406.054 293.81C406.297 293.81 406.568 293.782 406.866 293.726C407.174 293.661 407.464 293.553 407.734 293.404C407.93 293.292 408.103 293.245 408.252 293.264C408.402 293.273 408.518 293.325 408.602 293.418C408.696 293.511 408.752 293.628 408.77 293.768C408.789 293.899 408.761 294.034 408.686 294.174C408.621 294.314 408.504 294.435 408.336 294.538C408.01 294.743 407.632 294.897 407.202 295C406.782 295.093 406.39 295.14 406.026 295.14ZM411.108 295.112C410.828 295.112 410.614 295.037 410.464 294.888C410.315 294.729 410.24 294.505 410.24 294.216V288.924C410.24 288.635 410.315 288.415 410.464 288.266C410.614 288.117 410.824 288.042 411.094 288.042C411.365 288.042 411.575 288.117 411.724 288.266C411.874 288.415 411.948 288.635 411.948 288.924V289.876L411.794 289.526C412 289.031 412.317 288.658 412.746 288.406C413.185 288.145 413.68 288.014 414.23 288.014C414.781 288.014 415.234 288.117 415.588 288.322C415.943 288.527 416.209 288.84 416.386 289.26C416.564 289.671 416.652 290.193 416.652 290.828V294.216C416.652 294.505 416.578 294.729 416.428 294.888C416.279 295.037 416.064 295.112 415.784 295.112C415.504 295.112 415.285 295.037 415.126 294.888C414.977 294.729 414.902 294.505 414.902 294.216V290.912C414.902 290.38 414.8 289.993 414.594 289.75C414.398 289.507 414.09 289.386 413.67 289.386C413.157 289.386 412.746 289.549 412.438 289.876C412.14 290.193 411.99 290.618 411.99 291.15V294.216C411.99 294.813 411.696 295.112 411.108 295.112ZM421.566 295.14C420.959 295.14 420.45 295.037 420.04 294.832C419.638 294.627 419.34 294.328 419.144 293.936C418.948 293.535 418.85 293.04 418.85 292.452V289.47H418.122C417.898 289.47 417.725 289.414 417.604 289.302C417.482 289.181 417.422 289.017 417.422 288.812C417.422 288.597 417.482 288.434 417.604 288.322C417.725 288.21 417.898 288.154 418.122 288.154H418.85V286.88C418.85 286.591 418.924 286.371 419.074 286.222C419.232 286.073 419.452 285.998 419.732 285.998C420.012 285.998 420.226 286.073 420.376 286.222C420.525 286.371 420.6 286.591 420.6 286.88V288.154H422.084C422.308 288.154 422.48 288.21 422.602 288.322C422.723 288.434 422.784 288.597 422.784 288.812C422.784 289.017 422.723 289.181 422.602 289.302C422.48 289.414 422.308 289.47 422.084 289.47H420.6V292.354C420.6 292.802 420.698 293.138 420.894 293.362C421.09 293.586 421.407 293.698 421.846 293.698C422.004 293.698 422.144 293.684 422.266 293.656C422.387 293.628 422.494 293.609 422.588 293.6C422.7 293.591 422.793 293.628 422.868 293.712C422.942 293.787 422.98 293.945 422.98 294.188C422.98 294.375 422.947 294.543 422.882 294.692C422.826 294.832 422.718 294.93 422.56 294.986C422.438 295.023 422.28 295.056 422.084 295.084C421.888 295.121 421.715 295.14 421.566 295.14ZM426.856 295.14C426.147 295.14 425.531 294.995 425.008 294.706C424.486 294.417 424.08 294.006 423.79 293.474C423.501 292.933 423.356 292.298 423.356 291.57C423.356 291.019 423.436 290.529 423.594 290.1C423.762 289.661 424 289.288 424.308 288.98C424.616 288.663 424.985 288.425 425.414 288.266C425.844 288.098 426.324 288.014 426.856 288.014C427.566 288.014 428.182 288.159 428.704 288.448C429.227 288.737 429.633 289.148 429.922 289.68C430.212 290.212 430.356 290.842 430.356 291.57C430.356 292.121 430.272 292.615 430.104 293.054C429.946 293.493 429.712 293.871 429.404 294.188C429.096 294.496 428.728 294.734 428.298 294.902C427.869 295.061 427.388 295.14 426.856 295.14ZM426.856 293.81C427.202 293.81 427.505 293.726 427.766 293.558C428.028 293.39 428.228 293.143 428.368 292.816C428.518 292.48 428.592 292.065 428.592 291.57C428.592 290.823 428.434 290.268 428.116 289.904C427.799 289.531 427.379 289.344 426.856 289.344C426.511 289.344 426.208 289.428 425.946 289.596C425.685 289.755 425.48 290.002 425.33 290.338C425.19 290.665 425.12 291.075 425.12 291.57C425.12 292.307 425.279 292.867 425.596 293.25C425.914 293.623 426.334 293.81 426.856 293.81ZM434.307 295.14C433.905 295.14 433.481 295.098 433.033 295.014C432.585 294.93 432.183 294.785 431.829 294.58C431.679 294.487 431.572 294.379 431.507 294.258C431.451 294.127 431.427 294.001 431.437 293.88C431.455 293.749 431.502 293.637 431.577 293.544C431.661 293.451 431.763 293.39 431.885 293.362C432.015 293.334 432.155 293.357 432.305 293.432C432.678 293.609 433.028 293.735 433.355 293.81C433.681 293.875 434.003 293.908 434.321 293.908C434.769 293.908 435.1 293.833 435.315 293.684C435.539 293.525 435.651 293.32 435.651 293.068C435.651 292.853 435.576 292.69 435.427 292.578C435.287 292.457 435.072 292.368 434.783 292.312L433.383 292.046C432.804 291.934 432.361 291.724 432.053 291.416C431.754 291.099 431.605 290.693 431.605 290.198C431.605 289.75 431.726 289.363 431.969 289.036C432.221 288.709 432.566 288.457 433.005 288.28C433.443 288.103 433.947 288.014 434.517 288.014C434.927 288.014 435.31 288.061 435.665 288.154C436.029 288.238 436.379 288.373 436.715 288.56C436.855 288.635 436.948 288.733 436.995 288.854C437.051 288.975 437.065 289.101 437.037 289.232C437.009 289.353 436.953 289.465 436.869 289.568C436.785 289.661 436.677 289.722 436.547 289.75C436.425 289.769 436.285 289.741 436.127 289.666C435.837 289.517 435.557 289.409 435.287 289.344C435.025 289.279 434.773 289.246 434.531 289.246C434.073 289.246 433.733 289.325 433.509 289.484C433.294 289.643 433.187 289.853 433.187 290.114C433.187 290.31 433.252 290.473 433.383 290.604C433.513 290.735 433.714 290.823 433.985 290.87L435.385 291.136C435.991 291.248 436.449 291.453 436.757 291.752C437.074 292.051 437.233 292.452 437.233 292.956C437.233 293.637 436.967 294.174 436.435 294.566C435.903 294.949 435.193 295.14 434.307 295.14Z" fill="#333333"/>
<rect x="93.6016" y="168" width="27.53" height="107.2" fill="#FF4545"/>
<rect x="213.357" y="39" width="27.53" height="235.84" fill="#2453FF"/>
<rect x="364.771" y="113" width="27.53" height="160.8" fill="#81FF7F"/>
<path d="M105.369 159.077C105.23 159.077 105.12 159.037 105.039 158.956C104.959 158.875 104.918 158.762 104.918 158.615V157.339H101.761C101.615 157.339 101.497 157.306 101.409 157.24C101.329 157.167 101.288 157.064 101.288 156.932C101.288 156.851 101.307 156.771 101.343 156.69C101.38 156.602 101.446 156.492 101.541 156.36L104.896 151.476C104.962 151.373 105.036 151.296 105.116 151.245C105.197 151.194 105.292 151.168 105.402 151.168C105.52 151.168 105.619 151.205 105.699 151.278C105.787 151.351 105.831 151.469 105.831 151.63V156.569H106.634C106.774 156.569 106.88 156.602 106.953 156.668C107.027 156.734 107.063 156.829 107.063 156.954C107.063 157.079 107.027 157.174 106.953 157.24C106.88 157.306 106.774 157.339 106.634 157.339H105.831V158.615C105.831 158.762 105.791 158.875 105.71 158.956C105.63 159.037 105.516 159.077 105.369 159.077ZM104.918 156.569V152.301H105.182L102.102 156.811V156.569H104.918ZM110.667 159.099C109.78 159.099 109.105 158.758 108.643 158.076C108.181 157.394 107.95 156.408 107.95 155.117C107.95 154.252 108.053 153.526 108.258 152.939C108.463 152.345 108.768 151.898 109.171 151.597C109.582 151.296 110.08 151.146 110.667 151.146C111.562 151.146 112.236 151.483 112.691 152.158C113.153 152.825 113.384 153.808 113.384 155.106C113.384 155.971 113.281 156.701 113.076 157.295C112.871 157.889 112.566 158.34 112.163 158.648C111.76 158.949 111.261 159.099 110.667 159.099ZM110.667 158.318C111.283 158.318 111.738 158.058 112.031 157.537C112.332 157.009 112.482 156.199 112.482 155.106C112.482 154.006 112.332 153.203 112.031 152.697C111.738 152.184 111.283 151.927 110.667 151.927C110.058 151.927 109.604 152.184 109.303 152.697C109.002 153.21 108.852 154.013 108.852 155.106C108.852 156.199 109.002 157.009 109.303 157.537C109.604 158.058 110.058 158.318 110.667 158.318Z" fill="#333333"/>
<path d="M223.827 31.099C223.248 31.099 222.749 31.0147 222.331 30.846C221.92 30.6773 221.605 30.4317 221.385 30.109C221.172 29.7863 221.066 29.3977 221.066 28.943C221.066 28.5837 221.139 28.2647 221.286 27.986C221.433 27.7 221.638 27.469 221.902 27.293C222.166 27.117 222.47 27.007 222.815 26.963V27.128C222.338 27.0253 221.957 26.8017 221.671 26.457C221.392 26.105 221.253 25.6907 221.253 25.214C221.253 24.774 221.356 24.4037 221.561 24.103C221.774 23.795 222.074 23.5603 222.463 23.399C222.852 23.2303 223.306 23.146 223.827 23.146C224.355 23.146 224.81 23.2303 225.191 23.399C225.58 23.5603 225.88 23.795 226.093 24.103C226.306 24.4037 226.412 24.774 226.412 25.214C226.412 25.5293 226.346 25.8227 226.214 26.094C226.089 26.358 225.91 26.578 225.675 26.754C225.44 26.93 225.165 27.051 224.85 27.117V26.963C225.371 27.0363 225.789 27.2527 226.104 27.612C226.427 27.964 226.588 28.4077 226.588 28.943C226.588 29.3977 226.478 29.7863 226.258 30.109C226.045 30.4317 225.73 30.6773 225.312 30.846C224.901 31.0147 224.406 31.099 223.827 31.099ZM223.827 30.351C224.45 30.351 224.92 30.23 225.235 29.988C225.558 29.746 225.719 29.3793 225.719 28.888C225.719 28.404 225.558 28.0447 225.235 27.81C224.92 27.568 224.45 27.447 223.827 27.447C223.211 27.447 222.742 27.568 222.419 27.81C222.096 28.0447 221.935 28.404 221.935 28.888C221.935 29.3793 222.096 29.746 222.419 29.988C222.742 30.23 223.211 30.351 223.827 30.351ZM223.827 26.699C224.186 26.699 224.491 26.644 224.74 26.534C224.997 26.4167 225.195 26.2517 225.334 26.039C225.473 25.8263 225.543 25.577 225.543 25.291C225.543 24.851 225.389 24.51 225.081 24.268C224.78 24.0187 224.362 23.894 223.827 23.894C223.292 23.894 222.874 24.0187 222.573 24.268C222.272 24.51 222.122 24.851 222.122 25.291C222.122 25.731 222.272 26.0757 222.573 26.325C222.874 26.5743 223.292 26.699 223.827 26.699ZM230.423 31.099C229.843 31.099 229.345 31.0147 228.927 30.846C228.516 30.6773 228.201 30.4317 227.981 30.109C227.768 29.7863 227.662 29.3977 227.662 28.943C227.662 28.5837 227.735 28.2647 227.882 27.986C228.028 27.7 228.234 27.469 228.498 27.293C228.762 27.117 229.066 27.007 229.411 26.963V27.128C228.934 27.0253 228.553 26.8017 228.267 26.457C227.988 26.105 227.849 25.6907 227.849 25.214C227.849 24.774 227.951 24.4037 228.157 24.103C228.369 23.795 228.67 23.5603 229.059 23.399C229.447 23.2303 229.902 23.146 230.423 23.146C230.951 23.146 231.405 23.2303 231.787 23.399C232.175 23.5603 232.476 23.795 232.689 24.103C232.901 24.4037 233.008 24.774 233.008 25.214C233.008 25.5293 232.942 25.8227 232.81 26.094C232.685 26.358 232.505 26.578 232.271 26.754C232.036 26.93 231.761 27.051 231.446 27.117V26.963C231.966 27.0363 232.384 27.2527 232.7 27.612C233.022 27.964 233.184 28.4077 233.184 28.943C233.184 29.3977 233.074 29.7863 232.854 30.109C232.641 30.4317 232.326 30.6773 231.908 30.846C231.497 31.0147 231.002 31.099 230.423 31.099ZM230.423 30.351C231.046 30.351 231.515 30.23 231.831 29.988C232.153 29.746 232.315 29.3793 232.315 28.888C232.315 28.404 232.153 28.0447 231.831 27.81C231.515 27.568 231.046 27.447 230.423 27.447C229.807 27.447 229.337 27.568 229.015 27.81C228.692 28.0447 228.531 28.404 228.531 28.888C228.531 29.3793 228.692 29.746 229.015 29.988C229.337 30.23 229.807 30.351 230.423 30.351ZM230.423 26.699C230.782 26.699 231.086 26.644 231.336 26.534C231.592 26.4167 231.79 26.2517 231.93 26.039C232.069 25.8263 232.139 25.577 232.139 25.291C232.139 24.851 231.985 24.51 231.677 24.268C231.376 24.0187 230.958 23.894 230.423 23.894C229.887 23.894 229.469 24.0187 229.169 24.268C228.868 24.51 228.718 24.851 228.718 25.291C228.718 25.731 228.868 26.0757 229.169 26.325C229.469 26.5743 229.887 26.699 230.423 26.699Z" fill="#333333"/>
<path d="M375.505 102.099C374.896 102.099 374.376 101.952 373.943 101.659C373.518 101.358 373.195 100.926 372.975 100.361C372.755 99.7963 372.645 99.1143 372.645 98.315C372.645 97.6403 372.715 97.0463 372.854 96.533C372.993 96.0197 373.199 95.587 373.47 95.235C373.741 94.8757 374.071 94.6043 374.46 94.421C374.849 94.2377 375.289 94.146 375.78 94.146C376.117 94.146 376.462 94.212 376.814 94.344C377.173 94.476 377.489 94.663 377.76 94.905C377.841 94.9637 377.888 95.037 377.903 95.125C377.925 95.2057 377.925 95.2863 377.903 95.367C377.881 95.4403 377.841 95.5027 377.782 95.554C377.731 95.6053 377.665 95.6347 377.584 95.642C377.503 95.642 377.419 95.609 377.331 95.543C377.082 95.3303 376.825 95.18 376.561 95.092C376.297 94.9967 376.029 94.949 375.758 94.949C375.281 94.949 374.874 95.0663 374.537 95.301C374.207 95.5357 373.954 95.8913 373.778 96.368C373.609 96.8373 373.525 97.4277 373.525 98.139V99.162H373.426C373.47 98.744 373.591 98.3847 373.789 98.084C373.994 97.776 374.255 97.5413 374.57 97.38C374.885 97.2187 375.241 97.138 375.637 97.138C376.092 97.138 376.495 97.2407 376.847 97.446C377.199 97.6513 377.474 97.941 377.672 98.315C377.87 98.6817 377.969 99.1033 377.969 99.58C377.969 100.064 377.866 100.497 377.661 100.878C377.456 101.259 377.166 101.56 376.792 101.78C376.418 101.993 375.989 102.099 375.505 102.099ZM375.45 101.329C375.773 101.329 376.059 101.259 376.308 101.12C376.557 100.973 376.752 100.772 376.891 100.515C377.03 100.251 377.1 99.9503 377.1 99.613C377.1 99.2757 377.03 98.9787 376.891 98.722C376.752 98.4653 376.557 98.2637 376.308 98.117C376.059 97.9703 375.773 97.897 375.45 97.897C375.127 97.897 374.841 97.9703 374.592 98.117C374.343 98.2637 374.148 98.4653 374.009 98.722C373.87 98.9787 373.8 99.2757 373.8 99.613C373.8 99.9503 373.87 100.251 374.009 100.515C374.148 100.772 374.343 100.973 374.592 101.12C374.841 101.259 375.127 101.329 375.45 101.329ZM381.837 102.099C380.95 102.099 380.275 101.758 379.813 101.076C379.351 100.394 379.12 99.4077 379.12 98.117C379.12 97.2517 379.223 96.5257 379.428 95.939C379.633 95.345 379.938 94.8977 380.341 94.597C380.752 94.2963 381.25 94.146 381.837 94.146C382.732 94.146 383.406 94.4833 383.861 95.158C384.323 95.8253 384.554 96.808 384.554 98.106C384.554 98.9713 384.451 99.701 384.246 100.295C384.041 100.889 383.736 101.34 383.333 101.648C382.93 101.949 382.431 102.099 381.837 102.099ZM381.837 101.318C382.453 101.318 382.908 101.058 383.201 100.537C383.502 100.009 383.652 99.1987 383.652 98.106C383.652 97.006 383.502 96.203 383.201 95.697C382.908 95.1837 382.453 94.927 381.837 94.927C381.228 94.927 380.774 95.1837 380.473 95.697C380.172 96.2103 380.022 97.0133 380.022 98.106C380.022 99.1987 380.172 100.009 380.473 100.537C380.774 101.058 381.228 101.318 381.837 101.318Z" fill="#333333"/>
</svg>
