<?xml version="1.0" standalone="no"?>
<!DOCTYPE svg PUBLIC "-//W3C//DTD SVG 20010904//EN"
 "http://www.w3.org/TR/2001/REC-SVG-20010904/DTD/svg10.dtd">
<svg version="1.0" xmlns="http://www.w3.org/2000/svg"
 width="2000.000000pt" height="2000.000000pt" viewBox="0 0 2000.000000 2000.000000"
 preserveAspectRatio="xMidYMid meet">

<g transform="translate(0.000000,2000.000000) scale(0.100000,-0.100000)"
fill="#000000" stroke="none">
<path d="M11910 16060 c-356 -41 -623 -158 -981 -431 -64 -49 -124 -89 -133
-89 -9 0 -55 29 -103 65 -160 118 -371 212 -564 250 -475 93 -984 -92 -1425
-517 l-91 -88 -134 14 c-547 60 -1060 39 -1534 -63 -315 -67 -617 -180 -832
-312 -129 -79 -411 -209 -622 -286 -263 -96 -430 -137 -706 -173 -322 -41
-555 -93 -796 -176 -148 -51 -411 -175 -533 -252 l-80 -49 -54 58 c-36 39 -76
70 -120 91 -60 30 -76 33 -152 33 -77 0 -92 -4 -160 -36 -224 -107 -432 -372
-535 -682 -59 -179 -70 -250 -69 -462 1 -210 15 -290 73 -406 l29 -57 -24
-102 c-31 -128 -69 -367 -86 -530 -20 -198 -17 -819 5 -1061 18 -185 18 -198
2 -229 -44 -86 -89 -262 -100 -395 -15 -170 33 -368 120 -500 81 -122 212
-230 346 -285 75 -31 129 -65 129 -82 0 -21 74 -176 132 -277 130 -226 250
-385 432 -569 517 -527 1210 -827 2056 -891 125 -10 492 -7 660 4 126 9 120
11 275 -110 534 -418 1206 -719 1935 -865 362 -72 660 -100 1100 -103 l285 -2
22 -85 c151 -570 238 -1139 250 -1620 11 -472 -42 -803 -171 -1058 -20 -40
-36 -76 -36 -81 0 -5 10 -11 23 -13 12 -3 95 -22 185 -42 503 -114 1013 -164
1562 -153 313 6 517 22 800 63 994 142 1916 501 2755 1071 146 100 160 112
167 145 13 65 47 407 59 608 19 306 15 1200 -6 1400 -2 19 -6 85 -10 145 -22
381 -88 1017 -156 1496 l-30 217 34 53 c124 195 247 524 321 859 120 545 131
1297 30 2035 -47 345 -126 747 -218 1110 -70 274 -112 383 -275 720 -366 754
-815 1332 -1232 1586 -52 31 -61 42 -103 127 -190 382 -472 672 -821 846 -139
69 -249 109 -348 126 -82 15 -452 21 -547 10z m451 -169 c268 -29 607 -233
830 -500 208 -249 325 -467 463 -863 70 -200 115 -317 148 -381 18 -37 22 -40
29 -22 13 34 10 266 -6 360 -8 50 -23 120 -34 158 -11 37 -16 67 -11 67 5 0
12 -5 15 -11 4 -6 41 -35 82 -66 110 -81 270 -239 382 -378 267 -328 494 -733
661 -1180 23 -60 54 -144 70 -185 16 -41 43 -127 59 -191 17 -64 38 -143 46
-175 63 -237 156 -730 194 -1024 128 -975 74 -1785 -160 -2415 -52 -140 -157
-344 -213 -416 -71 -90 -379 -340 -596 -482 -133 -87 -385 -212 -515 -256 -55
-19 -103 -37 -107 -40 -14 -12 160 7 242 27 371 91 650 226 897 433 45 38 84
65 88 59 8 -13 -18 -110 -61 -228 -47 -129 -125 -287 -194 -391 -31 -48 -74
-113 -95 -146 -71 -112 -148 -198 -249 -280 l-50 -40 30 45 c17 25 34 50 38
57 3 7 -25 -9 -63 -35 -39 -26 -70 -53 -71 -60 0 -13 57 -119 69 -126 13 -9
232 156 323 243 165 158 283 401 332 686 16 96 18 90 46 -130 63 -512 110
-1059 127 -1490 12 -277 8 -1023 -6 -1220 -6 -93 -18 -231 -26 -305 -26 -233
-2 -194 -198 -324 -315 -208 -657 -393 -1037 -560 -161 -71 -433 -176 -454
-176 -7 0 -85 -22 -172 -49 -379 -117 -783 -197 -1244 -248 -235 -26 -990 -26
-1225 0 -295 32 -739 105 -774 126 -10 7 -6 29 18 102 120 364 143 886 65
1498 -13 106 -24 196 -24 200 0 3 36 -62 78 -145 43 -82 112 -199 153 -259 83
-122 238 -290 338 -366 139 -104 319 -175 471 -185 l75 -5 -72 20 c-485 133
-804 600 -1044 1526 -21 82 -37 151 -35 153 2 2 22 -8 45 -22 50 -32 180 -86
289 -120 133 -42 314 -74 485 -88 188 -14 396 -2 597 36 133 25 294 66 287 73
-3 2 -67 -2 -143 -8 -166 -14 -480 -6 -642 15 -306 42 -639 153 -847 284 l-50
32 61 0 c89 0 345 27 481 51 538 93 1004 273 1373 532 134 94 131 96 -29 14
-247 -127 -589 -243 -916 -311 -342 -71 -827 -116 -1222 -115 -90 0 -227 -2
-305 -6 -248 -12 -666 16 -977 66 -628 100 -1255 337 -1759 665 -137 90 -372
263 -372 275 0 14 215 118 312 150 65 22 119 32 186 36 84 5 93 8 76 20 -10 8
-50 24 -89 36 -172 53 -432 8 -617 -105 -97 -60 -113 -63 -433 -74 -383 -13
-771 33 -1112 132 -96 28 -313 107 -431 158 -453 195 -830 507 -1069 886 -69
110 -205 366 -227 428 l-15 42 69 62 c188 168 416 292 613 332 106 22 311 22
407 1 82 -19 188 -59 279 -104 l58 -30 6 -118 c13 -222 57 -406 138 -571 62
-127 158 -230 256 -276 35 -16 64 -28 67 -25 2 2 87 131 189 287 102 155 189
282 192 282 3 0 50 -19 103 -41 202 -86 542 -202 717 -244 l71 -17 27 -80 c41
-118 108 -255 172 -355 72 -110 199 -237 282 -281 66 -35 213 -77 223 -65 4 5
42 123 84 263 43 140 87 285 98 321 l21 67 256 5 c153 2 318 11 409 22 l153
18 32 -39 c173 -211 371 -370 545 -435 81 -31 96 -33 209 -34 73 0 126 4 133
11 7 7 6 113 -5 355 -8 189 -15 349 -15 356 0 6 10 15 23 19 12 3 101 35 197
69 254 91 300 100 510 99 157 0 185 -3 275 -27 141 -38 255 -87 259 -112 78
-415 238 -701 447 -799 132 -62 102 -92 279 266 85 172 156 315 157 317 1 2
63 -4 138 -13 74 -9 199 -19 278 -22 78 -3 152 -7 164 -10 17 -3 34 -27 64
-87 159 -319 374 -478 612 -453 l62 7 59 242 c32 133 68 281 80 330 l21 87
143 64 c182 82 239 117 315 193 56 57 129 153 139 185 3 8 13 6 34 -9 66 -46
276 -134 290 -121 2 3 -36 40 -86 83 -210 183 -337 368 -392 570 -32 118 -32
419 0 587 12 64 22 120 22 124 0 18 -66 -79 -100 -146 -70 -138 -92 -227 -98
-386 -4 -121 -1 -152 17 -225 23 -90 77 -214 117 -266 13 -17 24 -35 24 -39 0
-15 -170 -180 -240 -233 -167 -127 -277 -176 -497 -220 -221 -45 -333 -55
-603 -54 -510 1 -1008 88 -1400 246 -224 90 -354 117 -558 117 -223 0 -345
-26 -612 -130 -444 -172 -890 -288 -1295 -335 -378 -44 -734 -42 -1060 6 -578
84 -1049 258 -1838 678 -301 160 -400 208 -513 246 -255 85 -541 71 -809 -40
-145 -60 -351 -190 -460 -291 -71 -65 -72 -66 -91 -55 -11 5 -59 28 -108 51
-165 77 -281 225 -322 406 -34 154 -4 370 76 541 21 47 42 72 87 108 83 66
292 165 477 227 l158 53 -53 8 c-75 12 -288 2 -384 -18 -64 -13 -178 -53 -261
-91 -14 -6 -21 60 -35 341 -35 728 84 1389 336 1872 224 430 548 749 976 962
303 151 607 235 1064 296 241 32 304 44 483 95 270 76 718 265 894 376 22 14
92 51 156 83 438 218 1021 325 1682 307 212 -5 478 -26 554 -42 16 -3 49 -19
74 -35 81 -52 135 -64 267 -63 147 1 239 24 375 91 l95 48 -220 6 c-158 4
-241 11 -295 23 -41 10 -78 21 -82 25 -15 14 213 204 352 294 426 275 861 312
1270 107 81 -41 240 -143 240 -154 0 -2 -33 -23 -72 -47 -267 -157 -435 -342
-493 -543 -9 -31 -15 -59 -13 -61 2 -2 28 27 57 66 101 132 300 297 470 390
141 76 248 144 369 233 262 193 447 298 632 360 90 30 140 41 310 69 49 8 367
6 451 -2z m-9235 -1937 c19 -9 52 -35 75 -57 l41 -41 -44 -38 c-23 -20 -50
-36 -58 -35 -8 1 -15 -3 -15 -9 0 -7 -46 -58 -102 -116 -57 -57 -115 -120
-130 -141 -22 -31 -29 -35 -42 -24 -14 10 -14 10 -3 -4 10 -13 9 -20 -7 -41
-107 -136 -311 -503 -351 -633 -7 -22 -16 -44 -20 -49 -28 -29 -23 323 5 454
52 240 163 450 321 606 129 128 239 171 330 128z m1664 -4529 c138 -69 250
-128 250 -132 0 -11 -274 -422 -281 -423 -13 0 -88 106 -118 166 -17 34 -42
102 -56 150 -37 127 -72 364 -54 364 5 0 122 -56 259 -125z m5533 -424 c78
-21 192 -49 252 -61 61 -13 112 -25 115 -27 8 -7 -214 -443 -226 -443 -23 0
-130 129 -171 206 -58 110 -141 364 -118 364 3 0 70 -17 148 -39z m-1769 -28
c3 -16 8 -118 11 -228 3 -110 9 -213 12 -229 l5 -29 -46 6 c-61 9 -163 56
-244 114 -74 51 -272 240 -272 258 0 7 32 17 71 25 39 7 153 34 253 60 99 26
186 48 193 49 6 1 14 -11 17 -26z m3591 -120 c-8 -32 -32 -132 -53 -223 l-39
-165 -31 1 c-75 4 -177 79 -260 192 -53 71 -107 170 -98 179 3 3 49 10 103 14
113 10 285 35 328 48 63 19 65 17 50 -46z m-5519 -27 c78 -9 155 -16 172 -16
18 0 32 -3 32 -7 0 -5 -32 -111 -70 -237 -39 -126 -70 -231 -70 -233 0 -2 -15
4 -32 13 -50 26 -165 141 -214 215 -43 66 -154 284 -154 305 0 7 32 5 98 -7
53 -9 160 -24 238 -33z"/>
<path d="M11740 15076 c-232 -50 -434 -194 -582 -416 -56 -84 -141 -251 -153
-300 l-6 -25 18 25 c102 142 180 239 252 311 186 188 407 289 632 289 296 0
706 -184 1117 -502 34 -27 62 -43 62 -37 0 23 -316 325 -408 389 -180 127
-341 205 -512 250 -109 28 -324 36 -420 16z"/>
<path d="M11728 14865 c-230 -58 -441 -241 -567 -491 -59 -118 -141 -374 -119
-374 2 0 26 33 53 73 211 313 423 503 629 564 75 22 199 20 270 -6 227 -80
434 -336 615 -759 60 -139 158 -431 181 -534 7 -32 17 -55 22 -52 4 3 8 71 8
152 0 722 -184 1183 -545 1364 -106 54 -180 70 -340 74 -108 2 -166 0 -207
-11z"/>
<path d="M9939 14593 c-31 -78 -69 -200 -95 -303 -26 -104 -28 -131 -29 -290
0 -158 2 -181 23 -240 47 -132 133 -225 249 -271 50 -20 75 -23 188 -23 114 0
140 4 210 27 81 27 191 84 181 94 -3 3 -85 0 -184 -6 -283 -18 -394 7 -493
112 -30 32 -65 105 -85 178 -38 135 -18 471 41 697 14 56 11 69 -6 25z"/>
<path d="M13124 14330 c4 -14 32 -74 62 -135 149 -300 391 -540 526 -522 51 7
91 46 107 104 18 62 13 84 -9 43 -30 -56 -57 -80 -93 -80 -76 0 -129 53 -485
487 -45 55 -90 107 -99 114 -14 12 -15 11 -9 -11z"/>
<path d="M11685 14297 c-148 -49 -266 -162 -347 -333 -21 -45 -38 -84 -38 -87
0 -3 17 -1 38 4 55 13 100 11 167 -6 111 -29 175 -91 175 -170 0 -138 -210
-224 -390 -160 -24 8 -45 13 -47 11 -10 -9 -23 -193 -23 -321 0 -243 29 -398
105 -551 70 -144 156 -227 293 -285 57 -24 62 -28 41 -34 -50 -16 -237 -110
-314 -158 -116 -74 -230 -164 -311 -248 -78 -82 -168 -199 -159 -208 4 -3 160
72 348 166 352 177 465 228 648 294 115 41 308 90 434 111 121 19 465 16 595
-5 241 -41 445 -108 658 -217 143 -73 150 -69 32 20 -246 187 -529 309 -850
365 -47 8 -104 15 -127 15 -23 0 -45 4 -48 10 -3 5 5 25 19 43 38 50 84 157
109 255 18 74 22 115 22 272 0 206 -10 276 -61 448 -109 361 -334 636 -608
744 -72 28 -94 32 -201 35 -81 2 -133 -1 -160 -10z m44 -752 c16 -8 31 -22 35
-31 25 -65 -95 -113 -158 -63 -75 59 32 142 123 94z m-194 -732 c45 -68 151
-180 206 -219 21 -15 39 -30 39 -33 0 -3 -28 -17 -62 -30 l-62 -24 -32 37
c-17 20 -45 62 -62 94 -37 69 -85 232 -68 232 2 0 20 -26 41 -57z m450 -323
c11 -1 -35 -15 -102 -31 l-123 -31 -32 23 -32 23 35 13 c19 7 49 21 67 31 33
18 35 17 100 -5 37 -12 76 -23 87 -23z"/>
<path d="M9460 14211 c0 -6 4 -13 10 -16 6 -3 7 1 4 9 -7 18 -14 21 -14 7z"/>
<path d="M5570 14155 c-8 -9 -29 -15 -58 -15 -101 0 -248 -53 -363 -131 -133
-90 -294 -279 -359 -423 -37 -81 -70 -199 -70 -249 l0 -39 44 48 c24 27 94
110 156 184 189 226 258 289 387 355 294 149 573 36 745 -301 108 -211 169
-506 170 -819 1 -418 -167 -851 -423 -1089 -150 -140 -266 -192 -408 -184 -86
5 -159 33 -244 94 -50 36 -50 36 -29 7 90 -127 264 -201 410 -175 78 14 163
47 222 87 l51 34 -31 -57 c-38 -73 -105 -143 -184 -194 l-61 -40 45 7 c104 17
241 90 289 156 41 56 82 149 88 203 6 44 15 61 71 126 156 184 265 426 333
745 21 97 24 136 24 335 -1 248 -14 367 -65 572 -56 226 -146 401 -274 535
-112 118 -213 178 -365 218 -33 8 -67 18 -74 21 -8 3 -20 -2 -27 -11z"/>
<path d="M9230 13980 c0 -5 7 -7 15 -4 8 4 15 8 15 10 0 2 -7 4 -15 4 -8 0
-15 -4 -15 -10z"/>
<path d="M5544 13551 c-177 -129 -314 -387 -360 -680 -25 -161 -15 -470 20
-608 46 -183 109 -289 200 -335 68 -35 168 -16 253 48 64 48 180 229 208 324
l7 25 -28 -26 c-42 -39 -88 -59 -131 -59 -62 0 -67 9 -39 71 34 75 72 210 87
308 18 128 7 352 -25 479 -14 57 -26 105 -26 108 0 2 16 4 36 4 69 0 128 -45
162 -124 20 -45 24 -25 11 54 -14 94 -50 212 -83 278 -73 144 -199 202 -292
133z"/>
<path d="M4480 13445 c0 -5 5 -17 10 -25 5 -8 10 -10 10 -5 0 6 -5 17 -10 25
-5 8 -10 11 -10 5z"/>
<path d="M4651 12883 c-27 -101 -44 -232 -48 -373 -4 -135 -2 -167 16 -245 28
-114 78 -216 143 -289 54 -61 122 -111 138 -101 5 3 -6 34 -25 69 -85 154
-165 502 -187 814 -6 89 -15 162 -19 162 -5 0 -13 -17 -18 -37z"/>
<path d="M14106 12681 c-4 -5 -2 -12 3 -15 5 -4 12 -2 15 3 4 5 2 12 -3 15 -5
4 -12 2 -15 -3z"/>
<path d="M14415 12679 c-4 -6 -5 -12 -2 -15 2 -3 7 2 10 11 7 17 1 20 -8 4z"/>
<path d="M14366 12311 c-4 -5 -2 -12 3 -15 5 -4 12 -2 15 3 4 5 2 12 -3 15 -5
4 -12 2 -15 -3z"/>
<path d="M14208 12223 c7 -3 16 -2 19 1 4 3 -2 6 -13 5 -11 0 -14 -3 -6 -6z"/>
<path d="M14621 12144 c0 -11 3 -14 6 -6 3 7 2 16 -1 19 -3 4 -6 -2 -5 -13z"/>
<path d="M14576 12033 c-6 -14 -5 -15 5 -6 7 7 10 15 7 18 -3 3 -9 -2 -12 -12z"/>
<path d="M14455 12030 c-3 -5 -1 -10 4 -10 6 0 11 5 11 10 0 6 -2 10 -4 10 -3
0 -8 -4 -11 -10z"/>
<path d="M6768 11383 c7 -3 16 -2 19 1 4 3 -2 6 -13 5 -11 0 -14 -3 -6 -6z"/>
<path d="M6914 10928 c0 -10 1 -18 3 -18 1 0 7 8 12 18 7 13 6 19 -2 19 -7 0
-13 -9 -13 -19z"/>
<path d="M6896 10892 c-3 -5 1 -9 9 -9 8 0 12 4 9 9 -3 4 -7 8 -9 8 -2 0 -6
-4 -9 -8z"/>
<path d="M6620 10856 c0 -2 8 -10 18 -17 15 -13 16 -12 3 4 -13 16 -21 21 -21
13z"/>
<path d="M7010 10681 c0 -6 4 -13 10 -16 6 -3 7 1 4 9 -7 18 -14 21 -14 7z"/>
<path d="M3779 10630 c-218 -39 -481 -144 -664 -265 -163 -109 -162 -110 40
-49 218 66 422 117 570 141 157 26 525 26 644 0 187 -40 382 -120 536 -220 38
-25 71 -44 74 -42 2 3 -14 26 -35 52 -168 208 -396 339 -674 387 -128 22 -353
20 -491 -4z"/>
<path d="M9050 10019 c-256 -29 -516 -123 -675 -245 -82 -63 -171 -104 -344
-161 l-146 -48 80 -3 c152 -6 357 34 445 87 131 78 326 145 534 184 105 19
156 22 386 22 315 0 459 -19 833 -109 31 -7 57 -11 57 -7 -1 9 -155 94 -240
131 -291 128 -634 182 -930 149z"/>
<path d="M5732 9960 c174 -205 472 -379 763 -446 119 -28 342 -26 451 3 91 25
195 70 251 107 45 31 42 32 -73 6 -260 -59 -549 -27 -856 93 -118 46 -316 142
-428 207 -99 58 -140 80 -146 80 -3 0 14 -23 38 -50z"/>
<path d="M12195 6675 c-12 -11 -14 -14 -4 -7 9 7 26 15 39 17 31 6 37 14 9 12
-13 -1 -33 -11 -44 -22z"/>
<path d="M12205 6650 c-3 -5 -2 -10 4 -10 5 0 13 5 16 10 3 6 2 10 -4 10 -5 0
-13 -4 -16 -10z"/>
<path d="M12044 6496 c-3 -8 -4 -23 -2 -33 3 -11 6 -6 9 15 6 34 2 42 -7 18z"/>
<path d="M12195 6220 c-3 -6 1 -7 9 -4 18 7 21 14 7 14 -6 0 -13 -4 -16 -10z"/>
<path d="M12410 6129 c0 -5 5 -7 10 -4 6 3 10 8 10 11 0 2 -4 4 -10 4 -5 0
-10 -5 -10 -11z"/>
</g>
</svg>
