<svg width="25" height="25" viewBox="0 0 25 25" fill="none" xmlns="http://www.w3.org/2000/svg">
<path d="M24.1458 20.0138L19.9227 15.7846L16.6743 14.4407C17.7559 12.9004 18.3354 11.0628 18.3333 9.17977C18.3333 4.11802 14.2212 0 9.16665 0C4.11213 0 0 4.11802 0 9.17977C0 14.2415 4.11213 18.3595 9.16665 18.3595C11.0633 18.3617 12.9134 17.7714 14.4593 16.6708L15.7978 19.9151L20.0208 24.1444C20.2916 24.4157 20.6132 24.6308 20.967 24.7776C21.3209 24.9244 21.7002 25 22.0832 25C22.4662 25 22.8455 24.9245 23.1994 24.7777C23.5533 24.6309 23.8748 24.4158 24.1456 24.1446C24.4165 23.8733 24.6314 23.5513 24.7779 23.197C24.9245 22.8426 25 22.4628 25 22.0792C25 21.6956 24.9246 21.3158 24.778 20.9614C24.6314 20.607 24.4166 20.285 24.1458 20.0138ZM1.66666 9.17977C1.66666 5.03844 5.03124 1.66905 9.16665 1.66905C13.3021 1.66905 16.6666 5.03844 16.6666 9.17977C16.6666 13.3211 13.3021 16.6905 9.16665 16.6905C5.03124 16.6905 1.66666 13.3211 1.66666 9.17977ZM22.9672 22.9642C22.7326 23.1987 22.4147 23.3303 22.0833 23.3303C21.7519 23.3303 21.434 23.1987 21.1994 22.9642L17.2113 18.9704L15.9668 15.9539L18.9791 17.2001L22.9673 21.194C23.2013 21.4289 23.3328 21.7473 23.3327 22.0791C23.3327 22.411 23.2013 22.7293 22.9672 22.9642Z" fill="white"/>
</svg>
