<svg width="29" height="29" viewBox="0 0 29 29" fill="none" xmlns="http://www.w3.org/2000/svg">
<rect width="29" height="29" rx="14.5" fill="url(#paint0_linear_1020_1554)"/>
<g clip-path="url(#clip0_1020_1554)">
<path d="M14.2235 13.4884C15.1178 13.4884 15.9755 13.1331 16.6079 12.5007C17.2403 11.8683 17.5956 11.0106 17.5956 10.1163C17.5956 9.22196 17.2403 8.36426 16.6079 7.73186C15.9755 7.09947 15.1178 6.7442 14.2235 6.7442C13.3291 6.7442 12.4714 7.09947 11.8391 7.73186C11.2067 8.36426 10.8514 9.22196 10.8514 10.1163C10.8514 11.0106 11.2067 11.8683 11.8391 12.5007C12.4714 13.1331 13.3291 13.4884 14.2235 13.4884ZM14.2235 15.1744C10.8446 15.1744 8.09302 17.4405 8.09302 20.2326C8.09302 20.4214 8.24139 20.5698 8.43023 20.5698H20.0167C20.2056 20.5698 20.3539 20.4214 20.3539 20.2326C20.3539 17.4405 17.6023 15.1744 14.2235 15.1744Z" fill="white"/>
</g>
<defs>
<linearGradient id="paint0_linear_1020_1554" x1="-2.36364" y1="14.5" x2="31.9773" y2="14.5" gradientUnits="userSpaceOnUse">
<stop stop-color="#005BAA"/>
<stop offset="0.0001" stop-color="#005BAA" stop-opacity="0.984375"/>
<stop offset="1" stop-color="#042B4D"/>
</linearGradient>
<clipPath id="clip0_1020_1554">
<rect width="16.186" height="16.186" fill="white" transform="translate(6.06982 6.7442)"/>
</clipPath>
</defs>
</svg>
