<svg width="16" height="18" viewBox="0 0 16 18" fill="none" xmlns="http://www.w3.org/2000/svg">
<g clip-path="url(#clip0_1020_1560)">
<path d="M8.59325 4.40997H3.40659C2.85724 4.41195 2.3309 4.65833 1.94246 5.09533C1.55401 5.53233 1.33501 6.12446 1.33325 6.74247V15.2625C1.33325 16.35 2.02659 16.815 2.87325 16.2825L5.49325 14.64C5.77325 14.4675 6.22658 14.4675 6.49992 14.64L9.11992 16.2825C9.96658 16.815 10.6599 16.35 10.6599 15.2625V6.74247C10.6604 6.43666 10.6072 6.13374 10.5036 5.85101C10.4 5.56829 10.2479 5.31129 10.056 5.0947C9.86408 4.87811 9.63613 4.70616 9.38515 4.58867C9.13418 4.47119 8.86509 4.41047 8.59325 4.40997Z" stroke="#005BAA" stroke-width="1.5" stroke-linecap="round" stroke-linejoin="round"/>
<path d="M10.6666 6.74247V15.2625C10.6666 16.35 9.97325 16.8075 9.12658 16.2825L6.50659 14.64C6.22659 14.4675 5.77325 14.4675 5.49325 14.64L2.87325 16.2825C2.02659 16.8075 1.33325 16.35 1.33325 15.2625V6.74247C1.33325 5.45997 2.26659 4.40997 3.40659 4.40997H8.59325C9.73325 4.40997 10.6666 5.45997 10.6666 6.74247Z" stroke="#005BAA" stroke-width="1.5" stroke-linecap="round" stroke-linejoin="round"/>
<path d="M14.6666 3.8325V12.3525C14.6666 13.44 13.9733 13.8975 13.1266 13.3725L10.6666 11.8275V6.7425C10.6666 5.46 9.73325 4.41 8.59325 4.41H5.33325V3.8325C5.33325 2.55 6.26658 1.5 7.40658 1.5H12.5933C13.7333 1.5 14.6666 2.55 14.6666 3.8325Z" stroke="#005BAA" stroke-width="1.5" stroke-linecap="round" stroke-linejoin="round"/>
</g>
<defs>
<clipPath id="clip0_1020_1560">
<rect width="16" height="18" fill="white"/>
</clipPath>
</defs>
</svg>
