<svg width="24" height="24" viewBox="0 0 24 24" fill="none" xmlns="http://www.w3.org/2000/svg">
<path d="M10.1101 11.15H7.46007C6.83007 11.15 6.32007 11.66 6.32007 12.29V17.41H10.1101V11.15Z" stroke="#444444" stroke-width="1.5" stroke-miterlimit="10" stroke-linecap="round" stroke-linejoin="round"/>
<path d="M12.7611 6.59998H11.2411C10.6111 6.59998 10.1011 7.10998 10.1011 7.73998V17.4H13.8911V7.73998C13.8911 7.10998 13.3911 6.59998 12.7611 6.59998ZM16.5481 12.85H13.8981V17.4H17.6881V13.99C17.6781 13.36 17.1681 12.85 16.5481 12.85Z" stroke="#444444" stroke-width="1.5" stroke-miterlimit="10" stroke-linecap="round" stroke-linejoin="round"/>
<path d="M9 22H15C20 22 22 20 22 15V9C22 4 20 2 15 2H9C4 2 2 4 2 9V15C2 20 4 22 9 22Z" stroke="#444444" stroke-width="1.5" stroke-linecap="round" stroke-linejoin="round"/>
</svg>
