<svg width="24" height="25" viewBox="0 0 24 25" fill="none" xmlns="http://www.w3.org/2000/svg">
<path d="M11.01 20.5002C13.3996 20.5002 15.6913 19.551 17.381 17.8613C19.0707 16.1716 20.02 13.8798 20.02 11.4902C20.02 9.10062 19.0707 6.8089 17.381 5.11919C15.6913 3.42949 13.3996 2.48022 11.01 2.48022C8.6204 2.48022 6.32867 3.42949 4.63897 5.11919C2.94927 6.8089 2 9.10062 2 11.4902C2 13.8798 2.94927 16.1716 4.63897 17.8613C6.32867 19.551 8.6204 20.5002 11.01 20.5002ZM21.99 19.4302C21.66 18.8202 20.96 18.4802 20.02 18.4802C19.31 18.4802 18.7 18.7702 18.34 19.2702C17.98 19.7702 17.9 20.4402 18.12 21.1102C18.55 22.4102 19.3 22.7002 19.71 22.7502C19.77 22.7602 19.83 22.7602 19.9 22.7602C20.34 22.7602 21.02 22.5702 21.68 21.5802C22.21 20.8102 22.31 20.0402 21.99 19.4302Z" fill="#005BAA"/>
</svg>
