<svg width="35" height="35" viewBox="0 0 35 35" fill="none" xmlns="http://www.w3.org/2000/svg">
<path d="M27.7087 5.83325H7.29199C6.13167 5.83325 5.01887 6.29419 4.1984 7.11466C3.37793 7.93513 2.91699 9.04793 2.91699 10.2083V24.7916C2.91699 25.9519 3.37793 27.0647 4.1984 27.8852C5.01887 28.7057 6.13167 29.1666 7.29199 29.1666H27.7087C28.869 29.1666 29.9818 28.7057 30.8023 27.8852C31.6227 27.0647 32.0837 25.9519 32.0837 24.7916V10.2083C32.0837 9.04793 31.6227 7.93513 30.8023 7.11466C29.9818 6.29419 28.869 5.83325 27.7087 5.83325ZM27.7087 8.74992L18.2295 15.2687C18.0078 15.3967 17.7563 15.464 17.5003 15.464C17.2443 15.464 16.9929 15.3967 16.7712 15.2687L7.29199 8.74992H27.7087Z" fill="url(#paint0_linear_262_2649)"/>
<defs>
<linearGradient id="paint0_linear_262_2649" x1="0.265477" y1="17.589" x2="34.8372" y2="17.589" gradientUnits="userSpaceOnUse">
<stop stop-color="#AD7449"/>
<stop offset="1" stop-color="#D18B57"/>
</linearGradient>
</defs>
</svg>
