<svg width="37" height="37" viewBox="0 0 37 37" fill="none" xmlns="http://www.w3.org/2000/svg">
<path d="M21.5348 17.7894L17.283 15.813C16.912 15.6414 16.6072 15.8337 16.6072 16.243V19.9657C16.6072 20.3749 16.912 20.5673 17.283 20.3957L21.5329 18.4193C21.9058 18.2458 21.9058 17.9629 21.5348 17.7894ZM18.5002 0C8.46339 0 0.327148 8.10546 0.327148 18.1043C0.327148 28.1032 8.46339 36.2086 18.5002 36.2086C28.5371 36.2086 36.6733 28.1032 36.6733 18.1043C36.6733 8.10546 28.5371 0 18.5002 0ZM18.5002 25.4592C9.19788 25.4592 9.03508 24.6238 9.03508 18.1043C9.03508 11.5849 9.19788 10.7494 18.5002 10.7494C27.8026 10.7494 27.9654 11.5849 27.9654 18.1043C27.9654 24.6238 27.8026 25.4592 18.5002 25.4592Z" fill="white"/>
</svg>
