<svg width="35" height="35" viewBox="0 0 35 35" fill="none" xmlns="http://www.w3.org/2000/svg">
<path d="M17.4997 1.45834C13.2901 1.41556 9.23585 3.04589 6.22783 5.99102C3.2198 8.93615 1.50418 12.9551 1.45801 17.1646C1.47423 20.4913 2.54438 23.7273 4.51477 26.4077C6.48515 29.0882 9.25437 31.0752 12.4247 32.0833C13.2268 32.2292 13.5184 31.7479 13.5184 31.325C13.5184 30.9021 13.5184 29.9688 13.5184 28.6563C9.05592 29.6042 8.10801 26.5563 8.10801 26.5563C7.81094 25.5994 7.17939 24.7815 6.32884 24.2521C4.87051 23.2896 6.44551 23.3042 6.44551 23.3042C6.94958 23.3716 7.43186 23.5522 7.85617 23.8326C8.28048 24.1129 8.63581 24.4857 8.89551 24.9229C9.34807 25.7077 10.0907 26.2834 10.9634 26.5261C11.8362 26.7689 12.7694 26.6592 13.5622 26.2208C13.6437 25.4222 14.0053 24.6783 14.583 24.1208C11.0247 23.7271 7.29134 22.3854 7.29134 16.3625C7.25952 14.7914 7.84003 13.2695 8.91009 12.1188C8.42276 10.7699 8.4803 9.28421 9.07051 7.97709C9.07051 7.97709 10.4268 7.55417 13.4455 9.58126C16.0733 8.88102 18.8386 8.88102 21.4663 9.58126C24.5288 7.55417 25.8413 7.97709 25.8413 7.97709C26.4315 9.28421 26.4891 10.7699 26.0018 12.1188C27.0967 13.2485 27.7087 14.7601 27.708 16.3333C27.708 22.3708 23.9455 23.6979 20.4163 24.0917C20.8028 24.4669 21.1013 24.923 21.2904 25.4273C21.4795 25.9316 21.5545 26.4716 21.5101 27.0083V31.3104C21.5101 31.3104 21.8018 32.2292 22.6038 32.0688C25.7652 31.0543 28.525 29.0669 30.4893 26.3902C32.4536 23.7136 33.5218 20.4846 33.5413 17.1646C33.4952 12.9551 31.7795 8.93615 28.7715 5.99102C25.7635 3.04589 21.7092 1.41556 17.4997 1.45834Z" fill="url(#paint0_linear_262_2627)"/>
<defs>
<linearGradient id="paint0_linear_262_2627" x1="-1.45866" y1="16.9007" x2="36.5702" y2="16.9007" gradientUnits="userSpaceOnUse">
<stop stop-color="#AD7449"/>
<stop offset="1" stop-color="#D18B57"/>
</linearGradient>
</defs>
</svg>
