<svg width="25" height="24" viewBox="0 0 25 24" fill="none" xmlns="http://www.w3.org/2000/svg">
<path d="M22.9171 4.85V16.74C22.9171 17.71 22.0942 18.6 21.0838 18.72L20.7609 18.76C19.0525 18.98 16.6463 19.66 14.7088 20.44C14.0317 20.71 13.2817 20.22 13.2817 19.51V5.6C13.2817 5.23 13.5005 4.89 13.8442 4.71C15.7505 3.72 18.6359 2.84 20.5942 2.68H20.6567C21.9067 2.68 22.9171 3.65 22.9171 4.85ZM11.1546 4.71C9.24837 3.72 6.36296 2.84 4.40462 2.68H4.33171C3.08171 2.68 2.07129 3.65 2.07129 4.85V16.74C2.07129 17.71 2.89421 18.6 3.90462 18.72L4.22754 18.76C5.93587 18.98 8.34212 19.66 10.2796 20.44C10.9567 20.71 11.7067 20.22 11.7067 19.51V5.6C11.7081 5.4174 11.6574 5.23792 11.5601 5.08103C11.4627 4.92413 11.3225 4.79582 11.1546 4.71ZM5.20671 7.74H7.55046C7.75766 7.74 7.95637 7.81902 8.10288 7.95967C8.2494 8.10032 8.33171 8.29109 8.33171 8.49C8.33171 8.68891 8.2494 8.87968 8.10288 9.02033C7.95637 9.16098 7.75766 9.24 7.55046 9.24H5.20671C4.99951 9.24 4.80079 9.16098 4.65428 9.02033C4.50777 8.87968 4.42546 8.68891 4.42546 8.49C4.42546 8.29109 4.50777 8.10032 4.65428 7.95967C4.80079 7.81902 4.99951 7.74 5.20671 7.74ZM8.33171 12.24H5.20671C4.99951 12.24 4.80079 12.161 4.65428 12.0203C4.50777 11.8797 4.42546 11.6889 4.42546 11.49C4.42546 11.2911 4.50777 11.1003 4.65428 10.9597C4.80079 10.819 4.99951 10.74 5.20671 10.74H8.33171C8.53891 10.74 8.73762 10.819 8.88413 10.9597C9.03065 11.1003 9.11296 11.2911 9.11296 11.49C9.11296 11.6889 9.03065 11.8797 8.88413 12.0203C8.73762 12.161 8.53891 12.24 8.33171 12.24Z" fill="url(#paint0_linear_190_1267)"/>
<defs>
<linearGradient id="paint0_linear_190_1267" x1="0.176213" y1="11.6657" x2="24.8851" y2="11.6657" gradientUnits="userSpaceOnUse">
<stop stop-color="#AD7449"/>
<stop offset="1" stop-color="#D18B57"/>
</linearGradient>
</defs>
</svg>
