<svg width="37" height="37" viewBox="0 0 37 37" fill="none" xmlns="http://www.w3.org/2000/svg">
<path d="M18.8269 0C8.79005 0 0.653809 8.10546 0.653809 18.1043C0.653809 28.1032 8.79005 36.2086 18.8269 36.2086C28.8637 36.2086 37 28.1032 37 18.1043C37 8.10546 28.8637 0 18.8269 0ZM14.3783 25.6082H10.6982V13.8102H14.3783V25.6082ZM12.5155 12.3619C11.3532 12.3619 10.6017 11.5415 10.6017 10.5269C10.6017 9.49157 11.3759 8.69573 12.5629 8.69573C13.7498 8.69573 14.4767 9.49157 14.4994 10.5269C14.4994 11.5415 13.7498 12.3619 12.5155 12.3619ZM27.8188 25.6082H24.1387V19.0699C24.1387 17.548 23.6049 16.5145 22.2741 16.5145C21.2575 16.5145 20.6537 17.2142 20.3867 17.8874C20.2883 18.127 20.2637 18.4664 20.2637 18.804V25.6063H16.5818V17.5725C16.5818 16.0996 16.5344 14.8682 16.4852 13.8083H19.6825L19.851 15.4471H19.9248C20.4095 14.6777 21.5964 13.5424 23.5822 13.5424C26.0034 13.5424 27.8188 15.1586 27.8188 18.6324V25.6082Z" fill="white"/>
</svg>
