<svg width="25" height="24" viewBox="0 0 25 24" fill="none" xmlns="http://www.w3.org/2000/svg">
<path d="M12.4997 2C6.74967 2 2.08301 6.48 2.08301 12C2.08301 17.52 6.74967 22 12.4997 22C18.2497 22 22.9163 17.52 22.9163 12C22.9163 6.48 18.2497 2 12.4997 2ZM16.8226 12.83L15.0205 13.41C14.5205 13.57 14.1351 13.94 13.9684 14.42L13.3643 16.15C12.8538 17.64 10.6663 17.61 10.1872 16.12L8.15592 9.84C7.76009 8.59 8.95801 7.44 10.2393 7.82L16.7913 9.77C18.3434 10.24 18.3643 12.34 16.8226 12.83Z" fill="#005BAA"/>
</svg>
