<svg width="24" height="24" viewBox="0 0 24 24" fill="none" xmlns="http://www.w3.org/2000/svg">
<path d="M20.3605 12.732C19.9905 12.732 19.6805 12.452 19.6405 12.082C19.5223 10.9958 19.1718 9.94786 18.6128 9.0092C18.0537 8.07054 17.2992 7.26318 16.4005 6.64196C16.3221 6.58768 16.2552 6.51842 16.2037 6.43818C16.1522 6.35794 16.117 6.2683 16.1003 6.17442C16.0836 6.08054 16.0856 5.98428 16.1062 5.89119C16.1268 5.79809 16.1657 5.70999 16.2205 5.63196C16.4505 5.30196 16.9005 5.22196 17.2305 5.45196C18.299 6.19404 19.1964 7.15627 19.8622 8.27397C20.528 9.39167 20.9468 10.6389 21.0905 11.932C21.1305 12.332 20.8405 12.692 20.4405 12.732H20.3605ZM3.74047 12.781H3.67047C3.47831 12.7608 3.30199 12.6652 3.18015 12.5153C3.05831 12.3653 3.00088 12.1732 3.02047 11.981C3.15367 10.6906 3.56174 9.44367 4.21721 8.32419C4.87268 7.20472 5.76035 6.23864 6.82047 5.49096C7.14047 5.26096 7.60047 5.34096 7.83047 5.66096C8.06047 5.99096 7.98047 6.44096 7.66047 6.67096C6.77063 7.29914 6.02557 8.11051 5.47535 9.05055C4.92512 9.99059 4.58249 11.0375 4.47047 12.121C4.43047 12.501 4.11047 12.781 3.74047 12.781ZM15.9905 21.1C14.7605 21.69 13.4405 21.99 12.0605 21.99C10.6205 21.99 9.25047 21.67 7.97047 21.02C7.88509 20.978 7.80894 20.9195 7.74647 20.8477C7.684 20.776 7.63647 20.6925 7.60667 20.6022C7.57687 20.5119 7.5654 20.4165 7.57292 20.3217C7.58044 20.2268 7.6068 20.1345 7.65047 20.05C7.82047 19.69 8.26047 19.55 8.62047 19.72C9.25047 20.04 9.92047 20.26 10.6005 20.39C11.5205 20.57 12.4605 20.58 13.3805 20.42C14.0605 20.3 14.7305 20.09 15.3505 19.79C15.7205 19.62 16.1605 19.76 16.3205 20.13C16.5005 20.49 16.3605 20.93 15.9905 21.1ZM12.0505 2.01196C10.5005 2.01196 9.23047 3.27196 9.23047 4.83196C9.23047 6.39196 10.4905 7.65196 12.0505 7.65196C13.6105 7.65196 14.8705 6.39196 14.8705 4.83196C14.8705 3.27196 13.6105 2.01196 12.0505 2.01196ZM5.05047 13.871C3.50047 13.871 2.23047 15.131 2.23047 16.691C2.23047 18.251 3.49047 19.511 5.05047 19.511C6.61047 19.511 7.87047 18.251 7.87047 16.691C7.87047 15.131 6.60047 13.871 5.05047 13.871ZM18.9505 13.871C17.4005 13.871 16.1305 15.131 16.1305 16.691C16.1305 18.251 17.3905 19.511 18.9505 19.511C20.5105 19.511 21.7705 18.251 21.7705 16.691C21.7705 15.131 20.5105 13.871 18.9505 13.871Z" fill="#005BAA"/>
</svg>
