<svg width="22" height="22" viewBox="0 0 22 22" fill="none" xmlns="http://www.w3.org/2000/svg">
<path d="M11.1458 10.6517H11.0724C11.0178 10.6425 10.962 10.6425 10.9074 10.6517C8.24909 10.5692 6.24159 8.47921 6.24159 5.90337C6.24159 3.28171 8.37742 1.14587 10.9991 1.14587C13.6208 1.14587 15.7566 3.28171 15.7566 5.90337C15.7474 8.47921 13.7308 10.5692 11.1733 10.6517H11.1458ZM10.9991 2.52087C10.1027 2.52329 9.24379 2.88044 8.60997 3.51426C7.97615 4.14808 7.61901 5.00702 7.61659 5.90337C7.61659 7.73671 9.04659 9.21254 10.8708 9.27671C10.9166 9.26754 11.0449 9.26754 11.1641 9.27671C12.9608 9.19421 14.3724 7.71837 14.3816 5.90337C14.3792 5.00702 14.022 4.14808 13.3882 3.51426C12.7544 2.88044 11.8954 2.52329 10.9991 2.52087ZM11.1577 20.6709C9.36101 20.6709 7.55517 20.2125 6.18934 19.2959C4.91517 18.4525 4.21851 17.2975 4.21851 16.0417C4.21851 14.7859 4.91517 13.6217 6.18934 12.7692C8.93934 10.945 13.3943 10.945 16.126 12.7692C17.391 13.6125 18.0968 14.7675 18.0968 16.0234C18.0968 17.2792 17.4002 18.4434 16.126 19.2959C14.751 20.2125 12.9543 20.6709 11.1577 20.6709ZM6.95017 13.9242C6.07017 14.5109 5.59351 15.2625 5.59351 16.0509C5.59351 16.83 6.07934 17.5817 6.95017 18.1592C9.23267 19.69 13.0827 19.69 15.3652 18.1592C16.2452 17.5725 16.7218 16.8209 16.7218 16.0325C16.7218 15.2534 16.236 14.5017 15.3652 13.9242C13.0827 12.4025 9.23267 12.4025 6.95017 13.9242Z" fill="white"/>
</svg>
