<svg width="25" height="25" viewBox="0 0 25 25" fill="none" xmlns="http://www.w3.org/2000/svg">
<g clip-path="url(#clip0_263_1776)">
<path d="M0.446428 3.125H6.25L8.125 0.9375C8.3745 0.646415 8.69803 0.410158 9.06996 0.247436C9.4419 0.0847151 9.85202 0 10.2679 0L14.7321 0C15.148 0 15.5581 0.0847151 15.93 0.247436C16.302 0.410158 16.6255 0.646415 16.875 0.9375L18.75 3.125H24.5536C24.672 3.125 24.7855 3.16616 24.8692 3.23941C24.953 3.31267 25 3.41202 25 3.51562V4.29688C25 4.40048 24.953 4.49983 24.8692 4.57309C24.7855 4.64635 24.672 4.6875 24.5536 4.6875H23.4989L21.6462 22.8662C21.5863 23.4491 21.2794 23.9912 20.7858 24.3861C20.2922 24.7809 19.6476 24.9999 18.9788 25H6.02121C5.35241 24.9999 4.70785 24.7809 4.21424 24.3861C3.72064 23.9912 3.41371 23.4491 3.3538 22.8662L1.50112 4.6875H0.446428C0.328028 4.6875 0.214478 4.64635 0.130756 4.57309C0.0470333 4.49983 0 4.40048 0 4.29688V3.51562C0 3.41202 0.0470333 3.31267 0.130756 3.23941C0.214478 3.16616 0.328028 3.125 0.446428 3.125ZM15.4464 1.875C15.363 1.77825 15.2551 1.6997 15.1311 1.64549C15.0072 1.59128 14.8707 1.56288 14.7321 1.5625H10.2679C10.1293 1.56288 9.99276 1.59128 9.86885 1.64549C9.74494 1.6997 9.63704 1.77825 9.55357 1.875L8.48214 3.125H16.5179L15.4464 1.875ZM5.13393 22.7246C5.15231 22.9193 5.25383 23.1007 5.41826 23.2329C5.58269 23.365 5.79797 23.438 6.02121 23.4375H18.9788C19.202 23.438 19.4173 23.365 19.5817 23.2329C19.7462 23.1007 19.8477 22.9193 19.8661 22.7246L21.7076 4.6875H3.29241L5.13393 22.7246Z" fill="#005BAA"/>
</g>
<defs>
<clipPath id="clip0_263_1776">
<rect width="25" height="25" fill="white" transform="matrix(-1 0 0 1 25 0)"/>
</clipPath>
</defs>
</svg>
