<svg width="250" height="247" viewBox="0 0 250 247" fill="none" xmlns="http://www.w3.org/2000/svg">
<g clip-path="url(#clip0_520_2518)">
<path d="M178.191 175.385H115.691V92.0995L169.732 121.249L178.191 175.385Z" fill="#2F2E41"/>
<path d="M127.237 160.685C149.647 160.685 167.814 142.798 167.814 120.732C167.814 98.6665 149.647 80.7788 127.237 80.7788C104.826 80.7788 86.6592 98.6665 86.6592 120.732C86.6592 142.798 104.826 160.685 127.237 160.685Z" fill="#FFB6B6"/>
<path d="M103.943 166.593L102.11 148.348L138.717 141.608L160.334 193.43L122.74 235.998L95.9541 184.176L103.943 166.593Z" fill="#FFB6B6"/>
<path d="M214.775 208.717C214.319 209.184 213.854 209.647 213.388 210.105C211.913 211.558 210.409 212.969 208.872 214.339C185.846 234.901 156.302 246.154 125 246.154C96.1421 246.154 68.7784 236.59 46.6403 218.984C46.6262 218.975 46.6168 218.966 46.6026 218.952C45.9307 218.42 45.2681 217.879 44.6055 217.328C44.7229 216.995 44.8498 216.666 44.9767 216.342C52.0961 198.08 66.1562 189.145 74.6901 185.235C78.9194 183.297 81.7906 182.589 81.7906 182.589L91.8094 164.821L98.863 177.777L104.06 187.327L125.386 226.503L143.783 181.4L149.483 167.417L150.945 163.836L157.895 169.161L164.474 174.2L177.721 177.078L188.468 179.415L203.064 182.589C208.966 187.322 212.557 196.326 214.563 207.514C214.638 207.912 214.709 208.315 214.775 208.717V208.717Z" fill="#6C63FF"/>
<path d="M105.892 75.3282C110.835 67.1533 119.913 61.5444 129.539 60.7177C139.165 59.891 149.092 63.8678 155.397 71.0767C159.155 75.3725 161.619 80.6335 165.281 85.008C173.163 94.4217 186.603 99.9259 190.046 111.646C191.548 116.76 190.8 122.22 190.039 127.491C189.388 132.008 188.736 136.526 188.085 141.044C187.577 144.56 187.091 148.266 188.43 151.564C190.001 155.432 193.76 157.966 196.191 161.376C200.327 167.179 200.024 175.675 195.486 181.179C193.518 183.566 190.909 185.366 188.846 187.673C186.782 189.981 185.252 193.136 186.116 196.09C187.771 201.749 196.785 203.106 197.774 208.915C198.279 211.885 196.196 214.85 193.467 216.208C190.737 217.566 187.524 217.605 184.488 217.242C172.95 215.861 162.267 208.763 156.649 198.744C151.032 188.725 150.623 176.041 155.583 165.692C159.658 157.191 167.231 149.68 167.148 140.281C167.103 135.16 164.718 130.378 162.385 125.801C157.611 116.433 152.837 107.065 148.063 97.6979C145.506 92.68 142.538 87.2725 137.273 85.1169C133.204 83.4509 128.587 84.0971 124.235 84.7785C119.883 85.4599 115.273 86.1232 111.192 84.4861C107.111 82.8491 104.027 77.9854 105.972 74.0916" fill="#2F2E41"/>
<path d="M113.004 75.7551C105.164 73.2142 96.3697 77.2932 91.0622 83.5166C85.7548 89.7399 83.1802 97.7241 80.7276 105.483C79.3228 109.928 77.9179 114.373 76.5131 118.817C75.1915 122.998 73.87 127.179 72.5484 131.36C70.994 136.278 69.4269 141.503 70.7026 146.498C71.6249 150.109 73.998 153.388 74.0491 157.111C74.1024 161 71.6287 164.415 69.4609 167.666C67.2931 170.918 65.2581 174.781 66.291 178.536C67.862 184.246 75.9254 187.385 75.4834 193.285C75.3359 195.254 74.1794 197.076 74.2004 199.05C74.2271 201.562 76.2246 203.732 78.5648 204.733C80.905 205.734 83.5374 205.788 86.0884 205.744C93.9133 205.609 101.724 204.694 109.363 203.018C112.302 202.373 115.29 201.582 117.737 199.854C120.183 198.125 122.008 195.262 121.69 192.314C121.194 187.72 116.177 185.114 113.645 181.224C111.159 177.403 111.217 172.562 110.144 168.149C108.671 162.084 105.031 156.789 102.299 151.163C92.0283 130.01 95.6238 103.048 111.093 85.2233C112.46 83.6473 113.955 82.0619 114.525 80.0664C115.096 78.071 114.36 75.5287 112.378 74.8306" fill="#2F2E41"/>
</g>
<defs>
<clipPath id="clip0_520_2518">
<rect width="250" height="246.154" fill="white"/>
</clipPath>
</defs>
</svg>
